SplineFontDB: 3.0
FontName: BoonTook-Ultra-Oblique
FullName: BoonTook Ultra Oblique
FamilyName: BoonTook Ultra
Weight: Ultra
Copyright: Copyright (c) 2014, Sungsit Sawaiwan (sungsit.com | https://twitter.com/gzix), with Reserved Font Names "BoonTook".
Version: 1.0-beta1
ItalicAngle: -9
UnderlinePosition: -60
UnderlineWidth: 60
Ascent: 960
Descent: 240
woffMajor: 1
woffMinor: 0
LayerCount: 2
Layer: 0 0 "Back"  1
Layer: 1 0 "Fore"  0
FSType: 8
OS2Version: 0
OS2_WeightWidthSlopeOnly: 0
OS2_UseTypoMetrics: 0
CreationTime: 1394017292
ModificationTime: 1414542634
PfmFamily: 33
TTFWeight: 950
TTFWidth: 5
LineGap: 0
VLineGap: 0
Panose: 2 1 1 5 5 0 0 0 0 0
OS2TypoAscent: 1240
OS2TypoAOffset: 0
OS2TypoDescent: -480
OS2TypoDOffset: 0
OS2TypoLinegap: 0
OS2WinAscent: 1240
OS2WinAOffset: 0
OS2WinDescent: 480
OS2WinDOffset: 0
HheadAscent: 1240
HheadAOffset: 0
HheadDescent: -480
HheadDOffset: 0
OS2FamilyClass: 2048
OS2Vendor: 'BUni'
Lookup: 1 0 0 "'aalt' Latin Access All Alternates"  {"'aalt' Latin Access All Alternates" ("alt" ) } ['aalt' ('DFLT' <'dflt' > 'latn' <'dflt' > ) ]
Lookup: 1 0 0 "'ss18' Latin g alt"  {"'ss18' Latin g alt"  } ['ss18' ('DFLT' <'dflt' > 'latn' <'dflt' > 'thai' <'PAL ' 'SAN ' 'THA ' 'dflt' > ) ]
Lookup: 1 0 0 "'ss19' Latin a alt"  {"'ss19' Latin a alt"  } ['ss19' ('DFLT' <'dflt' > 'latn' <'dflt' > 'thai' <'PAL ' 'SAN ' 'THA ' 'dflt' > ) ]
Lookup: 1 0 0 "'ss20' Latin a & g alt"  {"'ss20' Latin a & g alt" ("alt" ) } ['ss20' ('DFLT' <'dflt' > 'latn' <'dflt' > 'thai' <'PAL ' 'SAN ' 'THA ' 'dflt' > ) ]
Lookup: 1 0 0 "'locl' Localized Thai-Sanskrit"  {"'locl' Localized Thai-Sanskrit" ("descless" ) } ['ccmp' ('latn' <' SAN' 'PAL ' > 'thai' <'PAL ' 'SAN ' > ) 'locl' ('latn' <' SAN' 'PAL ' > 'thai' <'PAL ' 'SAN ' > ) 'salt' ('DFLT' <'dflt' > 'latn' <'dflt' > 'thai' <'PAL ' 'SAN ' 'THA ' 'dflt' > ) 'ss01' ('DFLT' <'dflt' > 'latn' <'dflt' > 'thai' <'PAL ' 'SAN ' 'THA ' 'dflt' > ) ]

StartChar: uni0E2D
Encoding: 3629 3629 0
Width: 730
VWidth: 0
Flags: W
HStem: -20 180<261.043 374.274> 230 110<250 296> 440 180<190.917 492.5>
VStem: 420 273<226.164 403.654>
LayerCount: 2
Fore
SplineSet
7 205 m 0
 7 222 8 241 11 260 c 0
 18 305 46 340 84 340 c 2
 314 340 l 1
 296 230 l 1
 251 230 l 1
 250 225 250 220 250 216 c 0
 250 178 279 160 315 160 c 0
 373 160 404 210 418 300 c 0
 420 312 420 323 420 333 c 0
 420 409 369 440 290 440 c 0
 218 440 150 416 103 400 c 1
 67 550 l 1
 67 550 196 620 398 620 c 0
 587 620 693 524 693 365 c 0
 693 344 692 323 688 300 c 0
 660 123 501 -20 287 -20 c 0
 123 -20 7 52 7 205 c 0
EndSplineSet
Colour: ffff00
EndChar

StartChar: uni0E01
Encoding: 3585 3585 1
Width: 770
VWidth: 0
Flags: W
HStem: 0 21G<30 303.167 400 673.189> 440 180<333.486 454.346>
LayerCount: 2
Fore
SplineSet
30 0 m 1
 89 370 l 2
 92 389 89 396 82 397 c 1
 72 395 61 392 52 390 c 1
 42 520 l 1
 42 520 216 620 418 620 c 0
 613 620 732 551 732 413 c 0
 732 399 731 385 729 370 c 2
 670 0 l 1
 400 0 l 1
 459 370 l 2
 460 377 460 383 460 389 c 0
 460 424 440 440 390 440 c 0
 377 440 355 439 331 436 c 1
 347 422 358 402 358 375 c 0
 358 370 358 365 357 360 c 2
 300 0 l 1
 30 0 l 1
EndSplineSet
Colour: ffff00
EndChar

StartChar: uni0E17
Encoding: 3607 3607 2
Width: 775
VWidth: 0
Flags: W
HStem: 0 21G<-10 273.183 390 673.158> 400 210<385.5 604> 580 20G<81.8333 345>
VStem: 444 290<241.719 487>
LayerCount: 2
Fore
SplineSet
-10 0 m 1xd0
 85 600 l 1
 345 600 l 1xb0
 329 498 l 1
 364 544 434 610 547 610 c 0
 661 610 734 545 734 429 c 0
 734 414 733 397 730 380 c 2
 670 0 l 1
 390 0 l 1
 441 320 l 2
 443 333 444 345 444 354 c 0
 444 389 430 400 403 400 c 0
 368 400 342 374 323 333 c 1
 270 0 l 1
 -10 0 l 1xd0
EndSplineSet
Colour: ffff00
EndChar

StartChar: uni0E19
Encoding: 3609 3609 3
Width: 775
VWidth: 0
Flags: W
HStem: -10 210<146 364.5> 0 21G<405 668.167> 580 20G<76.8421 360 476.817 760>
VStem: 16 290<113 358.281>
LayerCount: 2
Fore
SplineSet
16 171 m 0xb0
 16 186 17 203 20 220 c 2
 80 600 l 1
 360 600 l 1
 309 280 l 2
 307 267 306 255 306 246 c 0
 306 211 320 200 347 200 c 0xb0
 382 200 408 226 427 267 c 1
 480 600 l 1
 760 600 l 1
 665 0 l 1
 405 0 l 1x70
 421 102 l 1
 386 56 316 -10 203 -10 c 0
 89 -10 16 55 16 171 c 0xb0
EndSplineSet
Colour: ffff00
EndChar

StartChar: uni0E21
Encoding: 3617 3617 4
Width: 775
VWidth: 0
Flags: W
HStem: -10 210<342.378 512.5> 0 21G<-10 253.137> 580 20G<81.8333 365 481.812 765>
LayerCount: 2
Fore
SplineSet
-10 0 m 1x60
 85 600 l 1
 365 600 l 1
 312 267 l 1
 319 226 337 200 372 200 c 0
 406 200 424 219 434 280 c 2
 485 600 l 1
 765 600 l 1
 705 220 l 2
 682 74 577 -10 448 -10 c 0xa0
 335 -10 287 56 266 102 c 1
 250 0 l 1
 -10 0 l 1x60
EndSplineSet
Colour: ffff00
EndChar

StartChar: uni0E1A
Encoding: 3610 3610 5
Width: 790
VWidth: 0
Flags: W
HStem: -20 190<310.801 421.317> 580 20G<76.8108 360 496.833 780>
LayerCount: 2
Fore
SplineSet
18 187 m 0
 18 201 19 215 21 230 c 2
 80 600 l 1
 360 600 l 1
 303 240 l 2
 302 234 302 228 302 223 c 0
 302 187 324 170 362 170 c 0
 406 170 435 192 443 240 c 2
 500 600 l 1
 780 600 l 1
 721 230 l 2
 695 64 546 -20 332 -20 c 0
 137 -20 18 49 18 187 c 0
EndSplineSet
Colour: ffff00
EndChar

StartChar: uni0E1B
Encoding: 3611 3611 6
Width: 820
VWidth: 0
Flags: W
HStem: -20 190<311.877 441.017> 580 20G<76.8108 360> 820 20G<554.833 838>
AnchorPoint: "th-vow-above" 525 660 basechar 0
LayerCount: 2
Fore
SplineSet
18 189 m 0
 18 202 19 216 21 230 c 2
 80 600 l 1
 360 600 l 1
 303 240 l 2
 302 235 302 230 302 225 c 0
 302 187 328 170 372 170 c 0
 421 170 455 192 463 240 c 2
 558 840 l 1
 838 840 l 1
 741 230 l 2
 715 64 561 -20 342 -20 c 0
 142 -20 18 50 18 189 c 0
EndSplineSet
Colour: ffff00
EndChar

StartChar: uni0E04
Encoding: 3588 3588 7
Width: 780
VWidth: 0
Flags: W
HStem: 0 21G<-20 253.226 410 683.189> 165 175<319.153 385.556> 430 190<330.843 456.967>
LayerCount: 2
Fore
SplineSet
-20 0 m 1
 39 370 l 2
 65 536 214 620 428 620 c 0
 623 620 742 551 742 413 c 0
 742 399 741 385 739 370 c 2
 680 0 l 1
 410 0 l 1
 467 360 l 2
 468 365 468 369 468 373 c 0
 468 412 438 430 398 430 c 0
 354 430 315 408 307 360 c 2
 296 290 l 1
 318 317 345 340 374 340 c 0
 396 340 403 335 412 330 c 1
 385 160 l 1
 377 162 367 165 351 165 c 0
 317 165 287 145 270 124 c 1
 250 0 l 1
 -20 0 l 1
EndSplineSet
Colour: ffff00
EndChar

StartChar: uni0E05
Encoding: 3589 3589 8
Width: 780
VWidth: 0
Flags: W
HStem: 0 21G<-20 253.226 410 683.18> 165 175<319.153 385.556> 600 20G<235.5 286.5 569.5 616.5>
VStem: 470 275<243.281 491.5>
LayerCount: 2
Fore
SplineSet
-20 0 m 1
 42 390 l 2
 65 536 193 620 278 620 c 0
 295 620 414 530 414 530 c 1
 414 530 561 620 578 620 c 0
 655 620 745 552 745 431 c 0
 745 418 744 404 742 390 c 2
 680 0 l 1
 410 0 l 1
 469 370 l 2
 470 375 470 380 470 384 c 0
 470 410 457 420 457 420 c 1
 400 380 l 1
 390 380 l 1
 380 380 l 1
 337 420 l 1
 337 420 315 406 309 370 c 2
 296 290 l 1
 318 317 345 340 374 340 c 0
 396 340 403 335 412 330 c 1
 385 160 l 1
 377 162 367 165 351 165 c 0
 317 165 287 145 270 124 c 1
 250 0 l 1
 -20 0 l 1
EndSplineSet
Colour: ffff00
EndChar

StartChar: uni0E02
Encoding: 3586 3586 9
Width: 755
VWidth: 0
Flags: W
HStem: -20 180<298.478 399.844> 580 20G<81.8889 332.5 471.842 745>
LayerCount: 2
Fore
SplineSet
21 178 m 0
 21 191 23 205 25 220 c 0
 44 338 137 420 137 420 c 1
 57 420 l 1
 85 600 l 1
 295 600 l 2
 370 600 399 566 399 511 c 0
 399 501 398 491 396 480 c 0
 383 397 310 317 295 220 c 0
 294 215 293 210 293 206 c 0
 293 174 315 160 345 160 c 0
 379 160 408 177 415 220 c 2
 475 600 l 1
 745 600 l 1
 685 220 l 2
 659 54 518 -20 317 -20 c 0
 134 -20 21 46 21 178 c 0
EndSplineSet
Colour: ffff00
EndChar

StartChar: uni0E03
Encoding: 3587 3587 10
Width: 765
VWidth: 0
Flags: W
HStem: -20 180<308.292 409.844> 590 20G<53.75 97 270 346 481.842 755>
LayerCount: 2
Fore
SplineSet
31 176 m 0
 31 190 33 204 35 220 c 0
 53 333 188 369 197 425 c 0
 199 438 196 450 181 450 c 0
 152 450 124 419 113 400 c 1
 103 400 l 1
 31 450 l 1
 57 610 l 1
 67 610 l 1
 157 550 l 1
 180 570 233 610 307 610 c 0
 385 610 428 564 428 502 c 0
 428 495 427 488 426 480 c 0
 413 397 320 317 305 220 c 0
 304 215 303 210 303 206 c 0
 303 173 325 160 355 160 c 0
 389 160 418 177 425 220 c 2
 485 600 l 1
 755 600 l 1
 695 220 l 2
 669 54 528 -20 327 -20 c 0
 145 -20 31 41 31 176 c 0
EndSplineSet
Colour: ffff00
EndChar

StartChar: uni0E06
Encoding: 3590 3590 11
Width: 775
VWidth: -360
Flags: W
HStem: -10 210<342.408 512.5> 0 21G<0 253.137> 590 20G<53.75 97 270 346 491.812 765>
LayerCount: 2
Fore
SplineSet
0 0 m 1x60
 35 220 l 2
 53 333 188 369 197 425 c 0
 199 438 196 450 181 450 c 0
 152 450 124 419 113 400 c 1
 103 400 l 1
 31 450 l 1
 57 610 l 1
 67 610 l 1
 157 550 l 1
 180 570 233 610 307 610 c 0
 385 610 428 564 428 502 c 0
 428 495 427 488 426 480 c 0
 415 408 343 338 315 257 c 1
 322 222 340 200 372 200 c 0
 406 200 434 219 444 280 c 2
 495 600 l 1
 765 600 l 1
 705 220 l 2
 682 74 577 -10 448 -10 c 0xa0
 335 -10 287 56 266 102 c 1
 250 0 l 1
 0 0 l 1x60
EndSplineSet
Colour: ffff00
EndChar

StartChar: uni0E07
Encoding: 3591 3591 12
Width: 770
VWidth: 0
Flags: W
HStem: -10 170<350 411.573> 420 190<375.598 574.5>
VStem: 470 262<227.812 404.23>
AnchorPoint: "th-vow-below" 540 0 basechar 0
LayerCount: 2
Fore
SplineSet
45 600 m 1
 305 600 l 1
 350 160 l 1
 405 160 454 212 468 300 c 0
 470 312 470 324 470 334 c 0
 470 391 443 420 407 420 c 0
 396 420 385 418 376 415 c 1
 362 580 l 1
 394 599 443 610 497 610 c 0
 652 610 732 504 732 363 c 0
 732 343 731 322 728 300 c 0
 701 129 552 -10 318 -10 c 0
 212 -10 140 0 140 0 c 1
 45 600 l 1
EndSplineSet
Colour: ffff00
EndChar

StartChar: uni0E16
Encoding: 3606 3606 13
Width: 770
VWidth: 0
Flags: W
HStem: 0 21G<104.5 353.2 400 673.189> 440 180<331.532 454.346>
LayerCount: 2
Fore
SplineSet
42 520 m 1
 42 520 216 620 418 620 c 0
 613 620 732 551 732 413 c 0
 732 399 731 385 729 370 c 2
 670 0 l 1
 400 0 l 1
 459 370 l 2
 460 377 460 383 460 389 c 0
 460 424 440 440 390 440 c 0
 376 440 353 439 327 436 c 1
 339 422 348 403 348 378 c 0
 348 372 348 366 347 360 c 2
 314 150 l 1
 374 150 l 1
 350 0 l 1
 140 0 l 2
 69 0 43 32 43 73 c 0
 43 78 43 84 44 90 c 2
 89 370 l 2
 92 389 89 396 82 397 c 1
 72 395 61 392 52 390 c 1
 42 520 l 1
EndSplineSet
Colour: ffff00
EndChar

StartChar: uni0E2E
Encoding: 3630 3630 14
Width: 750
VWidth: 0
Flags: W
HStem: -20 180<261.043 374.274> 230 110<250 296> 440 180<190.917 440.5>
VStem: 420 273<226.164 406.053>
LayerCount: 2
Fore
SplineSet
7 205 m 0
 7 222 8 241 11 260 c 0
 18 305 46 340 84 340 c 2
 314 340 l 1
 296 230 l 1
 251 230 l 1
 250 225 250 220 250 216 c 0
 250 178 279 160 315 160 c 0
 373 160 404 210 418 300 c 0
 420 312 420 323 420 333 c 0
 420 409 369 440 290 440 c 0
 218 440 150 416 103 400 c 1
 67 550 l 1
 67 550 196 620 398 620 c 0
 483 620 530 596 552 578 c 1
 575 602 591 636 598 680 c 1
 798 680 l 1
 785 599 733 531 657 486 c 1
 677 461 693 422 693 363 c 0
 693 344 692 323 688 300 c 0
 660 123 501 -20 287 -20 c 0
 123 -20 7 52 7 205 c 0
EndSplineSet
Substitution2: "TH Tail Swap" uni0E2E.swap
Substitution2: "'ss02' TH Tail swap" uni0E2E.swap
Colour: ffff00
EndChar

StartChar: uni0E20
Encoding: 3616 3616 15
Width: 770
VWidth: 0
Flags: W
HStem: 0 21G<-20 230 400 673.189> 440 180<340.438 454.346>
LayerCount: 2
Fore
SplineSet
-20 0 m 1
 4 150 l 1
 64 150 l 1
 99 370 l 2
 102 391 99 399 90 399 c 1
 77 396 64 393 52 390 c 1
 42 520 l 1
 42 520 216 620 418 620 c 0
 613 620 732 551 732 413 c 0
 732 399 731 385 729 370 c 2
 670 0 l 1
 400 0 l 1
 459 370 l 2
 460 377 460 383 460 389 c 0
 460 424 440 440 390 440 c 0
 377 440 358 439 336 437 c 1
 349 423 358 403 358 378 c 0
 358 372 358 366 357 360 c 2
 314 90 l 2
 306 42 270 0 190 0 c 2
 -20 0 l 1
EndSplineSet
Colour: ffff00
EndChar

StartChar: uni0E14
Encoding: 3604 3604 16
Width: 790
VWidth: 0
Flags: W
HStem: -10 190<179.5 374.5> 0 21G<420 693.189> 420 200<347.194 468.627>
VStem: 478 273<307.862 410.561>
LayerCount: 2
Fore
SplineSet
13 241 m 0xb0
 13 260 15 280 18 300 c 0
 45 471 200 620 448 620 c 0
 649 620 751 524 751 405 c 0
 751 394 751 382 749 370 c 2
 690 0 l 1
 420 0 l 1x70
 477 360 l 2
 477 362 478 364 478 367 c 0
 478 392 460 420 417 420 c 0
 361 420 311 380 298 300 c 0
 296 289 295 279 295 269 c 0
 295 210 328 180 369 180 c 0
 380 180 390 182 399 185 c 1
 373 20 l 1
 341 1 302 -10 258 -10 c 0
 101 -10 13 98 13 241 c 0xb0
EndSplineSet
Colour: ffff00
EndChar

StartChar: uni0E15
Encoding: 3605 3605 17
Width: 810
VWidth: 0
Flags: W
HStem: -10 190<179.5 374.5> 0 21G<430 703.167> 420 190<337.927 430.936> 580 20G<531.87 795>
VStem: 13 282<201.764 369.945>
LayerCount: 2
Fore
SplineSet
13 241 m 0xa8
 13 260 15 280 18 300 c 0
 45 471 174 610 347 610 c 0xa8
 423 610 481 553 517 485 c 1
 535 600 l 1
 795 600 l 1
 700 0 l 1
 430 0 l 1x58
 483 334 l 1
 468 376 420 420 387 420 c 0
 351 420 311 380 298 300 c 0
 296 289 295 279 295 269 c 0
 295 210 328 180 369 180 c 0
 380 180 390 182 399 185 c 1
 373 20 l 1
 341 1 302 -10 258 -10 c 0
 101 -10 13 98 13 241 c 0xa8
EndSplineSet
Colour: ffff00
EndChar

StartChar: uni0E33
Encoding: 3635 3635 18
Width: 540
VWidth: 0
Flags: W
HStem: 0 21G<150 433.158> 410 200<120.286 358.5> 670 90<-185.171 -114.041> 850 90<-181.428 -109.829>
VStem: -324 136<761.802 843.529> -107 136<766.471 848.198> 208 287<248.438 495.5>
LayerCount: 2
Fore
SplineSet
-324 783 m 0
 -324 790 -324 797 -323 805 c 0
 -310 884 -240 940 -126 940 c 0
 -23 940 29 894 29 827 c 0
 29 820 28 813 27 805 c 0
 14 726 -55 670 -169 670 c 0
 -272 670 -324 716 -324 783 c 0
-188 795 m 0
 -188 772 -174 760 -155 760 c 0
 -133 760 -113 775 -108 805 c 0
 -107 809 -107 812 -107 815 c 0
 -107 838 -121 850 -140 850 c 0
 -162 850 -183 835 -188 805 c 0
 -189 801 -188 798 -188 795 c 0
26 540 m 1
 26 540 121 610 287 610 c 0
 430 610 495 552 495 439 c 0
 495 421 493 401 490 380 c 2
 430 0 l 1
 150 0 l 1
 207 360 l 2
 208 366 208 371 208 376 c 0
 208 401 195 410 165 410 c 0
 129 410 74 394 50 380 c 1
 26 540 l 1
EndSplineSet
Substitution2: "TH Sara Am Alter" uni0E33.alt
Colour: ffff00
EndChar

StartChar: uni0E08
Encoding: 3592 3592 19
Width: 710
VWidth: -360
Flags: W
HStem: -10 350<130.035 288.018> 440 180<170.311 473.5>
VStem: 402 274<242.571 406.932>
AnchorPoint: "th-vow-below" 460 0 basechar 0
LayerCount: 2
Fore
SplineSet
20 190 m 1
 44 340 l 1
 234 340 l 2
 276 340 290 320 296 290 c 2
 320 168 l 1
 356 186 387 233 399 310 c 0
 401 320 402 330 402 339 c 0
 402 405 359 440 280 440 c 0
 208 440 130 416 83 400 c 1
 47 550 l 1
 47 550 176 620 378 620 c 0
 569 620 676 528 676 377 c 0
 676 359 674 340 671 320 c 0
 644 149 493 -10 308 -10 c 0
 178 -10 130 0 130 0 c 1
 80 190 l 1
 20 190 l 1
EndSplineSet
Colour: ffff00
EndChar

StartChar: uni0E09
Encoding: 3593 3593 20
Width: 750
VWidth: 0
Flags: W
HStem: -10 170<147 348> 0 21G<400 653.189> 440 180<192.541 504.5>
VStem: 435 277<225.359 483>
LayerCount: 2
Fore
SplineSet
20 190 m 1xb0
 44 340 l 1
 254 340 l 2
 305 340 317 326 317 303 c 0
 317 296 315 288 314 280 c 2
 303 210 l 2
 302 204 302 199 302 194 c 0
 302 169 314 160 335 160 c 0xb0
 361 160 388 177 412 204 c 1
 434 340 l 2
 435 346 435 351 435 356 c 0
 435 415 377 440 300 440 c 0
 228 440 140 416 93 400 c 1
 57 550 l 1
 57 550 206 620 408 620 c 0
 601 620 712 551 712 415 c 0
 712 401 712 386 709 370 c 2
 650 0 l 1
 400 0 l 1x70
 415 92 l 1
 381 51 296 -10 178 -10 c 0
 116 -10 48 19 48 102 c 0
 48 111 49 120 51 130 c 2
 60 190 l 1
 20 190 l 1xb0
EndSplineSet
Colour: ffff00
EndChar

StartChar: uni0E0A
Encoding: 3594 3594 21
Width: 770
VWidth: -360
Flags: W
HStem: -20 180<298.478 399.844> 580 20G<81.8889 332.5>
VStem: 442 264<298 409.234>
LayerCount: 2
Fore
SplineSet
21 178 m 0
 21 191 23 205 25 220 c 0
 44 338 137 420 137 420 c 1
 57 420 l 1
 85 600 l 1
 295 600 l 2
 370 600 399 566 399 511 c 0
 399 501 398 491 396 480 c 0
 383 397 310 317 295 220 c 0
 294 215 293 210 293 206 c 0
 293 174 315 160 345 160 c 0
 379 160 408 177 415 220 c 2
 439 370 l 2
 441 382 442 393 442 401 c 0
 442 420 435 430 418 430 c 2
 408 430 l 1
 424 530 l 1
 513 530 581 575 598 680 c 1
 798 680 l 1
 782 582 709 503 607 462 c 1
 664 441 706 388 706 355 c 0
 706 353 705 352 705 350 c 2
 685 220 l 2
 659 54 518 -20 317 -20 c 0
 134 -20 21 46 21 178 c 0
EndSplineSet
Substitution2: "TH Tail Swap" uni0E0A.swap
Substitution2: "'ss02' TH Tail swap" uni0E0A.swap
Colour: ffff00
EndChar

StartChar: uni0E0B
Encoding: 3595 3595 22
Width: 780
VWidth: -360
Flags: W
HStem: -20 180<308.292 409.844> 590 20G<53.75 97 270 346>
VStem: 452 264<298 409.234>
LayerCount: 2
Fore
SplineSet
31 176 m 0
 31 190 33 204 35 220 c 0
 53 333 188 369 197 425 c 0
 199 438 196 450 181 450 c 0
 152 450 124 419 113 400 c 1
 103 400 l 1
 31 450 l 1
 57 610 l 1
 67 610 l 1
 157 550 l 1
 180 570 233 610 307 610 c 0
 385 610 428 564 428 502 c 0
 428 495 427 488 426 480 c 0
 413 397 320 317 305 220 c 0
 304 215 303 210 303 206 c 0
 303 173 325 160 355 160 c 0
 389 160 418 177 425 220 c 2
 449 370 l 2
 451 382 452 393 452 401 c 0
 452 420 445 430 428 430 c 2
 423 430 l 1
 439 530 l 1
 528 530 591 575 608 680 c 1
 808 680 l 1
 792 582 719 503 617 462 c 1
 674 441 716 388 716 355 c 0
 716 353 715 352 715 350 c 2
 695 220 l 2
 669 54 528 -20 327 -20 c 0
 145 -20 31 41 31 176 c 0
EndSplineSet
Substitution2: "TH Tail Swap" uni0E0B.swap
Substitution2: "'ss02' TH Tail swap" uni0E0B.swap
Colour: ffff00
EndChar

StartChar: uni0E0C
Encoding: 3596 3596 23
Width: 1150
VWidth: 0
Flags: W
HStem: -10 200<733.618 897> 0 21G<104.5 353.2 400 653.261> 440 180<331.532 454.346> 580 20G<861.849 1135>
LayerCount: 2
Fore
SplineSet
42 520 m 1x60
 42 520 216 620 418 620 c 0x60
 613 620 732 551 732 413 c 0
 732 399 731 385 729 370 c 2
 706 230 l 1
 719 205 736 190 760 190 c 0
 786 190 803 209 813 270 c 2
 865 600 l 1
 1135 600 l 1
 1073 210 l 2
 1050 64 956 -10 838 -10 c 0x90
 734 -10 686 48 665 92 c 1
 650 0 l 1
 400 0 l 1
 459 370 l 2
 460 377 460 383 460 389 c 0
 460 424 440 440 390 440 c 0
 376 440 353 439 327 436 c 1
 339 422 348 403 348 378 c 0
 348 372 348 366 347 360 c 2
 314 150 l 1
 374 150 l 1
 350 0 l 1
 140 0 l 2
 69 0 43 32 43 73 c 0
 43 78 43 84 44 90 c 2
 89 370 l 2
 92 389 89 396 82 397 c 1
 72 395 61 392 52 390 c 1
 42 520 l 1x60
EndSplineSet
Colour: ffff00
EndChar

StartChar: uni0E0D
Encoding: 3597 3597 24
Width: 1150
VWidth: 0
Flags: W
HStem: -250 150<559.927 856.956> -20 180<705.989 791.336> 0 21G<104.5 353.2> 440 180<331.532 454.346> 580 20G<861.842 1135>
VStem: 430 273<163.791 353.047>
LayerCount: 2
Fore
SplineSet
42 520 m 1xb4
 42 520 216 620 418 620 c 0xb4
 613 620 732 551 732 413 c 0
 732 399 731 385 729 370 c 2
 705 220 l 2
 704 213 703 207 703 201 c 0
 703 173 716 160 745 160 c 0
 780 160 799 179 805 220 c 2
 865 600 l 1
 1135 600 l 1
 1073 210 l 2
 1053 83 949 -20 717 -20 c 0xcc
 509 -20 430 63 430 171 c 0
 430 184 431 197 433 210 c 2
 459 370 l 2
 460 377 460 383 460 389 c 0
 460 424 440 440 390 440 c 0
 376 440 353 439 327 436 c 1
 339 422 348 403 348 378 c 0
 348 372 348 366 347 360 c 2
 314 150 l 1
 374 150 l 1
 350 0 l 1
 140 0 l 2
 69 0 43 32 43 73 c 0
 43 78 43 84 44 90 c 2
 89 370 l 2
 92 389 89 396 82 397 c 1
 72 395 61 392 52 390 c 1
 42 520 l 1xb4
416 -180 m 1
 498 -45 l 1
 498 -45 581 -100 704 -100 c 0
 826 -100 928 -45 928 -45 c 1
 966 -180 l 1
 966 -180 862 -250 680 -250 c 0
 497 -250 416 -180 416 -180 c 1
EndSplineSet
Substitution2: "TH Descless" uni0E0D.descless
Substitution2: "'locl' Localized Thai-Sanskrit" uni0E0D.descless
Colour: ffff00
EndChar

StartChar: uni0E13
Encoding: 3603 3603 25
Width: 1150
VWidth: -360
Flags: W
HStem: -10 200<546.5 752> 0 21G<104.5 353.2 790 1043.17> 440 180<331.532 454.346> 580 20G<861.811 1135>
VStem: 429 280<102.5 347.031>
LayerCount: 2
Fore
SplineSet
42 520 m 1x68
 42 520 216 620 418 620 c 0
 613 620 732 551 732 413 c 0
 732 399 731 385 729 370 c 2
 713 270 l 2
 711 255 709 243 709 233 c 0
 709 201 720 190 740 190 c 0xa8
 764 190 785 205 806 230 c 1
 865 600 l 1
 1135 600 l 1
 1040 0 l 1
 790 0 l 1x58
 805 92 l 1
 770 48 702 -10 598 -10 c 0x88
 495 -10 429 47 429 158 c 0
 429 174 430 191 433 210 c 2
 459 370 l 2
 460 377 460 383 460 389 c 0
 460 424 440 440 390 440 c 0
 376 440 353 439 327 436 c 1
 339 422 348 403 348 378 c 0
 348 372 348 366 347 360 c 2
 314 150 l 1
 374 150 l 1
 350 0 l 1
 140 0 l 2
 69 0 43 32 43 73 c 0
 43 78 43 84 44 90 c 2
 89 370 l 2
 92 389 89 396 82 397 c 1
 72 395 61 392 52 390 c 1
 42 520 l 1x68
EndSplineSet
Colour: ffff00
EndChar

StartChar: uni0E12
Encoding: 3602 3602 26
Width: 1180
VWidth: -360
Flags: W
HStem: -10 200<763.618 927> -10 190<179.5 374.5> 0 21G<430 683.261> 420 190<337.927 430.936> 580 20G<531.87 795 891.849 1165>
VStem: 13 282<201.764 369.945>
LayerCount: 2
Fore
SplineSet
13 241 m 0x54
 13 260 15 280 18 300 c 0
 45 471 174 610 347 610 c 0x54
 423 610 481 553 517 485 c 1
 535 600 l 1
 795 600 l 1
 736 230 l 1
 749 205 766 190 790 190 c 0
 816 190 833 209 843 270 c 2
 895 600 l 1
 1165 600 l 1
 1103 210 l 2
 1080 64 986 -10 868 -10 c 0x8c
 764 -10 716 48 695 92 c 1
 680 0 l 1
 430 0 l 1x24
 483 334 l 1
 468 376 420 420 387 420 c 0
 351 420 311 380 298 300 c 0
 296 289 295 279 295 269 c 0
 295 210 328 180 369 180 c 0
 380 180 390 182 399 185 c 1
 373 20 l 1
 341 1 302 -10 258 -10 c 0
 101 -10 13 98 13 241 c 0x54
EndSplineSet
Colour: ffff00
EndChar

StartChar: uni0E11
Encoding: 3601 3601 27
Width: 785
VWidth: 0
Flags: W
HStem: 0 21G<10 293.182 400 683.158> 590 20G<53.75 97 270 346 579 664>
VStem: 454 294<308.062 504.821>
LayerCount: 2
Fore
SplineSet
10 0 m 1
 45 220 l 2
 63 333 188 369 197 425 c 0
 199 438 196 450 181 450 c 0
 152 450 124 419 113 400 c 1
 103 400 l 1
 31 450 l 1
 57 610 l 1
 67 610 l 1
 157 550 l 1
 180 570 233 610 307 610 c 0
 385 610 428 564 428 501 c 0
 428 498 428 494 428 491 c 1
 476 553 541 610 617 610 c 0
 711 610 748 558 748 464 c 0
 748 439 745 411 740 380 c 2
 680 0 l 1
 400 0 l 1
 452 330 l 2
 453 337 454 343 454 348 c 0
 454 362 449 370 434 370 c 0
 394 370 351 291 325 220 c 1
 290 0 l 1
 10 0 l 1
EndSplineSet
Colour: ffff00
EndChar

StartChar: uni0E24
Encoding: 3620 3620 28
Width: 775
VWidth: 0
Flags: W
HStem: 0 21G<104.5 353.2> 440 180<331.532 454.346>
LayerCount: 2
Fore
SplineSet
42 520 m 1
 42 520 216 620 418 620 c 0
 613 620 732 551 732 413 c 0
 732 399 731 385 729 370 c 2
 632 -240 l 1
 362 -240 l 1
 459 370 l 2
 460 377 460 383 460 389 c 0
 460 424 440 440 390 440 c 0
 376 440 353 439 327 436 c 1
 339 422 348 403 348 378 c 0
 348 372 348 366 347 360 c 2
 314 150 l 1
 374 150 l 1
 350 0 l 1
 140 0 l 2
 69 0 43 32 43 73 c 0
 43 78 43 84 44 90 c 2
 89 370 l 2
 92 389 89 396 82 397 c 1
 72 395 61 392 52 390 c 1
 42 520 l 1
EndSplineSet
Colour: ffff00
EndChar

StartChar: uni0E26
Encoding: 3622 3622 29
Width: 775
VWidth: 0
Flags: W
HStem: 0 21G<-20 230> 440 180<340.438 454.346>
LayerCount: 2
Fore
SplineSet
-20 0 m 1
 4 150 l 1
 64 150 l 1
 99 370 l 2
 102 391 99 399 90 399 c 1
 77 396 64 393 52 390 c 1
 42 520 l 1
 42 520 216 620 418 620 c 0
 613 620 732 551 732 413 c 0
 732 399 731 385 729 370 c 2
 632 -240 l 1
 362 -240 l 1
 459 370 l 2
 460 377 460 383 460 389 c 0
 460 424 440 440 390 440 c 0
 377 440 358 439 336 437 c 1
 349 423 358 403 358 378 c 0
 358 372 358 366 357 360 c 2
 314 90 l 2
 306 42 270 0 190 0 c 2
 -20 0 l 1
EndSplineSet
Colour: ffff00
EndChar

StartChar: uni0E27
Encoding: 3623 3623 30
Width: 650
VWidth: 0
Flags: W
HStem: -20 200<63.4709 267.995> 420 200<139.992 404>
LayerCount: 2
Fore
SplineSet
-32 50 m 1
 73 210 l 1
 93 196 120 180 189 180 c 0
 258 180 316 227 328 300 c 0
 329 308 329 316 329 323 c 0
 329 383 289 420 227 420 c 0
 158 420 126 404 102 390 c 1
 47 550 l 1
 47 550 139 620 308 620 c 0
 500 620 611 504 611 352 c 0
 611 335 611 318 608 300 c 0
 580 123 421 -20 207 -20 c 0
 38 -20 -32 50 -32 50 c 1
EndSplineSet
Colour: ffff00
EndChar

StartChar: uni0E28
Encoding: 3624 3624 31
Width: 800
VWidth: 0
Flags: W
HStem: 0 21G<-20 253.226 410 683.189> 165 175<319.153 385.556> 430 190<330.843 458.628>
LayerCount: 2
Fore
SplineSet
-20 0 m 1
 39 370 l 2
 65 536 214 620 428 620 c 0
 512 620 569 597 602 578 c 1
 625 602 641 636 648 680 c 1
 848 680 l 1
 835 600 784 532 709 488 c 1
 727 463 741 432 741 395 c 0
 741 387 740 378 739 370 c 2
 680 0 l 1
 410 0 l 1
 467 360 l 2
 468 365 468 369 468 373 c 0
 468 412 438 430 398 430 c 0
 354 430 315 408 307 360 c 2
 296 290 l 1
 318 317 345 340 374 340 c 0
 396 340 403 335 412 330 c 1
 385 160 l 1
 377 162 367 165 351 165 c 0
 317 165 287 145 270 124 c 1
 250 0 l 1
 -20 0 l 1
EndSplineSet
Substitution2: "TH Tail Swap" uni0E28.swap
Substitution2: "'ss02' TH Tail swap" uni0E28.swap
Colour: ffff00
EndChar

StartChar: uni0E29
Encoding: 3625 3625 32
Width: 830
VWidth: -360
Flags: W
HStem: -20 190<303.033 429.157> 290 140<383 461 743 801> 580 20G<76.8108 350 506.824 770>
LayerCount: 2
Fore
SplineSet
18 187 m 0
 18 201 19 215 21 230 c 2
 80 600 l 1
 350 600 l 1
 293 240 l 2
 292 235 292 231 292 227 c 0
 292 188 322 170 362 170 c 0
 406 170 445 192 453 240 c 2
 461 290 l 1
 361 290 l 1
 383 430 l 1
 483 430 l 1
 510 600 l 1
 770 600 l 1
 743 430 l 1
 823 430 l 1
 801 290 l 1
 731 290 l 1
 721 230 l 2
 695 64 546 -20 332 -20 c 0
 137 -20 18 49 18 187 c 0
EndSplineSet
Colour: ffff00
EndChar

StartChar: uni0E2B
Encoding: 3627 3627 33
Width: 740
VWidth: -360
Flags: W
HStem: 0 21G<-10 263.143 380 670> 580 20G<81.8333 355 464.176 735>
VStem: 391 273<2.96875 274.824>
LayerCount: 2
Fore
SplineSet
-10 0 m 1
 85 600 l 1
 355 600 l 1
 328 430 l 1
 383 430 l 1
 475 600 l 1
 735 600 l 1
 733 590 l 1
 612 410 l 1
 657 382 660 327 664 280 c 1
 670 0 l 1
 380 0 l 1
 390 190 l 1
 391 200 391 208 391 216 c 0
 391 258 379 280 334 280 c 2
 304 280 l 1
 260 0 l 1
 -10 0 l 1
EndSplineSet
Colour: ffff00
EndChar

StartChar: uni0E1E
Encoding: 3614 3614 34
Width: 1050
VWidth: 0
Flags: W
HStem: 0 21G<117.5 408.4 528 818.833> 580 20G<45 330.182 477 636.697 783.515 1075>
AnchorPoint: "th-vow-below" 780 0 basechar 0
AnchorPoint: "th-vow-above" 945 660 basechar 0
LayerCount: 2
Fore
SplineSet
45 600 m 1
 330 600 l 1
 333 270 l 1
 331 230 l 1
 341 230 l 1
 353 270 l 1
 485 600 l 1
 560 600 l 1
 635 600 l 1
 663 270 l 1
 661 230 l 1
 671 230 l 1
 683 270 l 1
 790 600 l 1
 1075 600 l 1
 810 0 l 1
 530 0 l 1
 505 250 l 1
 400 0 l 1
 120 0 l 1
 45 600 l 1
EndSplineSet
Colour: ffff00
EndChar

StartChar: uni0E1F
Encoding: 3615 3615 35
Width: 1040
VWidth: -360
Flags: W
HStem: 0 21G<117.5 408.4 528 826.976> 580 20G<45 330.182 477 636.697> 820 20G<837.386 1113>
AnchorPoint: "th-vow-above" 725 660 basechar 0
LayerCount: 2
Fore
SplineSet
45 600 m 1
 330 600 l 1
 333 270 l 1
 331 230 l 1
 341 230 l 1
 353 270 l 1
 485 600 l 1
 560 600 l 1
 635 600 l 1
 663 270 l 1
 661 230 l 1
 671 230 l 1
 683 270 l 1
 843 840 l 1
 1113 840 l 1
 820 0 l 1
 530 0 l 1
 505 250 l 1
 400 0 l 1
 120 0 l 1
 45 600 l 1
EndSplineSet
Colour: ffff00
EndChar

StartChar: uni0E1D
Encoding: 3613 3613 36
Width: 930
VWidth: 0
Flags: W
HStem: 0 21G<119 326.533 499.867 813.167> 420 190<327.312 411.788> 820 20G<669.842 943>
VStem: 13 272<208.283 369.945>
AnchorPoint: "th-vow-above" 625 660 basechar 0
LayerCount: 2
Fore
SplineSet
13 239 m 0
 13 258 15 279 18 300 c 0
 45 471 169 610 347 610 c 0
 401 610 446 599 472 580 c 1
 406 415 l 1
 397 418 388 420 377 420 c 0
 334 420 301 380 288 300 c 0
 286 289 285 279 285 269 c 0
 285 240 292 217 306 203 c 1
 420 350 l 1
 465 350 l 1
 510 350 l 1
 574 213 l 1
 673 840 l 1
 943 840 l 1
 810 0 l 1
 510 0 l 1
 434 150 l 1
 310 0 l 1
 150 0 l 1
 88 19 13 104 13 239 c 0
EndSplineSet
Colour: ffff00
EndChar

StartChar: uni0E1C
Encoding: 3612 3612 37
Width: 920
VWidth: 0
Flags: W
HStem: 0 21G<119 326.533 499.867 813.167> 420 190<327.312 411.788> 580 20G<631.848 905>
VStem: 13 272<208.283 369.945>
LayerCount: 2
Fore
SplineSet
13 239 m 0xb0
 13 258 15 279 18 300 c 0
 45 471 169 610 347 610 c 0xd0
 401 610 446 599 472 580 c 1xb0
 406 415 l 1
 397 418 388 420 377 420 c 0xd0
 334 420 301 380 288 300 c 0
 286 289 285 279 285 269 c 0
 285 240 292 217 306 203 c 1
 420 350 l 1
 465 350 l 1
 510 350 l 1
 574 213 l 1
 635 600 l 1
 905 600 l 1
 810 0 l 1
 510 0 l 1
 434 150 l 1
 310 0 l 1
 150 0 l 1
 88 19 13 104 13 239 c 0xb0
EndSplineSet
Colour: ffff00
EndChar

StartChar: uni0E25
Encoding: 3621 3621 38
Width: 740
VWidth: 0
Flags: W
HStem: -10 140<123 326.5> 0 21G<370 643.189> 230 140<176 373.717> 440 180<196.488 506.816>
VStem: 428 274<311.977 487.601>
LayerCount: 2
Fore
SplineSet
-4 146 m 0xb8
 -4 157 -3 168 -1 180 c 0
 16 288 103 370 249 370 c 0
 346 370 396 335 419 311 c 1
 427 360 l 2
 428 365 428 370 428 375 c 0
 428 425 381 440 310 440 c 0
 232 440 150 416 103 400 c 1
 67 550 l 1
 67 550 206 620 408 620 c 0
 600 620 702 553 702 419 c 0
 702 404 702 387 699 370 c 2
 640 0 l 1
 370 0 l 1x78
 403 208 l 1
 387 222 368 230 336 230 c 0
 304 230 275 215 269 180 c 0
 268 177 268 174 268 171 c 0
 268 143 292 130 321 130 c 0
 332 130 342 132 351 135 c 1
 334 25 l 1
 299 6 251 -10 188 -10 c 0
 58 -10 -4 55 -4 146 c 0xb8
EndSplineSet
Colour: ffff00
EndChar

StartChar: uni0E2A
Encoding: 3626 3626 39
Width: 760
VWidth: 0
Flags: W
HStem: -10 140<123 326.5> 0 21G<370 643.189> 230 140<176 373.717> 440 180<196.488 412.519>
VStem: 428 272<311.977 421.916>
LayerCount: 2
Fore
SplineSet
-4 146 m 0xb8
 -4 157 -3 168 -1 180 c 0
 16 288 103 370 249 370 c 0
 346 370 396 335 419 311 c 1
 427 360 l 2
 428 365 428 370 428 375 c 0
 428 425 381 440 310 440 c 0
 232 440 150 416 103 400 c 1
 67 550 l 1
 67 550 206 620 408 620 c 0
 481 620 533 600 565 582 c 1
 586 606 601 638 608 680 c 1
 808 680 l 1
 795 599 743 531 668 487 c 1
 685 466 700 435 700 395 c 0
 700 387 700 379 699 370 c 2
 640 0 l 1
 370 0 l 1x78
 403 208 l 1
 387 222 368 230 336 230 c 0
 304 230 275 215 269 180 c 0
 268 177 268 174 268 171 c 0
 268 143 292 130 321 130 c 0
 332 130 342 132 351 135 c 1
 334 25 l 1
 299 6 251 -10 188 -10 c 0
 58 -10 -4 55 -4 146 c 0xb8
EndSplineSet
Substitution2: "TH Tail Swap" uni0E2A.swap
Substitution2: "'ss02' TH Tail swap" uni0E2A.swap
Colour: ffff00
EndChar

StartChar: uni0E2C
Encoding: 3628 3628 40
Width: 1040
VWidth: -360
Flags: W
HStem: 0 21G<117.5 408.4 528 818.867> 580 20G<45 330.182 477 636.697>
VStem: 736 243<377.979 478.506>
AnchorPoint: "th-vow-below" 780 0 basechar 0
LayerCount: 2
Fore
SplineSet
45 600 m 1
 330 600 l 1
 333 270 l 1
 331 230 l 1
 341 230 l 1
 353 270 l 1
 485 600 l 1
 560 600 l 1
 635 600 l 1
 663 270 l 1
 661 230 l 1
 671 230 l 1
 683 270 l 1
 724 400 l 1
 724 400 732 429 735 445 c 0
 736 449 736 453 736 457 c 0
 736 470 733 485 718 490 c 1
 765 600 l 1
 829 600 896 608 912 710 c 1
 1112 710 l 1
 1091 580 979 521 912 500 c 1
 952 489 979 461 979 418 c 0
 979 412 979 406 978 400 c 0
 973 367 943 300 943 300 c 1
 810 0 l 1
 530 0 l 1
 505 250 l 1
 400 0 l 1
 120 0 l 1
 45 600 l 1
EndSplineSet
Substitution2: "TH Tail Swap" uni0E2C.swap
Substitution2: "'ss02' TH Tail swap" uni0E2C.swap
Colour: ffff00
EndChar

StartChar: uni0E22
Encoding: 3618 3618 41
Width: 775
VWidth: -360
Flags: W
HStem: -20 170<267.94 412.657> 260 120<299.596 371> 470 140<214 404.639> 580 20G<491.842 765>
LayerCount: 2
Fore
SplineSet
-2 168 m 0xd0
 -2 175 -1 183 0 190 c 0
 10 250 43 289 90 314 c 1
 56 336 36 368 36 408 c 0
 36 415 37 422 38 430 c 0
 53 525 141 610 287 610 c 0
 352 610 394 593 421 575 c 1
 404 465 l 1
 395 467 375 470 364 470 c 0xe0
 332 470 303 460 297 425 c 0
 297 422 297 419 297 416 c 0
 297 388 321 380 350 380 c 2
 390 380 l 1
 387 360 l 1
 374 280 l 1
 371 260 l 1
 315 260 268 245 262 205 c 0
 262 202 261 200 261 197 c 0
 261 163 299 150 344 150 c 0
 388 150 427 172 435 220 c 2
 495 600 l 1
 765 600 l 1
 706 230 l 2
 680 64 531 -20 317 -20 c 0
 100 -20 -2 72 -2 168 c 0xd0
EndSplineSet
Colour: ffff00
EndChar

StartChar: uni0E10
Encoding: 3600 3600 42
Width: 740
VWidth: 0
Flags: W
HStem: -250 140<9.90694 198.693> -240 180<400 552> -10 350<130.035 288.018> 440 180<170.311 406> 510 170<628.209 741>
VStem: 402 272<239.922 408.393>
AnchorPoint: "th-vow-above" 645 660 basechar 0
LayerCount: 2
Fore
SplineSet
-60 -190 m 1xa4
 29 -70 l 1
 29 -70 49 -110 103 -110 c 0xa4
 184 -110 230 -60 230 -60 c 1
 310 -60 l 1
 387 -144 l 1
 400 -60 l 1
 580 -60 l 1
 552 -240 l 1
 402 -240 l 1
 372 -240 l 1
 332 -240 l 1x64
 271 -181 l 1
 212 -226 144 -250 80 -250 c 0
 -18 -250 -60 -190 -60 -190 c 1xa4
20 190 m 1
 44 340 l 1
 234 340 l 2
 276 340 290 320 296 290 c 2
 320 168 l 1
 356 186 387 233 399 310 c 0
 401 320 402 330 402 339 c 0
 402 405 359 440 280 440 c 0
 208 440 130 416 83 400 c 1
 47 550 l 1
 47 550 176 620 378 620 c 0x34
 434 620 473 608 500 595 c 1
 570 635 671 680 768 680 c 1
 741 510 l 1x2c
 689 510 649 505 619 498 c 1
 645 467 674 415 674 352 c 0
 674 341 673 331 671 320 c 0
 644 149 493 -10 308 -10 c 0
 178 -10 130 0 130 0 c 1
 80 190 l 1
 20 190 l 1
EndSplineSet
Substitution2: "TH Descless" uni0E10.descless
Substitution2: "'locl' Localized Thai-Sanskrit" uni0E10.descless
Colour: ffff00
EndChar

StartChar: uni0E23
Encoding: 3619 3619 43
Width: 630
VWidth: 0
Flags: W
HStem: -20 155<126.576 281.402> 465 155<321.821 484.771>
VStem: 33 286<340.5 460.363> 286 276<142.039 256.5>
AnchorPoint: "th-vow-above" 615 660 basechar 0
LayerCount: 2
Fore
SplineSet
-12 50 m 1xd0
 80 190 l 1
 108 162 181 135 221 135 c 0
 257 135 286 143 286 168 c 0xd0
 286 185 265 195 242 205 c 0
 221 214 183 230 158 240 c 0
 106 261 33 298 33 383 c 0
 33 391 34 400 35 409 c 0
 58 555 212 620 358 620 c 0
 474 620 573 584 627 550 c 1
 535 410 l 1
 503 439 420 465 379 465 c 0
 346 465 319 457 319 431 c 0xe0
 319 415 337 405 363 395 c 0
 386 386 421 372 447 360 c 0
 496 337 562 297 562 216 c 0
 562 208 561 199 560 190 c 0
 540 63 414 -20 247 -20 c 0
 110 -20 37 16 -12 50 c 1xd0
EndSplineSet
Colour: ffff00
EndChar

StartChar: uni0E18
Encoding: 3608 3608 44
Width: 720
VWidth: -360
Flags: W
HStem: -20 150<263.931 390.882> 470 150<334.269 545.864>
VStem: 44 287<359 457.071>
LayerCount: 2
Fore
SplineSet
8 50 m 1
 40 250 l 1
 221 250 l 1
 194 257 169 265 153 270 c 0
 84 293 44 327 44 391 c 0
 44 400 45 410 47 420 c 0
 66 540 202 620 378 620 c 0
 554 620 660 570 687 550 c 1
 607 420 l 1
 542 453 443 470 384 470 c 0
 358 470 331 467 331 446 c 0
 331 428 351 426 367 420 c 0
 392 411 509 379 539 370 c 0
 609 347 662 305 662 219 c 0
 662 207 661 194 659 180 c 0
 639 55 496 -20 327 -20 c 0
 158 -20 35 30 8 50 c 1
261 133 m 1
 282 131 301 130 316 130 c 0
 362 130 392 141 396 165 c 0
 396 167 397 170 397 172 c 0
 397 201 365 213 335 220 c 0
 324 223 303 228 277 235 c 1
 261 133 l 1
EndSplineSet
Colour: ffff00
EndChar

StartChar: uni0E0E
Encoding: 3598 3598 45
Width: 775
VWidth: 0
Flags: W
HStem: -190 140<26.4532 320.121> 0 21G<-20 230> 440 180<340.438 454.346>
VStem: 460 272<228.156 432.522>
LayerCount: 2
Fore
SplineSet
-37 -110 m 1
 -37 -110 22 -50 162 -50 c 0
 264 -50 338 -79 384 -104 c 1
 459 370 l 2
 460 377 460 383 460 389 c 0
 460 424 440 440 390 440 c 0
 377 440 358 439 336 437 c 1
 349 423 358 403 358 378 c 0
 358 372 358 366 357 360 c 2
 314 90 l 2
 306 42 270 0 190 0 c 2
 -20 0 l 1
 4 150 l 1
 64 150 l 1
 99 370 l 2
 102 391 99 399 90 399 c 1
 77 396 64 393 52 390 c 1
 42 520 l 1
 42 520 216 620 418 620 c 0
 613 620 732 551 732 413 c 0
 732 399 731 385 729 370 c 2
 632 -240 l 1
 392 -240 l 1
 392 -240 291 -190 150 -190 c 0
 52 -190 -18 -240 -18 -240 c 1
 -37 -110 l 1
EndSplineSet
Colour: ffff00
EndChar

StartChar: uni0E0F
Encoding: 3599 3599 46
Width: 775
VWidth: 0
Flags: W
HStem: -250 140<19.9069 208.693> 0 21G<-20 230> 440 180<340.438 454.346>
LayerCount: 2
Fore
SplineSet
-50 -190 m 1
 39 -70 l 1
 39 -70 59 -110 113 -110 c 0
 194 -110 240 -60 240 -60 c 1
 320 -60 l 1
 380 -125 l 1
 459 370 l 2
 460 377 460 383 460 389 c 0
 460 424 440 440 390 440 c 0
 377 440 358 439 336 437 c 1
 349 423 358 403 358 378 c 0
 358 372 358 366 357 360 c 2
 314 90 l 2
 306 42 270 0 190 0 c 2
 -20 0 l 1
 4 150 l 1
 64 150 l 1
 99 370 l 2
 102 391 99 399 90 399 c 1
 77 396 64 393 52 390 c 1
 42 520 l 1
 42 520 216 620 418 620 c 0
 613 620 732 551 732 413 c 0
 732 399 731 385 729 370 c 2
 632 -240 l 1
 412 -240 l 1
 362 -240 l 1
 342 -240 l 1
 281 -181 l 1
 222 -226 154 -250 90 -250 c 0
 -8 -250 -50 -190 -50 -190 c 1
EndSplineSet
Colour: ffff00
EndChar

StartChar: uni0E31
Encoding: 3633 3633 47
Width: 0
VWidth: 0
Flags: W
HStem: 690 150<-232 19>
AnchorPoint: "th-mkmk" -60 0 basemark 0
AnchorPoint: "th-vow-above" -25 660 mark 0
LayerCount: 2
Fore
SplineSet
-448 765 m 0
 -448 770 -447 775 -446 780 c 0
 -437 836 -392 900 -392 900 c 1
 -202 900 l 1
 -232 840 l 1
 43 840 l 1
 19 690 l 1
 -351 690 l 2
 -407 690 -448 716 -448 765 c 0
EndSplineSet
Substitution2: "TH Vowel to Left" uni0E31.left
Colour: ffff00
EndChar

StartChar: uni0E34
Encoding: 3636 3636 48
Width: 0
VWidth: 0
Flags: W
HStem: 690 150<-517 -41>
AnchorPoint: "th-mkmk" -60 0 basemark 0
AnchorPoint: "th-vow-above" -25 660 mark 0
LayerCount: 2
Fore
SplineSet
-541 690 m 1
 -517 840 l 1
 -17 840 l 1
 -41 690 l 1
 -541 690 l 1
EndSplineSet
Substitution2: "TH Vowel to Left" uni0E34.left
Colour: ffff00
EndChar

StartChar: uni0E35
Encoding: 3637 3637 49
Width: 0
VWidth: 0
Flags: W
HStem: 690 230<-204 -41> 690 150<-527 -233.253>
AnchorPoint: "th-mkmk" -60 0 basemark 0
AnchorPoint: "th-vow-above" -25 660 mark 0
LayerCount: 2
Fore
SplineSet
-551 690 m 1x40
 -527 840 l 1
 -297 840 l 2x40
 -241 840 -223 800 -223 800 c 1
 -204 920 l 1
 -4 920 l 1
 -41 690 l 1x80
 -551 690 l 1x40
EndSplineSet
Substitution2: "TH Vowel to Left" uni0E35.left
Colour: ffff00
EndChar

StartChar: uni0E36
Encoding: 3638 3638 50
Width: 0
VWidth: 0
Flags: W
HStem: 690 150<-537 -293.092> 690 80<-182.613 -108.29> 850 80<-176.7 -101.768>
VStem: -283 100<798.18 844.876> -101 101<775.124 847.306>
AnchorPoint: "th-mkmk" -60 0 basemark 0
AnchorPoint: "th-vow-above" -25 660 mark 0
LayerCount: 2
Fore
SplineSet
-561 690 m 1x78
 -537 840 l 1
 -337 840 l 2xb8
 -311 840 -294 819 -283 798 c 1
 -283 802 -283 806 -282 810 c 0
 -271 882 -209 930 -123 930 c 0
 -46 930 0 891 0 831 c 0
 0 824 -1 817 -2 810 c 0
 -13 738 -75 690 -161 690 c 2
 -561 690 l 1x78
-183 802 m 0
 -183 781 -168 770 -148 770 c 0x78
 -125 770 -106 784 -102 810 c 0
 -102 813 -101 815 -101 818 c 0
 -101 839 -115 850 -135 850 c 0
 -158 850 -178 836 -182 810 c 0
 -182 807 -183 805 -183 802 c 0
EndSplineSet
Substitution2: "TH Vowel to Left" uni0E36.left
Colour: ffff00
EndChar

StartChar: uni0E37
Encoding: 3639 3639 51
Width: 0
VWidth: 0
Flags: W
HStem: 690 230<-344 -215 -144 -31> 690 150<-537 -371.113> 690 100<-215 -165>
AnchorPoint: "th-mkmk" -60 0 basemark 0
AnchorPoint: "th-vow-above" -25 660 mark 0
LayerCount: 2
Fore
SplineSet
-561 690 m 1x20
 -537 840 l 1
 -427 840 l 2x40
 -376 840 -363 800 -363 800 c 1
 -344 920 l 1
 -194 920 l 1x80
 -215 790 l 1
 -165 790 l 1x20
 -144 920 l 1
 6 920 l 1
 -31 690 l 1x80
 -561 690 l 1x20
EndSplineSet
Substitution2: "TH Vowel to Left" uni0E37.left
Colour: ffff00
EndChar

StartChar: uni0E4D
Encoding: 3661 3661 52
Width: 0
VWidth: 0
Flags: W
HStem: 670 90<-185.171 -114.041> 850 90<-181.428 -109.829>
VStem: -324 136<761.802 843.529> -107 136<766.471 848.198>
LayerCount: 2
Fore
SplineSet
-324 783 m 0
 -324 790 -324 797 -323 805 c 0
 -310 884 -240 940 -126 940 c 0
 -23 940 29 894 29 827 c 0
 29 820 28 813 27 805 c 0
 14 726 -55 670 -169 670 c 0
 -272 670 -324 716 -324 783 c 0
-188 795 m 0
 -188 772 -174 760 -155 760 c 0
 -133 760 -113 775 -108 805 c 0
 -107 809 -107 812 -107 815 c 0
 -107 838 -121 850 -140 850 c 0
 -162 850 -183 835 -188 805 c 0
 -189 801 -188 798 -188 795 c 0
EndSplineSet
Substitution2: "TH Nikhahit High-Left" uni0E4D.high.left
Substitution2: "TH Vowel to Left" uni0E4D.low.left
Substitution2: "TH Tone High to High-Left" uni0E4D.high.left
Substitution2: "TH Nikhahit High" uni0E4D.high
Colour: ffff00
EndChar

StartChar: uni0E32
Encoding: 3634 3634 53
Width: 540
VWidth: 0
Flags: W
HStem: 0 21G<150 433.158> 410 200<120.286 358.5>
VStem: 208 287<248.438 495.5>
LayerCount: 2
Fore
SplineSet
26 540 m 1
 26 540 121 610 287 610 c 0
 430 610 495 552 495 439 c 0
 495 421 493 401 490 380 c 2
 430 0 l 1
 150 0 l 1
 207 360 l 2
 208 366 208 371 208 376 c 0
 208 401 195 410 165 410 c 0
 129 410 74 394 50 380 c 1
 26 540 l 1
EndSplineSet
Colour: ffff00
EndChar

StartChar: uni0E38
Encoding: 3640 3640 54
Width: 0
VWidth: 0
Flags: W
HStem: -280 220<-369 -184>
VStem: -419 260
AnchorPoint: "th-vow-below" -130 0 mark 0
LayerCount: 2
Fore
SplineSet
-419 -180 m 1
 -400 -60 l 1
 -210 -60 l 2
 -178 -60 -159 -79 -159 -108 c 0
 -159 -112 -158 -116 -159 -120 c 2
 -184 -280 l 1
 -384 -280 l 1
 -369 -180 l 1
 -419 -180 l 1
EndSplineSet
Substitution2: "TH Vow Lower" uni0E38.low
Colour: ffff00
EndChar

StartChar: uni0E3A
Encoding: 3642 3642 55
Width: 0
VWidth: 0
Flags: W
HStem: -220 160<-350 -175>
VStem: -375 225
AnchorPoint: "th-vow-below" -130 0 mark 0
LayerCount: 2
Fore
SplineSet
-375 -220 m 1
 -350 -60 l 1
 -150 -60 l 1
 -175 -220 l 1
 -375 -220 l 1
EndSplineSet
Substitution2: "TH Vow Lower" uni0E3A.low
Colour: ffff00
EndChar

StartChar: uni0E39
Encoding: 3641 3641 56
Width: 0
VWidth: 0
Flags: W
HStem: -280 220<-588.059 -410.36 -320 -183.141> -280 90<-410 -340>
AnchorPoint: "th-vow-below" -230 0 mark 0
LayerCount: 2
Fore
SplineSet
-639 -180 m 1x80
 -620 -60 l 1
 -450 -60 l 2x80
 -418 -60 -398 -79 -398 -108 c 0
 -398 -112 -398 -116 -399 -120 c 2
 -410 -190 l 1
 -340 -190 l 1x40
 -320 -60 l 1
 -140 -60 l 1
 -165 -220 l 2
 -171 -255 -204 -280 -264 -280 c 2
 -514 -280 l 2
 -569 -280 -596 -259 -596 -229 c 0
 -596 -226 -595 -223 -595 -220 c 2
 -589 -180 l 1
 -639 -180 l 1x80
EndSplineSet
Substitution2: "TH Vow Lower" uni0E39.low
Colour: ffff00
EndChar

StartChar: uni0E49
Encoding: 3657 3657 57
Width: 0
VWidth: 0
Flags: W
HStem: 960 110<-86 62> 1080 90<-255 -209>
VStem: -292 371
AnchorPoint: "th-mkmk" -60 0 mark 0
LayerCount: 2
Fore
SplineSet
-292 993 m 0
 -292 995 -292 998 -292 1000 c 0
 -289 1017 -280 1029 -265 1040 c 2
 -209 1080 l 1
 -269 1080 l 1
 -255 1170 l 1
 -55 1170 l 2
 -32 1170 -20 1156 -20 1140 c 0
 -20 1138 -20 1137 -20 1135 c 0
 -22 1121 -29 1113 -40 1105 c 2
 -86 1070 l 1
 79 1070 l 1
 62 960 l 1
 -258 960 l 2
 -280 960 -292 975 -292 993 c 0
EndSplineSet
Substitution2: "TH Tone High to High-Left" uni0E49.high.left
Substitution2: "TH Tone High to Low-Left" uni0E49.low.left
Substitution2: "TH Tone High to Low" uni0E49.low
Colour: ffff00
EndChar

StartChar: uni0E48
Encoding: 3656 3656 58
Width: 0
VWidth: 0
Flags: W
HStem: 960 210<-155 -8>
VStem: -188 213
AnchorPoint: "th-mkmk" -60 0 mark 0
LayerCount: 2
Fore
SplineSet
-188 960 m 1
 -155 1170 l 1
 25 1170 l 1
 -8 960 l 1
 -188 960 l 1
EndSplineSet
Substitution2: "TH Tone High to High-Left" uni0E48.high.left
Substitution2: "TH Tone High to Low-Left" uni0E48.low.left
Substitution2: "TH Tone High to Low" uni0E48.low
Colour: ffff00
EndChar

StartChar: uni0E4B
Encoding: 3659 3659 59
Width: 0
VWidth: 0
Flags: W
HStem: 960 210<-145 -18> 1020 90<-234 -168 6 72>
VStem: -248 334
AnchorPoint: "th-mkmk" -60 0 mark 0
LayerCount: 2
Fore
SplineSet
-248 1020 m 1x60
 -234 1110 l 1
 -154 1110 l 1x60
 -145 1170 l 1
 15 1170 l 1xa0
 6 1110 l 1
 86 1110 l 1
 72 1020 l 1
 -8 1020 l 1x60
 -18 960 l 1
 -178 960 l 1xa0
 -168 1020 l 1
 -248 1020 l 1x60
EndSplineSet
Substitution2: "TH Tone High to High-Left" uni0E4B.high.left
Substitution2: "TH Tone High to Low-Left" uni0E4B.low.left
Substitution2: "TH Tone High to Low" uni0E4B.low
Colour: ffff00
EndChar

StartChar: uni0E40
Encoding: 3648 3648 60
Width: 390
VWidth: 0
Flags: W
HStem: -10 610<95 269.953>
VStem: 14 351
LayerCount: 2
Fore
SplineSet
14 74 m 0
 14 82 15 91 16 100 c 2
 95 600 l 1
 365 600 l 1
 270 0 l 1
 270 0 206 -10 138 -10 c 0
 42 -10 14 24 14 74 c 0
EndSplineSet
Colour: ffff00
EndChar

StartChar: uni0E41
Encoding: 3649 3649 61
Width: 750
VWidth: 0
Flags: W
HStem: 580 20G<91.84 365 451.84 725>
LayerCount: 2
Fore
SplineSet
14 74 m 0
 14 82 15 91 16 100 c 2
 95 600 l 1
 365 600 l 1
 270 0 l 1
 270 0 206 -10 138 -10 c 0
 42 -10 14 24 14 74 c 0
374 74 m 0
 374 82 375 91 376 100 c 2
 455 600 l 1
 725 600 l 1
 630 0 l 1
 630 0 566 -10 498 -10 c 0
 402 -10 374 24 374 74 c 0
EndSplineSet
Colour: ffff00
EndChar

StartChar: uni0E2F
Encoding: 3631 3631 62
Width: 700
VWidth: 0
Flags: W
HStem: 0 21G<300 583.167> 290 170<141.5 306.991> 580 20G<51.9091 265 411.923 675>
VStem: 35 219<409.5 598.672>
LayerCount: 2
Fore
SplineSet
35 454 m 0
 35 466 36 478 38 490 c 1
 55 600 l 1
 265 600 l 1
 256 540 l 2
 255 531 254 523 254 516 c 0
 254 474 276 460 303 460 c 0
 342 460 380 490 405 535 c 1
 415 600 l 1
 675 600 l 1
 580 0 l 1
 300 0 l 1
 355 349 l 1
 319 317 266 290 196 290 c 0
 87 290 35 365 35 454 c 0
EndSplineSet
Colour: ffff00
EndChar

StartChar: uni0E30
Encoding: 3632 3632 63
Width: 520
VWidth: 0
Flags: W
HStem: 40 170<243 426> 350 170<292 475>
LayerCount: 2
Fore
SplineSet
1 125 m 0
 1 130 1 135 2 140 c 0
 11 196 56 260 56 260 c 1
 271 260 l 1
 243 210 l 1
 453 210 l 1
 426 40 l 1
 96 40 l 2
 41 40 1 75 1 125 c 0
50 435 m 0
 50 440 50 445 51 450 c 0
 60 506 105 570 105 570 c 1
 320 570 l 1
 292 520 l 1
 502 520 l 1
 475 350 l 1
 145 350 l 2
 90 350 50 385 50 435 c 0
EndSplineSet
Colour: ffff00
EndChar

StartChar: uni0E4A
Encoding: 3658 3658 64
Width: 0
VWidth: 0
Flags: W
HStem: 960 210<-105 26> 960 90<26 92> 1070 110<-238.5 -145.805>
VStem: -350 156<960 1065.79>
AnchorPoint: "th-mkmk" -60 0 mark 0
LayerCount: 2
Fore
SplineSet
-350 988 m 0x70
 -350 1000 -349 1015 -347 1030 c 0
 -333 1119 -274 1180 -203 1180 c 0x70
 -160 1180 -134 1146 -115 1108 c 1
 -105 1170 l 1
 45 1170 l 1x90
 26 1050 l 1
 106 1050 l 1
 92 960 l 1
 -138 960 l 1
 -127 1026 l 1
 -137 1051 -148 1070 -161 1070 c 0
 -181 1070 -190 1036 -193 1020 c 0
 -194 1014 -194 1009 -194 1003 c 0
 -194 984 -191 968 -188 960 c 1
 -348 960 l 1
 -350 968 -350 977 -350 988 c 0x70
EndSplineSet
Substitution2: "TH Tone High to High-Left" uni0E4A.high.left
Substitution2: "TH Tone High to Low-Left" uni0E4A.low.left
Substitution2: "TH Tone High to Low" uni0E4A.low
Colour: ffff00
EndChar

StartChar: uni0E47
Encoding: 3655 3655 65
Width: 0
VWidth: 0
Flags: W
HStem: 670 115<-391.5 -248.937> 680 140<-192 -80> 865 115<-316.738 -23>
VStem: -491 167<788.112 858.496>
AnchorPoint: "th-vow-above" -25 660 mark 0
LayerCount: 2
Fore
SplineSet
-491 798 m 0xb0
 -491 807 -490 816 -489 825 c 0
 -476 907 -408 980 -290 980 c 2
 -5 980 l 1
 -23 865 l 1
 -268 865 l 2
 -295 865 -320 852 -324 825 c 0
 -324 823 -324 820 -324 818 c 0
 -324 796 -306 785 -281 785 c 0xb0
 -246 785 -232 804 -225 820 c 1
 -80 820 l 1
 -41 690 l 1
 -42 680 l 1
 -192 680 l 1x70
 -207 741 l 1
 -229 705 -269 670 -339 670 c 0
 -444 670 -491 727 -491 798 c 0xb0
EndSplineSet
Substitution2: "TH Vowel to Left" uni0E47.left
Colour: ffff00
EndChar

StartChar: uni0E4C
Encoding: 3660 3660 66
Width: 0
VWidth: 0
Flags: W
HStem: 990 120<-98 37>
VStem: -258 314
AnchorPoint: "th-mkmk" -60 0 mark 0
LayerCount: 2
Fore
SplineSet
-258 1013 m 0
 -258 1019 -258 1024 -257 1030 c 0
 -248 1088 -205 1110 -144 1110 c 2
 56 1110 l 1
 37 990 l 1
 -98 990 l 1
 -78 930 l 1
 -228 930 l 1
 -228 930 -258 965 -258 1013 c 0
EndSplineSet
Substitution2: "TH Tone High to High-Left" uni0E4C.high.left
Substitution2: "TH Tone High to Low-Left" uni0E4C.low.left
Substitution2: "TH Tone High to Low" uni0E4C.low
Colour: ffff00
EndChar

StartChar: uni0E43
Encoding: 3651 3651 67
Width: 440
VWidth: 0
Flags: W
HStem: 780 150<206.194 366>
VStem: 298 204<704.127 825.5>
LayerCount: 2
Fore
SplineSet
42 770 m 1
 80 857 170 930 307 930 c 0
 425 930 502 868 502 783 c 0
 502 776 501 768 500 760 c 0
 482 646 400 628 381 510 c 2
 300 0 l 1
 300 0 236 -10 168 -10 c 0
 72 -10 44 24 44 74 c 0
 44 82 45 91 46 100 c 2
 111 510 l 2
 128 615 289 690 297 740 c 0
 298 743 298 747 298 750 c 0
 298 769 287 780 264 780 c 0
 223 780 176 735 161 700 c 1
 42 770 l 1
EndSplineSet
Colour: ffff00
EndChar

StartChar: uni0E44
Encoding: 3652 3652 68
Width: 440
VWidth: 0
Flags: W
HStem: 780 150<287.912 433>
LayerCount: 2
Fore
SplineSet
44 74 m 0
 44 82 45 91 46 100 c 2
 111 510 l 2
 130 629 312 704 319 750 c 0
 319 752 319 755 319 757 c 0
 319 771 312 780 294 780 c 0
 251 780 204 730 181 700 c 1
 171 700 l 1
 62 770 l 1
 86 920 l 1
 96 920 l 1
 201 842 l 1
 230 876 298 930 387 930 c 0
 479 930 525 878 525 807 c 0
 525 798 525 789 524 780 c 0
 508 677 400 628 381 510 c 2
 300 0 l 1
 300 0 236 -10 168 -10 c 0
 72 -10 44 24 44 74 c 0
EndSplineSet
Colour: ffff00
EndChar

StartChar: uni0E42
Encoding: 3650 3650 69
Width: 440
VWidth: 0
Flags: W
HStem: 780 150<282.378 410.19>
LayerCount: 2
Fore
SplineSet
44 74 m 0
 44 82 45 91 46 100 c 2
 111 510 l 2
 113 522 113 533 113 543 c 0
 113 626 58 660 58 734 c 0
 58 742 59 751 60 760 c 0
 75 856 168 930 297 930 c 0
 447 930 533 861 545 850 c 1
 456 730 l 1
 432 744 370 780 334 780 c 0
 300 780 279 772 279 746 c 0
 279 705 390 677 390 581 c 0
 390 574 390 567 389 560 c 2
 300 0 l 1
 300 0 236 -10 168 -10 c 0
 72 -10 44 24 44 74 c 0
EndSplineSet
Colour: ffff00
EndChar

StartChar: uni0E45
Encoding: 3653 3653 70
Width: 540
VWidth: 0
Flags: W
HStem: 410 200<120.286 358.5>
VStem: 208 287<250.781 495.5>
LayerCount: 2
Fore
SplineSet
26 540 m 1
 26 540 121 610 287 610 c 0
 430 610 495 552 495 439 c 0
 495 421 493 401 490 380 c 2
 392 -240 l 1
 112 -240 l 1
 207 360 l 2
 208 366 208 371 208 376 c 0
 208 401 195 410 165 410 c 0
 129 410 74 394 50 380 c 1
 26 540 l 1
EndSplineSet
Colour: ffff00
EndChar

StartChar: uni0E46
Encoding: 3654 3654 71
Width: 600
VWidth: 0
Flags: W
HStem: -250 170<77 178.874> 430 180<236.5 442.5> 580 20G<61.8889 99.7059>
VStem: 292 260<349.377 504>
LayerCount: 2
Fore
SplineSet
37 420 m 1xd0
 65 600 l 1
 75 600 l 1xb0
 180 515 l 1
 203 543 279 610 392 610 c 0
 493 610 552 543 552 465 c 0
 552 457 551 449 550 440 c 2
 474 -40 l 2
 454 -169 353 -250 70 -250 c 1
 77 -80 l 1
 135 -80 199 -69 208 -10 c 2
 248 240 l 2
 257 298 283 333 290 380 c 0
 291 385 292 390 292 395 c 0
 292 416 282 430 258 430 c 0
 215 430 178 375 155 345 c 1
 145 345 l 1
 37 420 l 1xd0
EndSplineSet
Colour: ffff00
EndChar

StartChar: uni0E0D.descless
Encoding: 60941 60941 72
Width: 1150
VWidth: -360
Flags: W
HStem: -20 180<705.989 791.336> 0 21G<104.5 353.2> 440 180<331.532 454.346> 580 20G<861.842 1135>
VStem: 430 273<163.791 353.047>
LayerCount: 2
Fore
SplineSet
42 520 m 1x68
 42 520 216 620 418 620 c 0x68
 613 620 732 551 732 413 c 0
 732 399 731 385 729 370 c 2
 705 220 l 2
 704 213 703 207 703 201 c 0
 703 173 716 160 745 160 c 0
 780 160 799 179 805 220 c 2
 865 600 l 1
 1135 600 l 1
 1073 210 l 2
 1053 83 949 -20 717 -20 c 0x98
 509 -20 430 63 430 171 c 0
 430 184 431 197 433 210 c 2
 459 370 l 2
 460 377 460 383 460 389 c 0
 460 424 440 440 390 440 c 0
 376 440 353 439 327 436 c 1
 339 422 348 403 348 378 c 0
 348 372 348 366 347 360 c 2
 314 150 l 1
 374 150 l 1
 350 0 l 1
 140 0 l 2
 69 0 43 32 43 73 c 0
 43 78 43 84 44 90 c 2
 89 370 l 2
 92 389 89 396 82 397 c 1
 72 395 61 392 52 390 c 1
 42 520 l 1x68
EndSplineSet
Colour: ffff00
EndChar

StartChar: uni0E10.descless
Encoding: 60944 60944 73
Width: 740
VWidth: 0
Flags: W
HStem: -10 350<130.035 288.018> 440 180<170.311 406> 510 170<628.209 741>
VStem: 402 272<239.922 408.393>
AnchorPoint: "th-vow-above" 645 660 basechar 0
AnchorPoint: "th-vow-below" 460 0 basechar 0
LayerCount: 2
Fore
SplineSet
20 190 m 1xb0
 44 340 l 1
 234 340 l 2
 276 340 290 320 296 290 c 2
 320 168 l 1
 356 186 387 233 399 310 c 0
 401 320 402 330 402 339 c 0
 402 405 359 440 280 440 c 0
 208 440 130 416 83 400 c 1
 47 550 l 1
 47 550 176 620 378 620 c 0xd0
 434 620 473 608 500 595 c 1
 570 635 671 680 768 680 c 1
 741 510 l 1
 689 510 649 505 619 498 c 1
 645 467 674 415 674 352 c 0
 674 341 673 331 671 320 c 0
 644 149 493 -10 308 -10 c 0
 178 -10 130 0 130 0 c 1
 80 190 l 1
 20 190 l 1xb0
EndSplineSet
Colour: ffff00
EndChar

StartChar: uni0E3F
Encoding: 3647 3647 74
Width: 820
VWidth: 0
Flags: W
HStem: 350 150<359 454.573>
LayerCount: 2
Fore
SplineSet
0 0 m 1
 133 840 l 1
 353 840 l 1
 372 960 l 1
 582 960 l 1
 563 837 l 1
 718 820 790 748 790 647 c 0
 790 635 789 623 787 610 c 0
 775 533 729 472 646 434 c 1
 728 400 768 342 768 263 c 0
 768 249 767 235 765 220 c 0
 740 60 577 3 430 0 c 1
 411 -120 l 1
 201 -120 l 1
 220 0 l 1
 0 0 l 1
309 180 m 1
 359 180 l 2
 411 180 464 214 471 260 c 0
 472 265 472 271 472 276 c 0
 472 316 447 350 385 350 c 2
 335 350 l 1
 309 180 l 1
359 500 m 1
 409 500 l 2
 453 500 486 542 492 580 c 0
 493 584 493 587 493 591 c 0
 493 626 468 660 425 660 c 2
 385 660 l 1
 359 500 l 1
EndSplineSet
Colour: ffff00
EndChar

StartChar: uni0E4E
Encoding: 3662 3662 75
Width: 0
VWidth: 0
Flags: W
HStem: 660 85<-298 -158.674> 830 60<-212.04 -169> 960 90<-209.056 -97.1949>
VStem: -389 132<748.205 817.627> -343 129<894.328 954.238>
AnchorPoint: "th-vow-above" -95 660 mark 0
LayerCount: 2
Fore
SplineSet
-389 757 m 0xf0
 -389 763 -388 769 -387 775 c 0
 -380 818 -356 847 -315 865 c 1
 -332 878 -343 897 -343 921 c 0
 -343 926 -343 930 -342 935 c 0
 -331 1005 -267 1050 -174 1050 c 0
 -107 1050 -69 1018 -53 990 c 1
 -108 930 l 1
 -115 942 -128 960 -159 960 c 0
 -193 960 -214 941 -214 920 c 0xe8
 -214 898 -187 890 -149 890 c 1
 -169 830 l 1
 -215 830 -251 817 -256 785 c 0
 -256 782 -257 780 -257 778 c 0
 -257 756 -238 745 -212 745 c 0
 -185 745 -168 752 -160 755 c 1
 -152 680 l 1
 -172 671 -207 660 -265 660 c 0
 -331 660 -389 693 -389 757 c 0xf0
EndSplineSet
Colour: ffff00
EndChar

StartChar: uni0E4F
Encoding: 3663 3663 76
Width: 760
VWidth: 0
Flags: W
HStem: -20 80<227.643 443.103> 150 300<304.337 430.663> 540 80<296.407 507.731>
VStem: 43 91<153.427 371.536> 601 91<227.648 446.573>
CounterMasks: 1 e0
LayerCount: 2
Fore
SplineSet
43 245 m 0
 43 263 45 281 48 300 c 0
 76 477 229 620 418 620 c 0
 587 620 692 506 692 355 c 0
 692 337 691 319 688 300 c 0
 660 123 506 -20 317 -20 c 0
 148 -20 43 94 43 245 c 0
134 257 m 0
 134 145 208 60 330 60 c 0
 467 60 577 167 598 300 c 0
 600 315 601 329 601 343 c 0
 601 455 528 540 406 540 c 0
 269 540 159 433 138 300 c 0
 136 285 134 271 134 257 c 0
216 276 m 0
 216 284 217 292 218 300 c 0
 231 383 308 450 391 450 c 0
 466 450 519 396 519 324 c 0
 519 316 519 308 518 300 c 0
 505 217 427 150 344 150 c 0
 269 150 216 204 216 276 c 0
EndSplineSet
Colour: ffff00
EndChar

StartChar: uni0E50
Encoding: 3664 3664 77
Width: 780
VWidth: 0
Flags: W
HStem: -20 210<297.261 429.922> 410 210<325.326 457.739>
LayerCount: 2
Fore
SplineSet
13 249 m 0
 13 266 15 283 18 300 c 0
 46 477 208 620 428 620 c 0
 626 620 742 504 742 351 c 0
 742 334 741 317 738 300 c 0
 710 123 547 -20 327 -20 c 0
 129 -20 13 96 13 249 c 0
275 275 m 0
 275 225 303 190 360 190 c 0
 426 190 468 237 478 300 c 0
 479 309 480 317 480 325 c 0
 480 375 452 410 395 410 c 0
 329 410 288 363 278 300 c 0
 277 291 275 283 275 275 c 0
EndSplineSet
Colour: ffff00
EndChar

StartChar: uni0E51
Encoding: 3665 3665 78
Width: 780
VWidth: 0
Flags: W
HStem: 90 180<152.5 331.364> 410 210<318.901 457.739>
VStem: 14 266<198.5 372.519> 480 262<216.549 386.144>
LayerCount: 2
Fore
SplineSet
14 257 m 0
 14 270 16 285 18 300 c 0
 46 477 208 620 428 620 c 0
 626 620 742 504 742 351 c 0
 742 334 741 317 738 300 c 0
 704 88 557 -20 406 -90 c 1
 311 70 l 1
 374 105 456 159 478 300 c 0
 479 309 480 317 480 325 c 0
 480 375 452 410 395 410 c 0
 329 410 288 367 281 320 c 0
 280 316 280 312 280 309 c 0
 280 283 297 270 323 270 c 0
 349 270 364 280 364 280 c 1
 361 130 l 1
 315 106 268 90 204 90 c 0
 101 90 14 140 14 257 c 0
EndSplineSet
Colour: ffff00
EndChar

StartChar: uni0E52
Encoding: 3666 3666 79
Width: 870
VWidth: 0
Flags: W
HStem: 0 180<289 563.063> 430 180<536.5 738> 580 20G<391.889 424.487>
VStem: 590 249<268.573 501>
LayerCount: 2
Fore
SplineSet
0 0 m 1xd0
 119 750 l 1
 379 750 l 1
 289 180 l 1
 559 180 l 1
 574 275 583 330 589 370 c 0
 590 377 590 384 590 390 c 0
 590 413 582 430 558 430 c 0xd0
 515 430 478 380 455 350 c 1
 445 350 l 1
 367 420 l 1
 395 600 l 1
 405 600 l 1xb0
 481 522 l 1
 510 556 574 610 687 610 c 0
 789 610 839 544 839 458 c 0
 839 446 839 433 837 420 c 2
 770 0 l 1
 0 0 l 1xd0
EndSplineSet
Colour: ffff00
EndChar

StartChar: uni0E53
Encoding: 3667 3667 80
Width: 840
VWidth: 0
Flags: W
HStem: -10 190<170.5 369.402> 0 21G<470 733.167> 590 10G<240.5 341 548.467 825>
VStem: 12 261<198.325 346.931>
LayerCount: 2
Fore
SplineSet
12 237 m 0xb0
 12 257 15 278 18 300 c 0
 45 470 164 610 317 610 c 0
 365 610 375 600 375 600 c 1
 441 450 l 1
 565 600 l 1
 825 600 l 1
 730 0 l 1
 470 0 l 1x70
 530 380 l 1
 454 280 l 1
 414 280 l 1
 374 280 l 1
 323 380 l 1
 300 361 281 324 274 280 c 0
 273 275 273 269 273 264 c 0
 273 221 301 180 339 180 c 0
 350 180 360 182 369 185 c 1
 383 20 l 1
 351 1 302 -10 248 -10 c 0
 93 -10 12 96 12 237 c 0xb0
EndSplineSet
Colour: ffff00
EndChar

StartChar: uni0E54
Encoding: 3668 3668 81
Width: 760
VWidth: 0
Flags: W
HStem: 0 180<293.657 394.752 569 630> 440 180<338.659 517.209>
VStem: 14 261<197.148 364.568>
LayerCount: 2
Fore
SplineSet
14 251 m 0
 14 267 15 283 18 300 c 0
 46 477 188 620 408 620 c 0
 516 620 566 666 579 750 c 1
 809 750 l 1
 781 573 640 440 420 440 c 0
 335 440 291 380 278 300 c 0
 276 286 275 274 275 263 c 0
 275 205 304 180 359 180 c 2
 389 180 l 1
 401 257 468 300 468 300 c 1
 648 300 l 1
 648 300 579 241 569 180 c 1
 659 180 l 1
 630 0 l 1
 330 0 l 2
 131 0 14 101 14 251 c 0
EndSplineSet
Colour: ffff00
EndChar

StartChar: uni0E55
Encoding: 3669 3669 82
Width: 760
VWidth: 0
Flags: W
HStem: 0 180<293.657 394.752 569 630> 440 140<346.472 426.494> 670 90<351.486 432.545>
VStem: 14 261<197.148 369.847> 237 106<582.215 659.553> 435 106<613.705 667.938>
LayerCount: 2
Fore
SplineSet
14 251 m 0xf4
 14 267 15 283 18 300 c 0
 39 432 123 523 245 561 c 1
 240 573 237 588 237 603 c 0xec
 237 610 238 617 239 625 c 0
 251 702 322 760 410 760 c 0
 490 760 541 713 541 647 c 0
 541 640 540 632 539 625 c 0
 538 621 538 617 536 613 c 1
 580 640 599 686 609 750 c 1
 809 750 l 1
 781 573 640 440 420 440 c 0
 335 440 291 380 278 300 c 0
 276 286 275 274 275 263 c 0
 275 205 304 180 359 180 c 2
 389 180 l 1
 401 257 468 300 468 300 c 1
 648 300 l 1
 648 300 579 241 569 180 c 1
 659 180 l 1
 630 0 l 1
 330 0 l 2
 131 0 14 101 14 251 c 0xf4
343 618 m 0
 343 596 359 580 382 580 c 0
 407 580 430 600 434 625 c 0
 434 627 435 630 435 632 c 0
 435 654 419 670 396 670 c 0
 371 670 348 650 344 625 c 0
 344 623 343 620 343 618 c 0
EndSplineSet
Colour: ffff00
EndChar

StartChar: uni0E56
Encoding: 3670 3670 83
Width: 760
VWidth: 0
Flags: W
HStem: -20 180<287.978 400.078> 440 180<325.013 433.95>
VStem: 7 270<106 244.272> 62 234<646.001 750> 461 262<227.719 412.306>
LayerCount: 2
Fore
SplineSet
7 158 m 0xe8
 7 165 8 173 9 180 c 0
 20 250 65 300 148 300 c 2
 298 300 l 1
 287 284 281 258 279 244 c 0
 278 237 277 230 277 224 c 0xe8
 277 187 295 160 335 160 c 0
 401 160 445 217 458 300 c 0
 460 313 461 324 461 336 c 0
 461 397 431 440 360 440 c 0
 168 440 62 503 62 670 c 0
 62 695 64 721 69 750 c 1
 299 750 l 1
 297 736 296 723 296 712 c 0xd8
 296 644 336 620 428 620 c 0
 623 620 723 507 723 358 c 0
 723 339 721 320 718 300 c 0
 690 123 527 -20 307 -20 c 0
 129 -20 7 54 7 158 c 0xe8
EndSplineSet
Colour: ffff00
EndChar

StartChar: uni0E57
Encoding: 3671 3671 84
Width: 1105
VWidth: 0
Flags: W
HStem: -10 190<170.5 369.402> 0 21G<470 780> 590 10G<240.5 341 548.378 795 861.867 1095>
VStem: 12 261<198.325 346.931>
LayerCount: 2
Fore
SplineSet
12 237 m 0xb0
 12 257 15 278 18 300 c 0
 45 470 164 610 317 610 c 0
 365 610 375 600 375 600 c 1
 442 452 l 1
 565 600 l 1
 795 600 l 1
 729 183 l 1
 777 193 807 230 818 300 c 2
 865 600 l 1
 1095 600 l 1
 1048 300 l 2
 1020 123 890 0 670 0 c 2
 470 0 l 1x70
 530 380 l 1
 454 280 l 1
 414 280 l 1
 374 280 l 1
 323 380 l 1
 300 361 281 324 274 280 c 0
 273 275 273 269 273 264 c 0
 273 221 301 180 339 180 c 0
 350 180 360 182 369 185 c 1
 383 20 l 1
 351 1 302 -10 248 -10 c 0
 93 -10 12 96 12 237 c 0xb0
EndSplineSet
Colour: ffff00
EndChar

StartChar: uni0E58
Encoding: 3672 3672 85
Width: 820
VWidth: 0
Flags: W
HStem: -20 21G<195 284.429 455.857 537> 440 180<338.659 549.756>
VStem: 13 241<186.233 356.715> 541 230<189.444 275.713>
LayerCount: 2
Fore
SplineSet
13 248 m 0
 13 265 15 282 18 300 c 0
 46 477 188 620 408 620 c 0
 547 620 593 652 609 750 c 1
 859 750 l 1
 823 522 697 440 420 440 c 0
 335 440 271 380 258 300 c 0
 256 286 254 272 254 259 c 0
 254 224 263 197 281 180 c 1
 388 300 l 1
 418 300 l 1
 448 300 l 1
 512 186 l 1
 525 201 535 221 539 244 c 0
 540 251 541 262 541 273 c 0
 541 283 541 292 538 300 c 1
 668 300 l 2
 740 300 771 262 771 207 c 0
 771 198 770 189 769 180 c 0
 751 64 607 -20 467 -20 c 1
 389 120 l 1
 267 -20 l 1
 123 -20 13 96 13 248 c 0
EndSplineSet
Colour: ffff00
EndChar

StartChar: uni0E59
Encoding: 3673 3673 86
Width: 880
VWidth: 0
Flags: W
HStem: -10 180<162.5 348.902> 0 21G<447.116 670> 590 20G<299.5 451>
VStem: 10 262<175.292 355.07>
LayerCount: 2
Fore
SplineSet
10 225 m 0xb0
 10 243 11 261 14 280 c 0
 43 464 192 610 407 610 c 0
 495 610 565 600 565 600 c 1
 585 482 l 1
 638 501 666 541 675 600 c 2
 699 750 l 1
 929 750 l 1
 905 600 l 2
 882 452 780 335 618 300 c 1
 670 0 l 1
 450 0 l 1x70
 388 430 l 1
 340 430 289 370 276 290 c 0
 273 273 272 258 272 245 c 0
 272 195 290 170 317 170 c 0
 328 170 339 172 348 175 c 1
 363 20 l 1
 331 1 282 -10 228 -10 c 0
 97 -10 10 87 10 225 c 0xb0
EndSplineSet
Colour: ffff00
EndChar

StartChar: uni0E5A
Encoding: 3674 3674 87
Width: 900
VWidth: 0
Flags: W
HStem: 0 21G<300 513.167 570 783.167> 290 170<141.5 306.991> 580 20G<51.9091 265 411.923 605 661.833 875>
VStem: 35 219<409.5 598.672>
LayerCount: 2
Fore
SplineSet
35 454 m 0
 35 466 36 478 38 490 c 1
 55 600 l 1
 265 600 l 1
 256 540 l 2
 255 531 254 523 254 516 c 0
 254 474 276 460 303 460 c 0
 342 460 380 490 405 535 c 1
 415 600 l 1
 605 600 l 1
 510 0 l 1
 300 0 l 1
 355 349 l 1
 319 317 266 290 196 290 c 0
 87 290 35 365 35 454 c 0
570 0 m 1
 665 600 l 1
 875 600 l 1
 780 0 l 1
 570 0 l 1
EndSplineSet
Colour: ffff00
EndChar

StartChar: uni0E5B
Encoding: 3675 3675 88
Width: 1110
VWidth: 0
Flags: W
HStem: -20 80<197.643 417.165> 150 300<274.337 400.663> 260 80<972 1061> 540 80<266.407 482.987>
VStem: 13 91<153.427 371.536> 646 80<474.849 540>
LayerCount: 2
Fore
SplineSet
13 245 m 0xbc
 13 263 15 281 18 300 c 0
 46 477 199 620 388 620 c 0
 485 620 545 588 594 530 c 1
 534 470 l 1
 499 513 448 540 376 540 c 0
 239 540 129 433 108 300 c 0
 106 285 104 271 104 257 c 0
 104 145 178 60 300 60 c 0
 451 60 541 158 588 300 c 0
 612 372 634 464 646 540 c 1
 726 540 l 1
 767 222 l 1
 876 450 l 1
 946 450 l 1xdc
 972 340 l 1
 1074 340 l 1
 1061 260 l 1
 991 260 l 1
 921 260 l 1
 900 348 l 1
 784 90 l 1
 704 90 l 1
 674 322 l 1
 672 314 670 307 668 300 c 0
 610 108 488 -20 287 -20 c 0
 118 -20 13 94 13 245 c 0xbc
186 276 m 0
 186 284 187 292 188 300 c 0
 201 383 278 450 361 450 c 0
 436 450 489 396 489 324 c 0
 489 316 489 308 488 300 c 0
 475 217 397 150 314 150 c 0
 239 150 186 204 186 276 c 0
EndSplineSet
Colour: ffff00
EndChar

StartChar: o
Encoding: 111 111 91
Width: 760
VWidth: 0
Flags: W
HStem: -20 210<295.533 414.614> 410 210<320.634 439.467>
VStem: 13 262<206.802 356.715> 460 262<243.285 393.198>
LayerCount: 2
Fore
SplineSet
13 248 m 0
 13 265 15 282 18 300 c 0
 46 477 204 620 418 620 c 0
 610 620 722 504 722 352 c 0
 722 335 721 318 718 300 c 0
 690 123 531 -20 317 -20 c 0
 125 -20 13 96 13 248 c 0
275 274 m 0
 275 224 301 190 350 190 c 0
 407 190 448 237 458 300 c 0
 459 309 460 318 460 326 c 0
 460 376 434 410 385 410 c 0
 328 410 288 363 278 300 c 0
 277 291 275 282 275 274 c 0
EndSplineSet
Colour: ffff00
EndChar

StartChar: c
Encoding: 99 99 92
Width: 650
VWidth: 0
Flags: W
HStem: -20 200<221 485.199> 420 200<357.517 561.541>
LayerCount: 2
Fore
SplineSet
13 248 m 0
 13 265 15 282 18 300 c 0
 46 477 204 620 418 620 c 0
 587 620 657 550 657 550 c 1
 552 390 l 1
 532 404 506 420 437 420 c 0
 368 420 310 373 298 300 c 0
 297 292 295 284 295 277 c 0
 295 217 337 180 399 180 c 0
 468 180 499 196 523 210 c 1
 578 50 l 1
 578 50 486 -20 317 -20 c 0
 125 -20 13 96 13 248 c 0
EndSplineSet
Colour: ffff00
EndChar

StartChar: l
Encoding: 108 108 93
Width: 400
VWidth: 0
Flags: W
HStem: 820 20G<129.838 413>
VStem: 14 399
LayerCount: 2
Fore
SplineSet
14 74 m 0
 14 82 15 91 16 100 c 2
 133 840 l 1
 413 840 l 1
 280 0 l 1
 280 0 206 -10 138 -10 c 0
 42 -10 14 24 14 74 c 0
EndSplineSet
Colour: ffff00
EndChar

StartChar: u
Encoding: 117 117 94
Width: 775
VWidth: 0
Flags: W
HStem: -10 210<146 364.5> 0 21G<405 668.167> 580 20G<76.8421 360 476.817 760>
VStem: 16 290<113 358.281>
LayerCount: 2
Fore
SplineSet
16 171 m 0xb0
 16 186 17 203 20 220 c 2
 80 600 l 1
 360 600 l 1
 309 280 l 2
 307 267 306 255 306 246 c 0
 306 211 320 200 347 200 c 0xb0
 382 200 408 226 427 267 c 1
 480 600 l 1
 760 600 l 1
 665 0 l 1
 405 0 l 1x70
 421 102 l 1
 386 56 316 -10 203 -10 c 0
 89 -10 16 55 16 171 c 0xb0
EndSplineSet
Colour: ffff00
EndChar

StartChar: a
Encoding: 97 97 95
Width: 740
VWidth: 0
Flags: W
HStem: -10 140<123 337> 0 21G<390 643.189> 230 140<176 373.717> 440 180<196.488 506.816>
VStem: 428 274<311.977 487.601>
LayerCount: 2
Fore
SplineSet
-4 146 m 0xb8
 -4 157 -3 168 -1 180 c 0
 16 288 103 370 249 370 c 0
 346 370 396 335 419 311 c 1
 427 360 l 2
 428 365 428 370 428 375 c 0
 428 425 381 440 310 440 c 0
 232 440 150 416 103 400 c 1
 67 550 l 1
 67 550 206 620 408 620 c 0
 600 620 702 553 702 419 c 0
 702 404 702 387 699 370 c 2
 640 0 l 1
 390 0 l 1x78
 401 70 l 1
 401 70 334 -10 188 -10 c 0
 58 -10 -4 55 -4 146 c 0xb8
268 171 m 0
 268 143 292 130 321 130 c 0xb8
 353 130 374 138 394 152 c 1
 403 208 l 1
 387 222 368 230 336 230 c 0
 304 230 275 215 269 180 c 0
 268 177 268 174 268 171 c 0
EndSplineSet
Substitution2: "'aalt' Latin Access All Alternates" a.alt
Substitution2: "'ss20' Latin a & g alt" a.alt
Substitution2: "'ss19' Latin a alt" a.alt
Colour: ffff00
EndChar

StartChar: d
Encoding: 100 100 96
Width: 800
VWidth: 0
Flags: W
HStem: -10 190<179.5 388> 0 21G<430 683.167> 420 190<345.897 453.726> 820 20G<539.824 813>
LayerCount: 2
Fore
SplineSet
13 241 m 0xb0
 13 260 15 280 18 300 c 0
 45 471 179 610 357 610 c 0
 424 610 467 583 496 544 c 1
 543 840 l 1
 813 840 l 1
 680 0 l 1
 430 0 l 1x70
 443 82 l 1
 400 29 339 -10 258 -10 c 0
 101 -10 13 98 13 241 c 0xb0
295 269 m 0
 295 210 328 180 369 180 c 0xb0
 407 180 430 198 446 228 c 1
 469 372 l 1
 463 402 445 420 407 420 c 0
 359 420 311 380 298 300 c 0
 296 289 295 279 295 269 c 0
EndSplineSet
Colour: ffff00
EndChar

StartChar: b
Encoding: 98 98 97
Width: 800
VWidth: 0
Flags: W
HStem: -10 190<320.201 429.604> 0 21G<0 253.171> 420 190<388 595.5> 820 20G<129.833 403>
LayerCount: 2
Fore
SplineSet
0 0 m 1x70
 133 840 l 1
 403 840 l 1
 356 544 l 1
 397 583 450 610 517 610 c 0
 674 610 762 502 762 359 c 0
 762 340 761 320 758 300 c 0
 731 129 596 -10 418 -10 c 0xb0
 337 -10 290 29 263 82 c 1
 250 0 l 1
 0 0 l 1x70
306 228 m 1
 312 198 331 180 369 180 c 0
 417 180 465 220 478 300 c 0
 480 311 480 321 480 331 c 0
 480 390 448 420 407 420 c 0
 369 420 345 402 329 372 c 1
 306 228 l 1
EndSplineSet
Colour: ffff00
EndChar

StartChar: e
Encoding: 101 101 98
Width: 730
VWidth: 0
Flags: W
HStem: -20 180<298.506 484.092> 240 110<279 456.999> 440 180<320.925 442.438>
VStem: 457 238<350 426.989>
LayerCount: 2
Fore
SplineSet
13 248 m 0
 13 265 15 282 18 300 c 0
 46 477 204 620 418 620 c 0
 574 620 695 538 695 377 c 0
 695 359 694 340 691 320 c 0
 684 275 668 240 668 240 c 1
 268 240 l 1
 278 189 317 160 385 160 c 0
 476 160 528 186 552 200 c 1
 590 60 l 1
 590 60 497 -20 317 -20 c 0
 125 -20 13 96 13 248 c 0
279 350 m 1
 455 350 l 1
 456 357 457 363 457 370 c 0
 457 411 435 440 390 440 c 0
 339 440 300 409 279 350 c 1
EndSplineSet
Colour: ffff00
EndChar

StartChar: q
Encoding: 113 113 99
Width: 800
VWidth: 0
Flags: W
HStem: -10 190<179.5 388> 420 190<345.897 454.574> 580 20G<521.829 775>
LayerCount: 2
Fore
SplineSet
13 241 m 0xa0
 13 260 15 280 18 300 c 0
 45 471 179 610 357 610 c 0xc0
 438 610 485 571 512 518 c 1
 525 600 l 1
 775 600 l 1
 642 -240 l 1
 372 -240 l 1
 419 56 l 1
 378 17 325 -10 258 -10 c 0
 101 -10 13 98 13 241 c 0xa0
295 269 m 0
 295 210 328 180 369 180 c 0
 407 180 430 198 446 228 c 1
 469 372 l 1
 463 402 445 420 407 420 c 0
 359 420 311 380 298 300 c 0
 296 289 295 279 295 269 c 0
EndSplineSet
Colour: ffff00
EndChar

StartChar: p
Encoding: 112 112 100
Width: 800
VWidth: 0
Flags: W
HStem: -10 190<321.466 429.604> 420 190<388 595.5> 580 20G<91.8333 345>
LayerCount: 2
Fore
SplineSet
-38 -240 m 1xc0
 95 600 l 1
 345 600 l 1xa0
 332 518 l 1
 375 571 436 610 517 610 c 0
 674 610 762 502 762 359 c 0
 762 340 761 320 758 300 c 0
 731 129 596 -10 418 -10 c 0
 351 -10 308 17 279 56 c 1
 232 -240 l 1
 -38 -240 l 1xc0
306 228 m 1
 312 198 331 180 369 180 c 0
 417 180 465 220 478 300 c 0
 480 311 480 321 480 331 c 0
 480 390 448 420 407 420 c 0xc0
 369 420 345 402 329 372 c 1
 306 228 l 1
EndSplineSet
Colour: ffff00
EndChar

StartChar: n
Encoding: 110 110 101
Width: 775
VWidth: 0
Flags: W
HStem: 0 21G<-10 273.183 390 673.158> 400 210<385.5 604> 580 20G<81.8333 345>
VStem: 444 290<241.719 487>
LayerCount: 2
Fore
SplineSet
-10 0 m 1xd0
 85 600 l 1
 345 600 l 1xb0
 329 498 l 1
 364 544 434 610 547 610 c 0
 661 610 734 545 734 429 c 0
 734 414 733 397 730 380 c 2
 670 0 l 1
 390 0 l 1
 441 320 l 2
 443 333 444 345 444 354 c 0
 444 389 430 400 403 400 c 0
 368 400 342 374 323 333 c 1
 270 0 l 1
 -10 0 l 1xd0
EndSplineSet
Colour: ffff00
EndChar

StartChar: h
Encoding: 104 104 102
Width: 785
VWidth: 0
Flags: W
HStem: 0 21G<0 283.183 400 683.158> 400 210<395.5 614> 820 20G<129.833 403>
VStem: 454 290<241.719 487>
LayerCount: 2
Fore
SplineSet
0 0 m 1
 133 840 l 1
 403 840 l 1
 351 513 l 1
 389 558 456 610 557 610 c 0
 671 610 744 545 744 429 c 0
 744 414 743 397 740 380 c 2
 680 0 l 1
 400 0 l 1
 451 320 l 2
 453 333 454 345 454 354 c 0
 454 389 440 400 413 400 c 0
 378 400 352 374 333 333 c 1
 280 0 l 1
 0 0 l 1
EndSplineSet
Colour: ffff00
EndChar

StartChar: s
Encoding: 115 115 103
Width: 630
VWidth: 0
Flags: W
HStem: -20 155<120.228 283.179> 465 155<323.598 478.424>
VStem: 43 276<343.5 457.961> 286 286<139.637 259.5>
LayerCount: 2
Fore
SplineSet
-22 50 m 1xd0
 70 190 l 1
 102 161 185 135 226 135 c 0
 259 135 286 143 286 169 c 0xd0
 286 185 268 195 242 205 c 0
 219 214 184 228 158 240 c 0
 109 263 43 303 43 384 c 0
 43 392 44 401 45 410 c 0
 65 537 191 620 358 620 c 0
 495 620 568 584 617 550 c 1
 525 410 l 1
 497 438 424 465 384 465 c 0
 348 465 319 457 319 432 c 0xe0
 319 415 340 405 363 395 c 0
 384 386 422 370 447 360 c 0
 499 339 572 302 572 217 c 0
 572 209 571 200 570 191 c 0
 547 45 393 -20 247 -20 c 0
 131 -20 32 16 -22 50 c 1xd0
EndSplineSet
Colour: ffff00
EndChar

StartChar: i
Encoding: 105 105 104
Width: 400
VWidth: 0
Flags: W
HStem: 0 21G<0 283.167> 580 20G<91.8333 375> 660 180<153 365>
VStem: 0 393
LayerCount: 2
Fore
SplineSet
0 0 m 1
 95 600 l 1
 375 600 l 1
 280 0 l 1
 0 0 l 1
125 660 m 1
 153 840 l 1
 393 840 l 1
 365 660 l 1
 125 660 l 1
EndSplineSet
Colour: ffff00
EndChar

StartChar: z
Encoding: 122 122 105
Width: 680
VWidth: 0
Flags: W
HStem: 0 160<335 590> 440 160<85 320>
LayerCount: 2
Fore
SplineSet
-30 0 m 1
 -8 140 l 1
 320 440 l 1
 60 440 l 1
 85 600 l 1
 665 600 l 1
 643 460 l 1
 335 160 l 1
 615 160 l 1
 590 0 l 1
 -30 0 l 1
EndSplineSet
Colour: ffff00
EndChar

StartChar: g
Encoding: 103 103 106
Width: 680
VWidth: 0
Flags: W
HStem: -280 150<4.56165 262.212> 160 150<273.906 351.445> 450 150<613 701> 470 150<291.838 369.742>
VStem: 8 185<-5 146.5> 29 241<314.05 451.143> 264 299<-112.781 11>
LayerCount: 2
Fore
SplineSet
-58 -240 m 1xea
 5 -95 l 1
 39 -111 102 -130 169 -130 c 0
 234 -130 264 -123 264 -101 c 0
 264 -88 252 -80 227 -80 c 2
 162 -80 l 2
 83 -80 8 -46 8 36 c 0xea
 8 43 9 52 10 60 c 0
 20 120 59 168 112 202 c 1
 58 235 29 287 29 352 c 0
 29 364 30 377 32 390 c 0
 54 528 178 620 358 620 c 0xd4
 439 620 504 601 548 568 c 1
 585 600 l 1
 725 600 l 1
 701 450 l 1
 613 450 l 1
 614 442 615 434 615 426 c 0
 615 414 614 402 612 390 c 0
 590 252 465 160 285 160 c 0
 256 160 230 162 206 167 c 1
 198 158 193 152 193 141 c 0
 193 124 211 120 249 120 c 2
 349 120 l 2
 491 120 563 55 563 -33 c 0
 563 -42 561 -51 560 -60 c 0
 537 -203 412 -280 216 -280 c 0
 41 -280 -25 -253 -58 -240 c 1xea
270 363 m 0xd4
 270 333 280 310 309 310 c 0
 347 310 365 348 372 390 c 0
 373 399 374 408 374 417 c 0
 374 447 363 470 334 470 c 0
 296 470 279 432 272 390 c 0
 271 381 270 372 270 363 c 0xd4
EndSplineSet
Substitution2: "'aalt' Latin Access All Alternates" g.alt
Substitution2: "'ss20' Latin a & g alt" g.alt
Substitution2: "'ss18' Latin g alt" g.alt
Colour: ffff00
EndChar

StartChar: f
Encoding: 102 102 107
Width: 540
VWidth: 0
Flags: W
HStem: 0 21G<40 313.182> 440 160<65 110 395 510> 690 180<414.496 549.631>
LayerCount: 2
Fore
SplineSet
40 0 m 1
 110 440 l 1
 40 440 l 1
 65 600 l 1
 145 600 l 1
 153 650 l 2
 177 803 299 870 428 870 c 0
 552 870 616 821 628 810 c 1
 536 670 l 1
 528 675 504 690 469 690 c 0
 439 690 407 677 400 630 c 2
 395 600 l 1
 535 600 l 1
 510 440 l 1
 380 440 l 1
 310 0 l 1
 40 0 l 1
EndSplineSet
Colour: ffff00
EndChar

StartChar: t
Encoding: 116 116 108
Width: 530
VWidth: 0
Flags: W
HStem: -20 190<181 380.404> 440 160<55 100 385 500>
VStem: 57 279<87 334.375>
LayerCount: 2
Fore
SplineSet
30 440 m 1
 55 600 l 1
 135 600 l 1
 164 780 l 1
 414 780 l 1
 385 600 l 1
 525 600 l 1
 500 440 l 1
 370 440 l 1
 338 240 l 2
 337 233 336 226 336 220 c 0
 336 184 356 170 377 170 c 0
 406 170 436 189 452 200 c 1
 480 60 l 1
 453 36 363 -20 237 -20 c 0
 125 -20 57 30 57 144 c 0
 57 161 59 180 62 200 c 2
 100 440 l 1
 30 440 l 1
EndSplineSet
Colour: ffff00
EndChar

StartChar: r
Encoding: 114 114 109
Width: 520
VWidth: 0
Flags: W
HStem: 0 21G<0 283.164> 580 20G<91.8333 355 492.5 533.777>
LayerCount: 2
Fore
SplineSet
0 0 m 1
 95 600 l 1
 355 600 l 1
 340 503 l 1
 384 559 448 610 537 610 c 1
 503 399 l 1
 486 403 469 405 454 405 c 0
 400 405 361 379 333 335 c 1
 280 0 l 1
 0 0 l 1
EndSplineSet
Colour: ffff00
EndChar

StartChar: m
Encoding: 109 109 110
Width: 1105
VWidth: 0
Flags: W
HStem: 0 21G<-10 263.152 360 633.152 730 1003.18> 410 200<370 569 740 948.5> 580 20G<81.8333 345>
VStem: 786 280<251.25 497.5>
LayerCount: 2
Fore
SplineSet
-10 0 m 1xd0
 85 600 l 1
 345 600 l 1xb0
 331 513 l 1
 369 558 434 610 527 610 c 0
 611 610 671 573 690 499 c 1
 725 545 794 610 897 610 c 0
 1000 610 1066 553 1066 442 c 0
 1066 426 1065 409 1062 390 c 2
 1000 0 l 1
 730 0 l 1
 782 330 l 2
 784 345 786 357 786 367 c 0
 786 399 775 410 755 410 c 0
 725 410 706 385 685 349 c 1
 630 0 l 1
 360 0 l 1
 412 330 l 2
 414 345 416 357 416 367 c 0
 416 399 405 410 385 410 c 0
 355 410 336 385 315 349 c 1
 260 0 l 1
 -10 0 l 1xd0
EndSplineSet
Colour: ffff00
EndChar

StartChar: j
Encoding: 106 106 111
Width: 400
VWidth: 0
Flags: W
HStem: 580 20G<91.8333 375> 660 180<153 365>
LayerCount: 2
Fore
SplineSet
-38 -240 m 1
 95 600 l 1
 375 600 l 1
 258 -140 l 2
 248 -204 212 -250 100 -250 c 0
 32 -250 -38 -240 -38 -240 c 1
125 660 m 1
 153 840 l 1
 393 840 l 1
 365 660 l 1
 125 660 l 1
EndSplineSet
Colour: ffff00
EndChar

StartChar: k
Encoding: 107 107 112
Width: 770
VWidth: 0
Flags: W
HStem: 0 21G<0 273.143 403.619 710> 580 20G<483.286 785> 820 20G<129.833 403>
LayerCount: 2
Fore
SplineSet
0 0 m 1
 133 840 l 1
 403 840 l 1
 332 390 l 1
 372 390 l 1
 495 600 l 1
 785 600 l 1
 579 310 l 1
 710 0 l 1
 410 0 l 1
 343 210 l 1
 303 210 l 1
 270 0 l 1
 0 0 l 1
EndSplineSet
Colour: ffff00
EndChar

StartChar: exclam
Encoding: 33 33 113
Width: 400
VWidth: 0
Flags: W
HStem: 0 200<52 260> 820 20G<130.895 413>
VStem: 20 393
LayerCount: 2
Fore
SplineSet
20 0 m 1
 52 200 l 1
 292 200 l 1
 260 0 l 1
 20 0 l 1
73 270 m 1
 133 840 l 1
 413 840 l 1
 293 270 l 1
 73 270 l 1
EndSplineSet
Colour: ffff00
EndChar

StartChar: quotedbl
Encoding: 34 34 114
Width: 580
VWidth: 0
Flags: W
HStem: 480 360<113 236 383 506>
LayerCount: 2
Fore
SplineSet
106 480 m 1
 113 840 l 1
 343 840 l 1
 236 480 l 1
 106 480 l 1
376 480 m 1
 383 840 l 1
 613 840 l 1
 506 480 l 1
 376 480 l 1
EndSplineSet
Colour: ffff00
EndChar

StartChar: numbersign
Encoding: 35 35 115
Width: 960
VWidth: 0
Flags: W
HStem: 0 21G<30 248.222 390 608.222> 180 180<27 104 387 464 747 839> 480 180<135 226 510 586 870 946> 820 20G<364.889 583 724.889 943>
LayerCount: 2
Fore
SplineSet
-1 180 m 1
 27 360 l 1
 177 360 l 1
 226 480 l 1
 106 480 l 1
 135 660 l 1
 300 660 l 1
 373 840 l 1
 583 840 l 1
 510 660 l 1
 660 660 l 1
 733 840 l 1
 943 840 l 1
 870 660 l 1
 975 660 l 1
 946 480 l 1
 796 480 l 1
 747 360 l 1
 867 360 l 1
 839 180 l 1
 674 180 l 1
 600 0 l 1
 390 0 l 1
 464 180 l 1
 314 180 l 1
 240 0 l 1
 30 0 l 1
 104 180 l 1
 -1 180 l 1
387 360 m 1
 537 360 l 1
 586 480 l 1
 436 480 l 1
 387 360 l 1
EndSplineSet
Colour: ffff00
EndChar

StartChar: dollar
Encoding: 36 36 116
Width: 760
VWidth: 0
Flags: W
HStem: -120 310<224.202 391.408> 650 310<401.307 559.486>
LayerCount: 2
Fore
SplineSet
-17 80 m 1
 134 280 l 1
 180 245 240 190 310 190 c 0
 354 190 391 197 396 230 c 0
 396 232 397 234 397 236 c 0
 397 261 371 271 354 280 c 0
 319 299 258 328 216 355 c 0
 157 393 80 448 80 553 c 0
 80 565 81 577 83 590 c 0
 106 738 224 814 349 844 c 1
 367 960 l 1
 577 960 l 1
 560 854 l 1
 677 835 748 777 770 760 c 1
 642 580 l 1
 573 625 527 650 473 650 c 0
 435 650 402 644 397 610 c 0
 397 608 396 607 396 605 c 0
 396 583 420 571 439 560 c 0
 489 532 505 524 549 500 c 0
 615 464 712 414 712 286 c 0
 712 272 711 256 708 240 c 0
 685 93 564 19 424 -8 c 1
 406 -120 l 1
 196 -120 l 1
 212 -16 l 1
 73 1 6 62 -17 80 c 1
EndSplineSet
Colour: ffff00
EndChar

StartChar: percent
Encoding: 37 37 117
Width: 1100
VWidth: 0
Flags: W
HStem: -20 150<768.452 854.24> 0 21G<60 259.357> 310 150<785.76 871.548> 380 150<241.773 327.24> 710 150<258.76 344.548> 820 20G<853.643 1053>
VStem: 65 167<535.422 680.13> 355 167<559.87 704.411> 591 167<135.589 280.13> 882 167<159.87 304.411>
LayerCount: 2
Fore
SplineSet
60 0 m 1x47c0
 873 840 l 1
 1053 840 l 1
 240 0 l 1
 60 0 l 1x47c0
65 576 m 0
 65 590 66 605 68 620 c 0
 89 753 197 860 331 860 c 0
 450 860 522 776 522 664 c 0
 522 650 520 635 518 620 c 0
 497 487 389 380 255 380 c 0x1bc0
 136 380 65 464 65 576 c 0
232 596 m 0
 232 558 247 530 279 530 c 0
 317 530 345 570 353 620 c 0
 354 628 355 636 355 644 c 0
 355 682 339 710 307 710 c 0
 269 710 241 670 233 620 c 0
 232 612 232 604 232 596 c 0
591 176 m 0
 591 190 593 205 595 220 c 0
 616 353 724 460 858 460 c 0
 977 460 1049 376 1049 264 c 0
 1049 250 1047 235 1045 220 c 0
 1024 87 916 -20 782 -20 c 0xa3c0
 663 -20 591 64 591 176 c 0
758 196 m 0
 758 158 774 130 806 130 c 0
 844 130 872 170 880 220 c 0
 881 228 882 236 882 244 c 0
 882 282 866 310 834 310 c 0
 796 310 768 270 760 220 c 0
 759 212 758 204 758 196 c 0
EndSplineSet
Colour: ffff00
EndChar

StartChar: ampersand
Encoding: 38 38 118
Width: 870
VWidth: 0
Flags: W
HStem: -20 190<215 442.171> 690 170<410.009 499.375>
VStem: 184 202<524.942 668.115> 508 192<562.278 683.175>
LayerCount: 2
Fore
SplineSet
11 177 m 0
 11 188 11 198 13 210 c 0
 35 348 139 414 221 452 c 1
 201 483 184 523 184 573 c 0
 184 585 185 597 187 610 c 0
 213 775 354 860 486 860 c 0
 604 860 700 792 700 659 c 0
 700 644 700 627 697 610 c 0
 683 521 609 449 533 402 c 1
 610 323 l 1
 656 371 697 420 697 420 c 1
 832 330 l 1
 832 330 781 267 726 206 c 1
 801 130 l 1
 657 -20 l 1
 573 69 l 1
 491 16 389 -20 287 -20 c 0
 143 -20 11 46 11 177 c 0
278 229 m 0
 278 194 306 170 357 170 c 0
 386 170 417 181 450 199 c 1
 340 315 l 1
 312 300 284 277 278 240 c 0
 277 236 278 233 278 229 c 0
386 594 m 0
 386 559 402 533 421 514 c 1
 461 536 501 572 507 610 c 0
 508 618 508 625 508 632 c 0
 508 667 492 690 459 690 c 0
 419 690 394 656 387 610 c 1
 386 604 386 599 386 594 c 0
EndSplineSet
Colour: ffff00
EndChar

StartChar: quotesingle
Encoding: 39 39 119
Width: 320
VWidth: 0
Flags: W
HStem: 480 360<113 246>
VStem: 106 247
LayerCount: 2
Fore
SplineSet
106 480 m 1
 113 840 l 1
 353 840 l 1
 246 480 l 1
 106 480 l 1
EndSplineSet
Colour: ffff00
EndChar

StartChar: parenleft
Encoding: 40 40 120
Width: 480
VWidth: 0
Flags: W
VStem: 18 252<127.194 433.061>
LayerCount: 2
Fore
SplineSet
18 249 m 0
 18 284 21 321 27 360 c 0
 69 625 228 788 421 890 c 1
 517 740 l 1
 411 665 306 545 277 360 c 0
 272 330 270 301 270 274 c 0
 270 137 328 43 397 -20 c 1
 253 -170 l 1
 116 -83 18 48 18 249 c 0
EndSplineSet
Colour: ffff00
EndChar

StartChar: parenright
Encoding: 41 41 121
Width: 480
VWidth: 0
Flags: W
VStem: 204 252<286.939 592.806>
LayerCount: 2
Fore
SplineSet
-43 -20 m 1
 63 55 168 175 197 360 c 0
 202 390 204 419 204 446 c 0
 204 583 146 677 77 740 c 1
 221 890 l 1
 358 803 456 672 456 471 c 0
 456 436 453 399 447 360 c 0
 405 95 246 -68 53 -170 c 1
 -43 -20 l 1
EndSplineSet
Colour: ffff00
EndChar

StartChar: asterisk
Encoding: 42 42 122
Width: 660
VWidth: 0
Flags: W
HStem: 820 20G<298 508>
LayerCount: 2
Fore
SplineSet
69 554 m 1
 165 754 l 1
 310 660 l 1
 298 840 l 1
 508 840 l 1
 440 660 l 1
 613 754 l 1
 647 554 l 1
 460 536 l 1
 579 414 l 1
 389 290 l 1
 343 460 l 1
 243 290 l 1
 93 414 l 1
 250 536 l 1
 69 554 l 1
EndSplineSet
Colour: ffff00
EndChar

StartChar: plus
Encoding: 43 43 123
Width: 640
VWidth: 0
Flags: W
HStem: 270 180<61 183 451 573> 580 20G<231.8 475>
LayerCount: 2
Fore
SplineSet
33 270 m 1
 61 450 l 1
 211 450 l 1
 235 600 l 1
 475 600 l 1
 451 450 l 1
 601 450 l 1
 573 270 l 1
 423 270 l 1
 399 120 l 1
 159 120 l 1
 183 270 l 1
 33 270 l 1
EndSplineSet
Colour: ffff00
EndChar

StartChar: comma
Encoding: 44 44 124
Width: 360
VWidth: 0
Flags: W
HStem: -200 90<-32 39.0376>
VStem: -37 309
LayerCount: 2
Fore
SplineSet
-37 -110 m 1
 10 -110 69 -86 90 0 c 1
 0 0 l 1
 32 200 l 1
 272 200 l 1
 245 30 l 2
 221 -124 96 -200 -32 -200 c 1
 -37 -110 l 1
EndSplineSet
Colour: ffff00
EndChar

StartChar: hyphen
Encoding: 45 45 125
Width: 640
VWidth: 0
Flags: W
HStem: 270 180<61 573>
LayerCount: 2
Fore
SplineSet
33 270 m 1
 61 450 l 1
 601 450 l 1
 573 270 l 1
 33 270 l 1
EndSplineSet
Colour: ffff00
EndChar

StartChar: period
Encoding: 46 46 126
Width: 360
VWidth: 0
Flags: W
HStem: 0 200<32 240>
VStem: 0 272
LayerCount: 2
Fore
SplineSet
0 0 m 1
 32 200 l 1
 272 200 l 1
 240 0 l 1
 0 0 l 1
EndSplineSet
Colour: ffff00
EndChar

StartChar: slash
Encoding: 47 47 127
Width: 600
VWidth: 0
Flags: W
HStem: 0 21G<-30 191.024> 820 20G<421.976 643>
LayerCount: 2
Fore
SplineSet
-30 0 m 1
 433 840 l 1
 643 840 l 1
 180 0 l 1
 -30 0 l 1
EndSplineSet
Colour: ffff00
EndChar

StartChar: zero
Encoding: 48 48 128
Width: 860
VWidth: 0
Flags: W
HStem: -20 240<351.986 469.791> 620 240<403.372 526.241>
VStem: 30 291<253.912 496.585> 553 291<343.415 586.088>
LayerCount: 2
Fore
SplineSet
30 335 m 0
 30 363 32 391 37 420 c 0
 75 658 256 860 506 860 c 0
 725 860 844 704 844 505 c 0
 844 477 842 449 837 420 c 0
 799 182 617 -20 367 -20 c 0
 148 -20 30 136 30 335 c 0
321 348 m 0
 321 268 348 220 405 220 c 0
 477 220 528 298 547 420 c 0
 551 446 553 470 553 492 c 0
 553 572 525 620 468 620 c 0
 396 620 346 542 327 420 c 0
 323 394 321 370 321 348 c 0
EndSplineSet
Colour: ffff00
EndChar

StartChar: one
Encoding: 49 49 129
Width: 600
VWidth: 0
Flags: W
HStem: 0 21G<180 463.167> 820 20G<313.8 593>
LayerCount: 2
Fore
SplineSet
59 690 m 1
 353 840 l 1
 593 840 l 1
 460 0 l 1
 180 0 l 1
 275 600 l 1
 121 510 l 1
 59 690 l 1
EndSplineSet
Colour: ffff00
EndChar

StartChar: two
Encoding: 50 50 130
Width: 800
VWidth: 0
Flags: W
HStem: 0 210<413 690> 640 220<308.207 569.046>
VStem: 481 286<524.718 690>
LayerCount: 2
Fore
SplineSet
0 0 m 1
 32 200 l 1
 361 450 l 2
 404 482 472 521 480 570 c 0
 481 574 481 578 481 582 c 0
 481 619 450 640 390 640 c 0
 313 640 243 590 209 560 c 1
 102 710 l 1
 154 766 293 860 466 860 c 0
 668 860 767 748 767 632 c 0
 767 621 767 611 765 600 c 0
 747 485 678 434 609 370 c 1
 413 210 l 1
 723 210 l 1
 690 0 l 1
 0 0 l 1
EndSplineSet
Colour: ffff00
EndChar

StartChar: three
Encoding: 51 51 131
Width: 770
VWidth: 0
Flags: W
HStem: -20 210<198.192 406.86> 330 180<241 418.469> 660 200<284.473 549.447>
VStem: 432 288<214.558 313.814> 464 284<537.62 643.712>
LayerCount: 2
Fore
SplineSet
-26 90 m 1xf0
 131 260 l 1
 155 231 228 190 320 190 c 0
 395 190 425 220 431 260 c 0
 432 263 432 267 432 270 c 0xf0
 432 305 401 330 342 330 c 2
 212 330 l 1
 241 510 l 1
 371 510 l 2
 429 510 456 548 463 590 c 0
 464 593 464 597 464 600 c 0
 464 637 430 660 385 660 c 0
 308 660 237 620 203 590 c 1
 94 720 l 1
 146 776 273 860 446 860 c 0
 647 860 748 757 748 636 c 0xe8
 748 624 747 612 745 600 c 0
 734 531 696 471 631 427 c 1
 689 392 720 338 720 270 c 0
 720 257 718 244 716 230 c 0
 691 73 524 -20 307 -20 c 0
 136 -20 47 20 -26 90 c 1xf0
EndSplineSet
Colour: ffff00
EndChar

StartChar: four
Encoding: 52 52 132
Width: 800
VWidth: 0
Flags: W
HStem: 0 21G<350 633.167> 120 180<228 369 678 739> 820 20G<475.407 763>
LayerCount: 2
Fore
SplineSet
-11 120 m 1
 18 300 l 1
 493 840 l 1
 763 840 l 1
 678 300 l 1
 768 300 l 1
 739 120 l 1
 649 120 l 1
 630 0 l 1
 350 0 l 1
 369 120 l 1
 -11 120 l 1
228 300 m 1
 398 300 l 1
 436 540 l 1
 228 300 l 1
EndSplineSet
Colour: ffff00
EndChar

StartChar: five
Encoding: 53 53 133
Width: 780
VWidth: 0
Flags: W
HStem: -20 210<207.954 416.718> 330 210<348.885 562.5> 630 210<365 730>
VStem: 442 297<214.729 393>
LayerCount: 2
Fore
SplineSet
-16 90 m 1
 141 260 l 1
 165 231 237 190 329 190 c 0
 404 190 435 220 441 260 c 0
 442 263 442 267 442 270 c 0
 442 305 411 330 352 330 c 0
 279 330 238 300 238 300 c 1
 57 360 l 1
 183 840 l 1
 763 840 l 1
 730 630 l 1
 365 630 l 1
 332 506 l 1
 371 526 422 540 486 540 c 0
 639 540 739 456 739 330 c 0
 739 317 738 304 736 290 c 0
 702 78 534 -20 317 -20 c 0
 146 -20 57 20 -16 90 c 1
EndSplineSet
Colour: ffff00
EndChar

StartChar: six
Encoding: 54 54 134
Width: 810
VWidth: 0
Flags: W
HStem: -20 210<319.778 446.067> 370 180<396.96 597.5> 600 21G<643.5 670.625> 660 200<406.219 602.656>
LayerCount: 2
Fore
SplineSet
21 237 m 0
 21 251 22 265 24 280 c 2
 59 500 l 2
 94 719 255 860 496 860 c 0
 637 860 729 815 780 760 c 1
 655 600 l 1
 632 622 569 660 495 660 c 0
 426 660 349 619 336 540 c 2
 327 486 l 1
 379 523 448 550 537 550 c 0
 658 550 771 485 771 346 c 0
 771 332 771 316 768 300 c 0
 735 91 564 -20 347 -20 c 0
 149 -20 21 88 21 237 c 0
303 265 m 0
 303 223 332 190 380 190 c 0
 433 190 476 232 484 280 c 0
 485 285 486 290 486 295 c 0
 486 337 457 370 409 370 c 0
 349 370 312 328 304 280 c 0
 303 275 303 270 303 265 c 0
EndSplineSet
Colour: ffff00
EndChar

StartChar: seven
Encoding: 55 55 135
Width: 720
VWidth: 0
Flags: W
HStem: 0 21G<50 361.667> 630 210<113 430>
LayerCount: 2
Fore
SplineSet
50 0 m 1
 430 630 l 1
 80 630 l 1
 113 840 l 1
 763 840 l 1
 735 660 l 1
 350 0 l 1
 50 0 l 1
EndSplineSet
Colour: ffff00
EndChar

StartChar: eight
Encoding: 56 56 136
Width: 800
VWidth: 0
Flags: W
HStem: -20 180<307.29 429.823> 350 160<374.844 454.84> 690 170<397.695 494.927>
LayerCount: 2
Fore
SplineSet
2 185 m 0
 2 196 3 208 5 220 c 0
 21 319 85 392 189 433 c 1
 126 468 95 521 95 585 c 0
 95 596 96 608 98 620 c 0
 119 755 271 860 476 860 c 0
 665 860 781 771 781 651 c 0
 781 641 780 630 778 620 c 0
 765 540 715 474 629 433 c 1
 708 398 748 339 748 260 c 0
 748 247 747 234 745 220 c 0
 720 63 554 -20 337 -20 c 0
 137 -20 2 51 2 185 c 0
288 235 m 0
 288 192 318 160 365 160 c 0
 418 160 462 200 470 250 c 0
 471 257 471 265 471 272 c 0
 471 314 450 350 395 350 c 0
 330 350 298 300 290 250 c 0
 289 245 288 240 288 235 c 0
363 577 m 0
 363 536 384 510 421 510 c 0
 465 510 496 546 505 600 c 0
 506 607 507 614 507 621 c 0
 507 663 484 690 449 690 c 0
 408 690 374 654 365 600 c 0
 364 592 363 584 363 577 c 0
EndSplineSet
Colour: ffff00
EndChar

StartChar: nine
Encoding: 57 57 137
Width: 810
VWidth: 0
Flags: W
HStem: -20 200<220.559 417.281> 290 180<225.5 426.04> 650 210<376.966 503.222>
LayerCount: 2
Fore
SplineSet
43 80 m 1
 168 240 l 1
 191 218 255 180 329 180 c 0
 398 180 475 221 488 300 c 2
 496 354 l 1
 444 317 375 290 286 290 c 0
 165 290 52 355 52 494 c 0
 52 508 53 524 56 540 c 0
 89 749 259 860 476 860 c 0
 674 860 802 752 802 603 c 0
 802 589 801 575 799 560 c 2
 764 340 l 2
 729 121 568 -20 327 -20 c 0
 186 -20 94 25 43 80 c 1
338 545 m 0
 338 503 366 470 414 470 c 0
 474 470 511 512 519 560 c 0
 520 565 520 570 520 575 c 0
 520 617 491 650 443 650 c 0
 390 650 347 608 339 560 c 0
 338 555 338 550 338 545 c 0
EndSplineSet
Colour: ffff00
EndChar

StartChar: colon
Encoding: 58 58 138
Width: 360
VWidth: 0
Flags: W
HStem: 0 200<32 240> 400 200<95 303>
VStem: 0 335
LayerCount: 2
Fore
SplineSet
0 0 m 1
 32 200 l 1
 272 200 l 1
 240 0 l 1
 0 0 l 1
63 400 m 1
 95 600 l 1
 335 600 l 1
 303 400 l 1
 63 400 l 1
EndSplineSet
Colour: ffff00
EndChar

StartChar: semicolon
Encoding: 59 59 139
Width: 360
VWidth: 0
Flags: W
HStem: -200 90<-32 39.0376> 400 200<95 303>
VStem: -37 372
LayerCount: 2
Fore
SplineSet
-37 -110 m 1
 10 -110 69 -86 90 0 c 1
 0 0 l 1
 32 200 l 1
 272 200 l 1
 245 30 l 2
 221 -124 96 -200 -32 -200 c 1
 -37 -110 l 1
63 400 m 1
 95 600 l 1
 335 600 l 1
 303 400 l 1
 63 400 l 1
EndSplineSet
Colour: ffff00
EndChar

StartChar: less
Encoding: 60 60 140
Width: 570
VWidth: 0
Flags: W
LayerCount: 2
Fore
SplineSet
-1 245 m 1
 17 360 l 1
 35 475 l 1
 589 690 l 1
 556 480 l 1
 197 360 l 1
 518 240 l 1
 485 30 l 1
 -1 245 l 1
EndSplineSet
Colour: ffff00
EndChar

StartChar: equal
Encoding: 61 61 141
Width: 640
VWidth: 0
Flags: W
HStem: 120 180<38 549> 420 180<85 597>
LayerCount: 2
Fore
SplineSet
9 120 m 1
 38 300 l 1
 578 300 l 1
 549 120 l 1
 9 120 l 1
57 420 m 1
 85 600 l 1
 625 600 l 1
 597 420 l 1
 57 420 l 1
EndSplineSet
Colour: ffff00
EndChar

StartChar: greater
Encoding: 62 62 142
Width: 570
VWidth: 0
Flags: W
LayerCount: 2
Fore
SplineSet
-25 30 m 1
 8 240 l 1
 367 360 l 1
 46 480 l 1
 79 690 l 1
 565 475 l 1
 547 360 l 1
 529 245 l 1
 -25 30 l 1
EndSplineSet
Colour: ffff00
EndChar

StartChar: question
Encoding: 63 63 143
Width: 690
VWidth: 0
Flags: W
HStem: 0 200<202 410> 620 240<257.359 497.5>
VStem: 410 279<533.188 705.5>
LayerCount: 2
Fore
SplineSet
66 730 m 1
 154 798 271 860 416 860 c 0
 579 860 689 771 689 640 c 0
 689 627 687 614 685 600 c 0
 661 449 494 375 462 362 c 1
 443 270 l 1
 223 270 l 1
 241 450 l 1
 335 474 402 516 409 560 c 0
 410 564 410 567 410 570 c 0
 410 599 388 620 348 620 c 0
 294 620 232 586 166 540 c 1
 66 730 l 1
170 0 m 1
 202 200 l 1
 442 200 l 1
 410 0 l 1
 170 0 l 1
EndSplineSet
Colour: ffff00
EndChar

StartChar: at
Encoding: 64 64 144
Width: 1100
VWidth: 0
Flags: W
HStem: -180 80<331.678 645.082> 92 152<374.5 529.577> 92 108<731.5 902.342> 436 152<500.663 600.354> 780 80<466.288 755.753>
VStem: 17 91<136.428 415.023> 240 226<256.381 396.018> 979 91<271.81 552.609>
LayerCount: 2
Fore
SplineSet
17 257 m 0xbf
 17 284 20 312 24 340 c 0
 69 622 329 860 626 860 c 0
 893 860 1070 667 1070 423 c 0
 1070 396 1068 368 1064 340 c 0
 1045 218 962 92 769 92 c 0xbf
 694 92 628 124 601 187 c 1
 565 135 512 92 437 92 c 0xdf
 312 92 240 178 240 293 c 0
 240 308 241 324 244 340 c 0
 266 477 373 588 515 588 c 0
 574 588 611 562 633 525 c 1
 642 580 l 1
 840 580 l 1
 796 300 l 2
 795 291 793 282 793 274 c 0
 793 227 818 200 862 200 c 0
 915 200 960 249 974 340 c 0
 978 363 979 386 979 409 c 0
 979 612 836 780 614 780 c 0
 367 780 151 572 114 340 c 0
 110 317 108 294 108 271 c 0
 108 68 252 -100 474 -100 c 0
 562 -100 631 -87 685 -65 c 1
 699 -135 l 1
 633 -161 567 -180 461 -180 c 0
 194 -180 17 13 17 257 c 0xbf
466 316 m 0
 466 268 492 244 525 244 c 0xdf
 556 244 575 259 587 283 c 1
 588 289 589 294 590 300 c 2
 605 398 l 1
 600 421 586 436 555 436 c 0
 517 436 478 404 468 340 c 0
 467 331 466 324 466 316 c 0
EndSplineSet
Colour: ffff00
EndChar

StartChar: A
Encoding: 65 65 145
Width: 980
VWidth: 0
Flags: W
HStem: 0 21G<-50 259.5 606.833 910> 120 180<392 564> 820 20G<392.214 727.452>
LayerCount: 2
Fore
SplineSet
-50 0 m 1
 403 840 l 1
 723 840 l 1
 910 0 l 1
 610 0 l 1
 591 120 l 1
 307 120 l 1
 250 0 l 1
 -50 0 l 1
392 300 m 1
 564 300 l 1
 526 540 l 1
 525 570 l 1
 515 570 l 1
 506 540 l 1
 392 300 l 1
EndSplineSet
Colour: ffff00
EndChar

StartChar: B
Encoding: 66 66 146
Width: 880
VWidth: 0
Flags: W
HStem: 0 180<309 494.113> 350 150<359 514.573> 660 180<385 538.252>
LayerCount: 2
Fore
SplineSet
0 0 m 1
 133 840 l 1
 553 840 l 2
 756 840 850 762 850 647 c 0
 850 635 849 623 847 610 c 0
 835 533 789 472 706 434 c 1
 788 400 828 342 828 263 c 0
 828 249 827 235 825 220 c 0
 799 56 630 0 480 0 c 2
 0 0 l 1
309 180 m 1
 419 180 l 2
 471 180 524 214 531 260 c 0
 532 265 532 271 532 276 c 0
 532 316 507 350 445 350 c 2
 335 350 l 1
 309 180 l 1
359 500 m 1
 469 500 l 2
 513 500 546 542 552 580 c 0
 553 584 553 587 553 591 c 0
 553 626 528 660 485 660 c 2
 385 660 l 1
 359 500 l 1
EndSplineSet
Colour: ffff00
EndChar

StartChar: C
Encoding: 67 67 147
Width: 840
VWidth: 0
Flags: W
HStem: -20 240<411.263 611.763> 620 240<465.184 687.313>
VStem: 31 308<288.856 485.852>
LayerCount: 2
Fore
SplineSet
31 345 m 0
 31 369 33 395 37 420 c 0
 75 658 278 860 576 860 c 0
 775 860 880 760 880 760 c 1
 739 560 l 1
 739 560 681 620 578 620 c 0
 451 620 361 542 342 420 c 0
 340 406 339 393 339 380 c 0
 339 281 403 220 515 220 c 0
 618 220 694 280 694 280 c 1
 773 80 l 1
 773 80 636 -20 437 -20 c 0
 171 -20 31 141 31 345 c 0
EndSplineSet
Colour: ffff00
EndChar

StartChar: D
Encoding: 68 68 148
Width: 900
VWidth: 0
Flags: W
HStem: 0 210<313 462.896> 630 210<380 522.714>
VStem: 590 293<346.585 559.24>
LayerCount: 2
Fore
SplineSet
0 0 m 1
 133 840 l 1
 473 840 l 2
 747 840 883 695 883 496 c 0
 883 471 881 446 877 420 c 0
 839 182 648 0 340 0 c 2
 0 0 l 1
313 210 m 1
 363 210 l 2
 481 210 568 301 587 420 c 0
 589 435 590 449 590 463 c 0
 590 560 533 630 430 630 c 2
 380 630 l 1
 313 210 l 1
EndSplineSet
Colour: ffff00
EndChar

StartChar: E
Encoding: 69 69 149
Width: 790
VWidth: 0
Flags: W
HStem: 0 210<313 690> 310 200<361 689> 630 210<380 780>
LayerCount: 2
Fore
SplineSet
0 0 m 1
 133 840 l 1
 813 840 l 1
 780 630 l 1
 380 630 l 1
 361 510 l 1
 721 510 l 1
 689 310 l 1
 329 310 l 1
 313 210 l 1
 723 210 l 1
 690 0 l 1
 0 0 l 1
EndSplineSet
Colour: ffff00
EndChar

StartChar: F
Encoding: 70 70 150
Width: 740
VWidth: 0
Flags: W
HStem: 0 21G<0 293.185> 270 200<364 663> 630 210<390 760>
LayerCount: 2
Fore
SplineSet
0 0 m 1
 133 840 l 1
 793 840 l 1
 760 630 l 1
 390 630 l 1
 364 470 l 1
 694 470 l 1
 663 270 l 1
 333 270 l 1
 290 0 l 1
 0 0 l 1
EndSplineSet
Colour: ffff00
EndChar

StartChar: G
Encoding: 71 71 151
Width: 920
VWidth: 0
Flags: W
HStem: -20 210<408.824 591.275> 290 180<494 606> 620 240<464.501 704.426>
VStem: 31 302<264.411 485.852>
LayerCount: 2
Fore
SplineSet
31 345 m 0
 31 369 33 395 37 420 c 0
 75 658 278 860 576 860 c 0
 796 860 900 760 900 760 c 1
 759 560 l 1
 759 560 699 620 578 620 c 0
 451 620 356 542 337 420 c 0
 334 401 333 384 333 367 c 0
 333 253 399 190 510 190 c 0
 540 190 568 195 592 202 c 1
 606 290 l 1
 466 290 l 1
 494 470 l 1
 834 470 l 2
 871 470 887 462 887 432 c 0
 887 426 886 418 885 410 c 2
 841 130 l 1
 800 73 648 -20 437 -20 c 0
 171 -20 31 141 31 345 c 0
EndSplineSet
Colour: ffff00
EndChar

StartChar: H
Encoding: 72 72 152
Width: 920
VWidth: 0
Flags: W
HStem: 0 21G<0 283.172 520 803.167> 290 220<361 566> 820 20G<129.833 413 649.849 933>
LayerCount: 2
Fore
SplineSet
0 0 m 1
 133 840 l 1
 413 840 l 1
 361 510 l 1
 601 510 l 1
 653 840 l 1
 933 840 l 1
 800 0 l 1
 520 0 l 1
 566 290 l 1
 326 290 l 1
 280 0 l 1
 0 0 l 1
EndSplineSet
Colour: ffff00
EndChar

StartChar: I
Encoding: 73 73 153
Width: 400
VWidth: 0
Flags: W
HStem: 0 21G<0 283.167> 820 20G<129.833 413>
LayerCount: 2
Fore
SplineSet
0 0 m 1
 133 840 l 1
 413 840 l 1
 280 0 l 1
 0 0 l 1
EndSplineSet
Colour: ffff00
EndChar

StartChar: J
Encoding: 74 74 154
Width: 580
VWidth: 0
Flags: W
HStem: -10 210<67.2799 208.408> 820 20G<309.828 593>
LayerCount: 2
Fore
SplineSet
-57 80 m 1
 78 240 l 1
 95 222 128 200 162 200 c 0
 187 200 214 213 221 260 c 2
 313 840 l 1
 593 840 l 1
 498 240 l 2
 471 67 327 -10 188 -10 c 0
 49 -10 -38 53 -57 80 c 1
EndSplineSet
Colour: ffff00
EndChar

StartChar: K
Encoding: 75 75 155
Width: 890
VWidth: 0
Flags: W
HStem: 0 21G<0 283.188 501.312 830> 820 20G<129.833 413 608.871 933>
LayerCount: 2
Fore
SplineSet
0 0 m 1
 133 840 l 1
 413 840 l 1
 364 530 l 1
 404 530 l 1
 623 840 l 1
 933 840 l 1
 620 440 l 1
 830 0 l 1
 510 0 l 1
 371 320 l 1
 331 320 l 1
 280 0 l 1
 0 0 l 1
EndSplineSet
Colour: ffff00
EndChar

StartChar: L
Encoding: 76 76 156
Width: 660
VWidth: 0
Flags: W
HStem: 0 210<313 580> 820 20G<129.833 413>
LayerCount: 2
Fore
SplineSet
0 0 m 1
 133 840 l 1
 413 840 l 1
 313 210 l 1
 613 210 l 1
 580 0 l 1
 0 0 l 1
EndSplineSet
Colour: ffff00
EndChar

StartChar: M
Encoding: 77 77 157
Width: 1080
VWidth: 0
Flags: W
HStem: 0 21G<0 283.174 680 963.167> 820 20G<129.833 450.152 769.545 1093>
LayerCount: 2
Fore
SplineSet
0 0 m 1
 133 840 l 1
 443 840 l 1
 561 510 l 1
 783 840 l 1
 1093 840 l 1
 960 0 l 1
 680 0 l 1
 753 460 l 1
 559 180 l 1
 459 180 l 1
 353 460 l 1
 280 0 l 1
 0 0 l 1
EndSplineSet
Colour: ffff00
EndChar

StartChar: N
Encoding: 78 78 158
Width: 920
VWidth: 0
Flags: W
HStem: 0 21G<0 283.179 510.872 803.167> 820 20G<129.833 421.286 649.857 933>
LayerCount: 2
Fore
SplineSet
0 0 m 1
 133 840 l 1
 413 840 l 1
 587 420 l 1
 653 840 l 1
 933 840 l 1
 800 0 l 1
 520 0 l 1
 342 390 l 1
 280 0 l 1
 0 0 l 1
EndSplineSet
Colour: ffff00
EndChar

StartChar: O
Encoding: 79 79 159
Width: 1000
VWidth: 0
Flags: W
HStem: -20 240<387.941 570.542> 620 240<442.628 625.234>
VStem: 31 298<281.636 493.39> 685 298<346.61 551.144>
LayerCount: 2
Fore
SplineSet
31 345 m 0
 31 369 33 395 37 420 c 0
 75 658 278 860 576 860 c 0
 842 860 983 699 983 495 c 0
 983 471 981 445 977 420 c 0
 939 182 735 -20 437 -20 c 0
 171 -20 31 141 31 345 c 0
329 377 m 0
 329 280 387 220 475 220 c 0
 575 220 663 298 682 420 c 0
 684 435 685 449 685 463 c 0
 685 560 626 620 538 620 c 0
 438 620 351 542 332 420 c 0
 330 405 329 391 329 377 c 0
EndSplineSet
Colour: ffff00
EndChar

StartChar: P
Encoding: 80 80 160
Width: 870
VWidth: 0
Flags: W
HStem: 0 21G<0 283.167> 240 200<350 550.534> 640 200<381 573.125>
LayerCount: 2
Fore
SplineSet
0 0 m 1
 133 840 l 1
 573 840 l 2
 774 840 879 730 879 588 c 0
 879 572 879 556 876 540 c 0
 850 376 709 240 478 240 c 2
 318 240 l 1
 280 0 l 1
 0 0 l 1
350 440 m 1
 460 440 l 2
 541 440 587 483 596 540 c 0
 597 546 597 552 597 557 c 0
 597 605 560 640 491 640 c 2
 381 640 l 1
 350 440 l 1
EndSplineSet
Colour: ffff00
EndChar

StartChar: Q
Encoding: 81 81 161
Width: 1010
VWidth: 0
Flags: W
HStem: -20 240<387.941 518.188> 620 240<442.628 625.234>
VStem: 31 298<281.636 493.39> 685 298<348.209 551.144>
LayerCount: 2
Fore
SplineSet
31 345 m 0
 31 369 33 395 37 420 c 0
 75 658 278 860 576 860 c 0
 842 860 983 699 983 495 c 0
 983 471 981 445 977 420 c 0
 961 316 912 219 838 143 c 1
 901 70 l 1
 750 -60 l 1
 678 30 l 1
 607 -2 526 -20 437 -20 c 0
 171 -20 31 141 31 345 c 0
329 377 m 0
 329 280 387 220 475 220 c 0
 490 220 505 222 519 225 c 1
 445 315 l 1
 584 435 l 1
 660 347 l 1
 669 369 678 394 682 420 c 0
 684 435 685 449 685 463 c 0
 685 560 626 620 538 620 c 0
 438 620 351 542 332 420 c 0
 330 405 329 391 329 377 c 0
EndSplineSet
Colour: ffff00
EndChar

StartChar: R
Encoding: 82 82 162
Width: 900
VWidth: 0
Flags: W
HStem: 0 21G<0 283.167 510.667 840> 640 200<381 573.125>
LayerCount: 2
Fore
SplineSet
0 0 m 1
 133 840 l 1
 573 840 l 2
 774 840 879 730 879 588 c 0
 879 572 879 556 876 540 c 0
 859 433 792 338 685 285 c 1
 840 0 l 1
 520 0 l 1
 408 240 l 1
 318 240 l 1
 280 0 l 1
 0 0 l 1
350 440 m 1
 460 440 l 2
 541 440 587 483 596 540 c 0
 597 546 597 552 597 557 c 0
 597 605 560 640 491 640 c 2
 381 640 l 1
 350 440 l 1
EndSplineSet
Colour: ffff00
EndChar

StartChar: S
Encoding: 83 83 163
Width: 820
VWidth: 0
Flags: W
HStem: -20 210<239.92 449.353> 650 210<403.359 619.847>
LayerCount: 2
Fore
SplineSet
-17 80 m 1
 124 275 l 1
 188 227 290 190 370 190 c 0
 414 190 451 197 456 230 c 0
 456 232 457 235 457 237 c 0
 457 262 433 274 414 280 c 0
 359 297 268 328 216 355 c 0
 154 387 80 442 80 547 c 0
 80 559 81 572 83 585 c 0
 114 778 300 860 496 860 c 0
 675 860 803 780 830 760 c 1
 702 580 l 1
 639 630 541 650 473 650 c 0
 435 650 402 644 397 610 c 0
 397 608 396 606 396 604 c 0
 396 582 418 566 439 560 c 0
 514 536 555 523 609 500 c 0
 679 471 774 424 774 297 c 0
 774 282 773 267 770 250 c 0
 740 61 543 -20 347 -20 c 0
 150 -20 14 54 -17 80 c 1
EndSplineSet
Colour: ffff00
EndChar

StartChar: T
Encoding: 84 84 164
Width: 740
VWidth: 0
Flags: W
HStem: 0 21G<170 453.175> 630 210<93 270 550 760>
LayerCount: 2
Fore
SplineSet
60 630 m 1
 93 840 l 1
 793 840 l 1
 760 630 l 1
 550 630 l 1
 450 0 l 1
 170 0 l 1
 270 630 l 1
 60 630 l 1
EndSplineSet
Colour: ffff00
EndChar

StartChar: U
Encoding: 85 85 165
Width: 920
VWidth: 0
Flags: W
HStem: -20 210<355.424 514.253> 820 20G<129.821 413 649.83 933>
LayerCount: 2
Fore
SplineSet
40 232 m 0
 40 247 41 263 44 280 c 2
 133 840 l 1
 413 840 l 1
 329 310 l 2
 328 301 327 293 327 285 c 0
 327 223 369 190 430 190 c 0
 499 190 557 232 569 310 c 2
 653 840 l 1
 933 840 l 1
 844 280 l 2
 814 92 637 -20 397 -20 c 0
 178 -20 40 73 40 232 c 0
EndSplineSet
Colour: ffff00
EndChar

StartChar: V
Encoding: 86 86 166
Width: 980
VWidth: 0
Flags: W
HStem: 0 21G<265.548 600.786> 820 20G<83 386.148 733.556 1043>
LayerCount: 2
Fore
SplineSet
83 840 m 1
 383 840 l 1
 468 300 l 1
 468 270 l 1
 478 270 l 1
 488 300 l 1
 743 840 l 1
 1043 840 l 1
 590 0 l 1
 270 0 l 1
 83 840 l 1
EndSplineSet
Colour: ffff00
EndChar

StartChar: W
Encoding: 87 87 167
Width: 1370
VWidth: 0
Flags: W
HStem: 0 21G<216.738 537.714 718.667 1039.6> 820 20G<83 404.24 654.64 855.04 1105.44 1433>
LayerCount: 2
Fore
SplineSet
83 840 m 1
 403 840 l 1
 434 340 l 1
 434 310 l 1
 444 310 l 1
 454 340 l 1
 663 840 l 1
 853 840 l 1
 904 340 l 1
 904 310 l 1
 914 310 l 1
 924 340 l 1
 1113 840 l 1
 1433 840 l 1
 1030 0 l 1
 720 0 l 1
 692 420 l 1
 530 0 l 1
 220 0 l 1
 83 840 l 1
EndSplineSet
Colour: ffff00
EndChar

StartChar: X
Encoding: 88 88 168
Width: 940
VWidth: 0
Flags: W
HStem: 0 21G<-60 293.6 532.8 880> 820 20G<103 429.077 650.615 983>
LayerCount: 2
Fore
SplineSet
-60 0 m 1
 278 430 l 1
 103 840 l 1
 423 840 l 1
 502 580 l 1
 663 840 l 1
 983 840 l 1
 678 430 l 1
 880 0 l 1
 540 0 l 1
 450 250 l 1
 280 0 l 1
 -60 0 l 1
EndSplineSet
Colour: ffff00
EndChar

StartChar: Y
Encoding: 89 89 169
Width: 940
VWidth: 0
Flags: W
HStem: 0 21G<270 553.143> 820 20G<83 409.2 670.533 1003>
LayerCount: 2
Fore
SplineSet
83 840 m 1
 403 840 l 1
 496 540 l 1
 683 840 l 1
 1003 840 l 1
 594 280 l 1
 550 0 l 1
 270 0 l 1
 314 280 l 1
 83 840 l 1
EndSplineSet
Colour: ffff00
EndChar

StartChar: Z
Encoding: 90 90 170
Width: 830
VWidth: 0
Flags: W
HStem: 0 210<383 740> 630 210<133 460>
LayerCount: 2
Fore
SplineSet
-30 0 m 1
 -1 180 l 1
 460 630 l 1
 100 630 l 1
 133 840 l 1
 843 840 l 1
 813 650 l 1
 383 210 l 1
 773 210 l 1
 740 0 l 1
 -30 0 l 1
EndSplineSet
Colour: ffff00
EndChar

StartChar: bracketleft
Encoding: 91 91 171
Width: 480
VWidth: 0
Flags: W
HStem: -150 170<233 356> 700 170<341 491>
LayerCount: 2
Fore
SplineSet
-34 -150 m 1
 128 870 l 1
 518 870 l 1
 491 700 l 1
 341 700 l 1
 233 20 l 1
 383 20 l 1
 356 -150 l 1
 -34 -150 l 1
EndSplineSet
Colour: ffff00
EndChar

StartChar: backslash
Encoding: 92 92 172
Width: 600
VWidth: 0
Flags: W
HStem: 0 21G<295.31 510> 820 20G<103 317.69>
LayerCount: 2
Fore
SplineSet
103 840 m 1
 313 840 l 1
 510 0 l 1
 300 0 l 1
 103 840 l 1
EndSplineSet
Colour: ffff00
EndChar

StartChar: bracketright
Encoding: 93 93 173
Width: 480
VWidth: 0
Flags: W
HStem: -150 170<-17 133> 700 170<118 241>
LayerCount: 2
Fore
SplineSet
-44 -150 m 1
 -17 20 l 1
 133 20 l 1
 241 700 l 1
 91 700 l 1
 118 870 l 1
 508 870 l 1
 346 -150 l 1
 -44 -150 l 1
EndSplineSet
Colour: ffff00
EndChar

StartChar: asciicircum
Encoding: 94 94 174
Width: 600
VWidth: 0
Flags: W
HStem: 600 240
LayerCount: 2
Fore
SplineSet
35 600 m 1
 37 610 l 1
 288 840 l 1
 373 840 l 1
 458 840 l 1
 637 610 l 1
 635 600 l 1
 460 600 l 1
 349 690 l 1
 210 600 l 1
 35 600 l 1
EndSplineSet
Colour: ffff00
EndChar

StartChar: underscore
Encoding: 95 95 175
Width: 700
VWidth: 0
Flags: W
HStem: -180 180<-10 561>
LayerCount: 2
Fore
SplineSet
-39 -180 m 1
 -10 0 l 1
 590 0 l 1
 561 -180 l 1
 -39 -180 l 1
EndSplineSet
Colour: ffff00
EndChar

StartChar: grave
Encoding: 96 96 176
Width: 450
VWidth: 0
Flags: W
HStem: 600 240<295 303>
LayerCount: 2
Fore
SplineSet
51 830 m 1
 53 840 l 1
 303 840 l 1
 467 610 l 1
 465 600 l 1
 295 600 l 1
 51 830 l 1
EndSplineSet
Colour: ffff00
EndChar

StartChar: v
Encoding: 118 118 177
Width: 780
VWidth: 0
Flags: W
HStem: 0 21G<165.833 500.5> 580 20G<45 336.429 507.286 805>
LayerCount: 2
Fore
SplineSet
45 600 m 1
 335 600 l 1
 360 250 l 1
 360 220 l 1
 370 220 l 1
 380 250 l 1
 515 600 l 1
 805 600 l 1
 490 0 l 1
 170 0 l 1
 45 600 l 1
EndSplineSet
Colour: ffff00
EndChar

StartChar: w
Encoding: 119 119 178
Width: 1050
VWidth: 0
Flags: W
HStem: 0 21G<117.5 408.4 528 818.833> 580 20G<45 330.182 477 636.697 783.515 1075>
LayerCount: 2
Fore
SplineSet
45 600 m 1
 330 600 l 1
 333 270 l 1
 331 230 l 1
 341 230 l 1
 353 270 l 1
 485 600 l 1
 560 600 l 1
 635 600 l 1
 663 270 l 1
 661 230 l 1
 671 230 l 1
 683 270 l 1
 790 600 l 1
 1075 600 l 1
 810 0 l 1
 530 0 l 1
 505 250 l 1
 400 0 l 1
 120 0 l 1
 45 600 l 1
EndSplineSet
Colour: ffff00
EndChar

StartChar: x
Encoding: 120 120 179
Width: 760
VWidth: 0
Flags: W
HStem: 0 21G<-60 252.111 394.333 700> 580 20G<55 349.667 474.111 775>
LayerCount: 2
Fore
SplineSet
-60 0 m 1
 189 310 l 1
 55 600 l 1
 345 600 l 1
 387 420 l 1
 485 600 l 1
 775 600 l 1
 549 310 l 1
 700 0 l 1
 400 0 l 1
 349 180 l 1
 240 0 l 1
 -60 0 l 1
EndSplineSet
Colour: ffff00
EndChar

StartChar: y
Encoding: 121 121 180
Width: 780
VWidth: 0
Flags: W
HStem: -260 170<28.7396 207.271> 580 20G<45 336.429 507.286 805>
LayerCount: 2
Fore
SplineSet
-45 -220 m 1
 40 -60 l 1
 40 -60 80 -90 136 -90 c 0
 201 -90 224 -54 249 -3 c 1
 198 9 161 41 144 120 c 1
 45 600 l 1
 335 600 l 1
 360 250 l 1
 360 220 l 1
 365 220 l 1
 370 220 l 1
 380 250 l 1
 515 600 l 1
 805 600 l 1
 490 0 l 1
 399 -210 268 -260 149 -260 c 0
 64 -260 -4 -240 -45 -220 c 1
EndSplineSet
Colour: ffff00
EndChar

StartChar: braceleft
Encoding: 123 123 181
Width: 480
VWidth: 0
Flags: W
HStem: 700 170<408.448 501>
VStem: 58 252<-67.5 99.5469> 91 245<39.6573 285.826>
LayerCount: 2
Fore
SplineSet
2 330 m 1xa0
 7 360 l 1
 12 390 l 1
 12 390 127 420 146 540 c 2
 174 720 l 2
 189 816 264 870 358 870 c 2
 528 870 l 1
 501 700 l 1
 451 700 l 2
 415 700 408 685 401 640 c 2
 381 510 l 2
 363 395 277 360 277 360 c 1
 277 360 336 332 336 245 c 0xa0
 336 234 335 223 333 210 c 2
 313 80 l 2
 311 67 310 56 310 48 c 0
 310 27 317 20 343 20 c 2
 393 20 l 1
 366 -150 l 1
 196 -150 l 2
 112 -150 58 -106 58 -29 c 0xc0
 58 -20 58 -10 60 0 c 2
 89 180 l 2
 91 190 91 199 91 208 c 0
 91 305 2 330 2 330 c 1xa0
EndSplineSet
Colour: ffff00
EndChar

StartChar: bar
Encoding: 124 124 182
Width: 360
VWidth: 0
Flags: W
VStem: -9 372
LayerCount: 2
Fore
SplineSet
-9 -150 m 1
 153 870 l 1
 363 870 l 1
 201 -150 l 1
 -9 -150 l 1
EndSplineSet
Colour: ffff00
EndChar

StartChar: braceright
Encoding: 125 125 183
Width: 480
VWidth: 0
Flags: W
HStem: -150 170<-27 65.5525>
VStem: 138 245<434.174 661.832> 165 252<621.469 787.5>
LayerCount: 2
Fore
SplineSet
-54 -150 m 1xc0
 -27 20 l 1
 23 20 l 2
 59 20 66 35 73 80 c 2
 93 210 l 2
 111 325 197 360 197 360 c 1
 197 360 138 388 138 475 c 0xc0
 138 486 139 497 141 510 c 2
 161 640 l 2
 163 653 165 664 165 672 c 0
 165 693 157 700 131 700 c 2
 81 700 l 1
 108 870 l 1
 278 870 l 2
 362 870 417 826 417 749 c 0xa0
 417 740 416 730 414 720 c 2
 386 540 l 2
 384 530 383 521 383 512 c 0
 383 415 472 390 472 390 c 1
 467 360 l 1
 462 330 l 1
 462 330 348 300 329 180 c 2
 300 0 l 2
 285 -96 210 -150 116 -150 c 2
 -54 -150 l 1xc0
EndSplineSet
Colour: ffff00
EndChar

StartChar: asciitilde
Encoding: 126 126 184
Width: 650
VWidth: 0
Flags: W
HStem: 240 180<349.777 483.215> 300 180<161.048 294.232>
LayerCount: 2
Fore
SplineSet
28 300 m 1x40
 74 437 156 480 236 480 c 0x40
 283 480 309 466 341 450 c 1
 379 433 404 420 437 420 c 0x80
 465 420 486 443 506 480 c 1x40
 617 420 l 1
 571 283 488 240 408 240 c 0x80
 361 240 335 254 303 270 c 1
 265 287 241 300 208 300 c 0x40
 180 300 158 277 138 240 c 1x80
 28 300 l 1x40
EndSplineSet
Colour: ffff00
EndChar

StartChar: Euro
Encoding: 8364 8364 185
Width: 810
VWidth: 0
Flags: W
HStem: -20 240<435.366 614.28> 275 120<23 85.1539 410 584> 445 120<49 90 455 610> 620 240<490.654 679.997>
LayerCount: 2
Fore
SplineSet
4 275 m 1
 23 395 l 1
 83 395 l 1
 84 403 86 412 87 420 c 0
 88 428 89 437 90 445 c 1
 30 445 l 1
 49 565 l 1
 127 565 l 1
 199 735 351 860 586 860 c 0
 785 860 860 760 860 760 c 1
 719 560 l 1
 719 560 681 620 588 620 c 0
 529 620 486 600 455 565 c 1
 629 565 l 1
 610 445 l 1
 401 445 l 1
 399 437 398 429 397 420 c 0
 396 411 394 403 394 395 c 1
 603 395 l 1
 584 275 l 1
 410 275 l 1
 429 240 466 220 525 220 c 0
 618 220 674 280 674 280 c 1
 753 80 l 1
 753 80 646 -20 447 -20 c 0
 212 -20 100 105 82 275 c 1
 4 275 l 1
EndSplineSet
Colour: ffff00
EndChar

StartChar: quoteleft
Encoding: 8216 8216 186
Width: 360
VWidth: 0
Flags: W
HStem: 770 90<305.055 376>
VStem: 73 309
LayerCount: 2
Fore
SplineSet
73 460 m 1
 100 630 l 2
 124 784 248 860 376 860 c 1
 382 770 l 1
 335 770 276 746 255 660 c 1
 345 660 l 1
 313 460 l 1
 73 460 l 1
EndSplineSet
Colour: ff00ff
EndChar

StartChar: quoteright
Encoding: 8217 8217 187
Width: 360
VWidth: 0
Flags: W
HStem: 440 90<70 140.945> 820 20G<129.8 373>
VStem: 64 309
LayerCount: 2
Fore
SplineSet
64 530 m 1
 111 530 170 554 191 640 c 1
 101 640 l 1
 133 840 l 1
 373 840 l 1
 346 670 l 2
 322 516 198 440 70 440 c 1
 64 530 l 1
EndSplineSet
Colour: ff00ff
EndChar

StartChar: quotedblleft
Encoding: 8220 8220 188
Width: 660
VWidth: 0
Flags: W
HStem: 460 200<255 313 555 613> 770 90<305.055 376 605.055 676>
LayerCount: 2
Fore
SplineSet
73 460 m 1
 100 630 l 2
 124 784 248 860 376 860 c 1
 382 770 l 1
 335 770 276 746 255 660 c 1
 345 660 l 1
 313 460 l 1
 73 460 l 1
373 460 m 1
 400 630 l 2
 424 784 548 860 676 860 c 1
 682 770 l 1
 635 770 576 746 555 660 c 1
 645 660 l 1
 613 460 l 1
 373 460 l 1
EndSplineSet
Colour: ff00ff
EndChar

StartChar: quotedblright
Encoding: 8221 8221 189
Width: 660
VWidth: 0
Flags: W
HStem: 440 90<70 140.945 370 440.945> 640 200<133 191 433 491>
LayerCount: 2
Fore
SplineSet
64 530 m 1
 111 530 170 554 191 640 c 1
 101 640 l 1
 133 840 l 1
 373 840 l 1
 346 670 l 2
 322 516 198 440 70 440 c 1
 64 530 l 1
364 530 m 1
 411 530 470 554 491 640 c 1
 401 640 l 1
 433 840 l 1
 673 840 l 1
 646 670 l 2
 622 516 498 440 370 440 c 1
 364 530 l 1
EndSplineSet
Colour: ff00ff
EndChar

StartChar: bullet
Encoding: 8226 8226 190
Width: 400
VWidth: 0
Flags: W
HStem: 210 300<133.337 260.663>
VStem: 45 304<298.202 421.798>
LayerCount: 2
Fore
SplineSet
45 336 m 0
 45 344 46 352 47 360 c 0
 60 443 138 510 221 510 c 0
 296 510 349 456 349 384 c 0
 349 376 348 368 347 360 c 0
 334 277 256 210 173 210 c 0
 98 210 45 264 45 336 c 0
EndSplineSet
Colour: ffff00
EndChar

StartChar: endash
Encoding: 8211 8211 191
Width: 770
VWidth: 0
Flags: W
HStem: 270 180<61 713>
LayerCount: 2
Fore
SplineSet
33 270 m 1
 61 450 l 1
 741 450 l 1
 713 270 l 1
 33 270 l 1
EndSplineSet
Colour: ffff00
EndChar

StartChar: emdash
Encoding: 8212 8212 192
Width: 1100
VWidth: 0
Flags: W
HStem: 270 180<61 1043>
LayerCount: 2
Fore
SplineSet
33 270 m 1
 61 450 l 1
 1071 450 l 1
 1043 270 l 1
 33 270 l 1
EndSplineSet
Colour: ffff00
EndChar

StartChar: ellipsis
Encoding: 8230 8230 193
Width: 1020
VWidth: 0
Flags: W
HStem: 0 200<32 240 362 570 692 900>
LayerCount: 2
Fore
SplineSet
0 0 m 1
 32 200 l 1
 272 200 l 1
 240 0 l 1
 0 0 l 1
330 0 m 1
 362 200 l 1
 602 200 l 1
 570 0 l 1
 330 0 l 1
660 0 m 1
 692 200 l 1
 932 200 l 1
 900 0 l 1
 660 0 l 1
EndSplineSet
Colour: ffff00
EndChar

StartChar: uni0E33.alt
Encoding: 60979 60979 195
Width: 540
VWidth: 0
Flags: W
HStem: 0 21G<150 433.158> 410 200<120.286 358.5> 670 90<-505.171 -434.041> 850 90<-501.428 -429.829>
VStem: -644 136<761.802 843.529> -427 136<766.471 848.198> 208 287<248.438 495.5>
LayerCount: 2
Fore
SplineSet
-644 783 m 0
 -644 790 -644 797 -643 805 c 0
 -630 884 -560 940 -446 940 c 0
 -343 940 -291 894 -291 827 c 0
 -291 820 -292 813 -293 805 c 0
 -306 726 -375 670 -489 670 c 0
 -592 670 -644 716 -644 783 c 0
-508 795 m 0
 -508 772 -494 760 -475 760 c 0
 -453 760 -433 775 -428 805 c 0
 -427 809 -427 812 -427 815 c 0
 -427 838 -441 850 -460 850 c 0
 -482 850 -503 835 -508 805 c 0
 -509 801 -508 798 -508 795 c 0
26 540 m 1
 26 540 121 610 287 610 c 0
 430 610 495 552 495 439 c 0
 495 421 493 401 490 380 c 2
 430 0 l 1
 150 0 l 1
 207 360 l 2
 208 366 208 371 208 376 c 0
 208 401 195 410 165 410 c 0
 129 410 74 394 50 380 c 1
 26 540 l 1
EndSplineSet
Colour: ffff00
EndChar

StartChar: uni0E31.left
Encoding: 60977 60977 196
Width: 0
VWidth: 0
Flags: W
HStem: 690 150<-522 -331>
LayerCount: 2
Fore
SplineSet
-738 765 m 0
 -738 770 -737 775 -736 780 c 0
 -727 836 -682 900 -682 900 c 1
 -492 900 l 1
 -522 840 l 1
 -307 840 l 1
 -331 690 l 1
 -641 690 l 2
 -697 690 -738 716 -738 765 c 0
EndSplineSet
Colour: ffff00
EndChar

StartChar: uni0E34.left
Encoding: 60980 60980 197
Width: 0
VWidth: 0
Flags: W
HStem: 690 150<-737 -341>
LayerCount: 2
Fore
SplineSet
-761 690 m 1
 -737 840 l 1
 -317 840 l 1
 -341 690 l 1
 -761 690 l 1
EndSplineSet
Colour: ffff00
EndChar

StartChar: uni0E35.left
Encoding: 60981 60981 198
Width: 0
VWidth: 0
Flags: W
HStem: 690 230<-474 -321> 690 150<-747 -503.253>
LayerCount: 2
Fore
SplineSet
-771 690 m 1x40
 -747 840 l 1
 -567 840 l 2x40
 -511 840 -493 800 -493 800 c 1
 -474 920 l 1
 -284 920 l 1
 -321 690 l 1x80
 -771 690 l 1x40
EndSplineSet
Colour: ffff00
EndChar

StartChar: uni0E36.left
Encoding: 60982 60982 199
Width: 0
VWidth: 0
Flags: W
HStem: 690 150<-757 -563.092> 690 80<-457.861 -393.522> 850 80<-451.753 -386.811>
VStem: -553 95<798.154 844.876> -386 96<775.124 849.883>
LayerCount: 2
Fore
SplineSet
-781 690 m 1x78
 -757 840 l 1
 -607 840 l 2xb8
 -581 840 -564 819 -553 798 c 1
 -553 802 -553 806 -552 810 c 0
 -541 882 -479 930 -403 930 c 0
 -335 930 -290 891 -290 831 c 0
 -290 824 -291 817 -292 810 c 0
 -303 738 -365 690 -441 690 c 2
 -781 690 l 1x78
-458 800 m 0
 -458 780 -446 770 -428 770 c 0x78
 -407 770 -391 784 -387 810 c 0
 -386 813 -386 817 -386 820 c 0
 -386 840 -397 850 -415 850 c 0
 -436 850 -453 836 -457 810 c 0
 -458 807 -458 803 -458 800 c 0
EndSplineSet
Colour: ffff00
EndChar

StartChar: uni0E37.left
Encoding: 60983 60983 200
Width: 0
VWidth: 0
Flags: W
HStem: 690 230<-594 -485 -414 -321> 690 150<-757 -621.113> 690 100<-485 -435>
LayerCount: 2
Fore
SplineSet
-781 690 m 1x20
 -757 840 l 1
 -677 840 l 2x40
 -626 840 -613 800 -613 800 c 1
 -594 920 l 1
 -464 920 l 1x80
 -485 790 l 1
 -435 790 l 1x20
 -414 920 l 1
 -284 920 l 1
 -321 690 l 1x80
 -781 690 l 1x20
EndSplineSet
Colour: ffff00
EndChar

StartChar: uni0E38.low
Encoding: 60984 60984 201
Width: 0
VWidth: -200
Flags: W
HStem: -490 220<-402 -218>
VStem: -452 260
LayerCount: 2
Fore
SplineSet
-452 -390 m 1
 -433 -270 l 1
 -243 -270 l 2
 -211 -270 -192 -289 -192 -318 c 0
 -192 -322 -191 -326 -192 -330 c 2
 -218 -490 l 1
 -418 -490 l 1
 -402 -390 l 1
 -452 -390 l 1
EndSplineSet
Colour: ffff00
EndChar

StartChar: uni0E39.low
Encoding: 60985 60985 202
Width: 0
VWidth: 0
Flags: W
HStem: -490 220<-621.291 -443.36 -353 -216.457> -490 90<-443 -373>
LayerCount: 2
Fore
SplineSet
-672 -390 m 1x80
 -653 -270 l 1
 -483 -270 l 2x80
 -451 -270 -431 -289 -431 -318 c 0
 -431 -322 -431 -326 -432 -330 c 2
 -443 -400 l 1
 -373 -400 l 1x40
 -353 -270 l 1
 -173 -270 l 1
 -198 -430 l 2
 -204 -465 -238 -490 -298 -490 c 2
 -548 -490 l 2
 -603 -490 -629 -469 -629 -439 c 0
 -629 -436 -628 -433 -628 -430 c 2
 -622 -390 l 1
 -672 -390 l 1x80
EndSplineSet
Colour: ffff00
EndChar

StartChar: uni0E3A.low
Encoding: 60986 60986 203
Width: 0
VWidth: 0
Flags: W
HStem: -430 160<-403 -228>
VStem: -428 225
LayerCount: 2
Fore
SplineSet
-428 -430 m 1
 -403 -270 l 1
 -203 -270 l 1
 -228 -430 l 1
 -428 -430 l 1
EndSplineSet
Colour: ffff00
EndChar

StartChar: uni0E47.left
Encoding: 60999 60999 204
Width: 0
VWidth: 0
Flags: W
HStem: 670 115<-651.5 -508.937> 680 140<-452 -340> 865 115<-576.738 -283>
VStem: -751 167<788.112 858.496>
LayerCount: 2
Fore
SplineSet
-751 798 m 0xb0
 -751 807 -750 816 -749 825 c 0
 -736 907 -668 980 -550 980 c 2
 -265 980 l 1
 -283 865 l 1
 -528 865 l 2
 -555 865 -580 852 -584 825 c 0
 -584 823 -584 820 -584 818 c 0
 -584 796 -566 785 -541 785 c 0xb0
 -506 785 -492 804 -485 820 c 1
 -340 820 l 1
 -301 690 l 1
 -302 680 l 1
 -452 680 l 1x70
 -467 741 l 1
 -489 705 -529 670 -599 670 c 0
 -704 670 -751 727 -751 798 c 0xb0
EndSplineSet
Colour: ffff00
EndChar

StartChar: uni0E4D.high
Encoding: 61005 61005 205
Width: 0
VWidth: 300
Flags: W
HStem: 920 75<-150.202 -86.5602> 1075 75<-145.44 -81.3052>
VStem: -267 116<995.283 1069.75> -80 116<1000.25 1074.72>
AnchorPoint: "th-mkmk" -60 0 mark 0
LayerCount: 2
Fore
SplineSet
-267 1018 m 0
 -267 1024 -267 1029 -266 1035 c 0
 -256 1100 -193 1150 -98 1150 c 0
 -12 1150 36 1108 36 1052 c 0
 36 1046 35 1041 34 1035 c 0
 24 970 -39 920 -134 920 c 0
 -220 920 -267 962 -267 1018 c 0
-151 1026 m 0
 -151 1007 -141 995 -122 995 c 0
 -100 995 -85 1011 -81 1035 c 0
 -80 1038 -80 1041 -80 1044 c 0
 -80 1063 -91 1075 -110 1075 c 0
 -132 1075 -147 1059 -151 1035 c 0
 -152 1032 -151 1029 -151 1026 c 0
EndSplineSet
Substitution2: "TH Nikhahit High-Left" uni0E4D.high.left
Colour: ffff00
EndChar

StartChar: uni0E48.low
Encoding: 61000 61000 206
Width: 0
VWidth: 0
Flags: W
HStem: 690 230<-204 -41>
VStem: -241 236
AnchorPoint: "th-vow-above" -25 660 mark 0
LayerCount: 2
Fore
SplineSet
-241 690 m 1
 -204 920 l 1
 -5 920 l 1
 -41 690 l 1
 -241 690 l 1
EndSplineSet
Substitution2: "TH Tone Low to High" uni0E48
Colour: ffff00
EndChar

StartChar: uni0E49.low
Encoding: 61001 61001 207
Width: 0
VWidth: 0
Flags: W
HStem: 690 120<-177 -21> 810 110<-354 -312>
AnchorPoint: "th-vow-above" -25 660 mark 0
LayerCount: 2
Fore
SplineSet
-405 723 m 0x80
 -405 725 -404 728 -404 730 c 0
 -401 747 -388 759 -373 770 c 1
 -312 810 l 1
 -372 810 l 1
 -354 920 l 1
 -144 920 l 2x40
 -121 920 -110 903 -110 886 c 0
 -110 884 -111 882 -111 880 c 0
 -114 861 -126 848 -137 840 c 2
 -177 810 l 1x80
 -2 810 l 1x40
 -21 690 l 1
 -371 690 l 2
 -393 690 -405 705 -405 723 c 0x80
EndSplineSet
Substitution2: "TH Tone Low to High" uni0E49
Colour: ffff00
EndChar

StartChar: uni0E4A.low
Encoding: 61002 61002 208
Width: 0
VWidth: 0
Flags: W
HStem: 690 230<-234 -85> 690 100<-85 -21> 810 120<-377 -278.983>
VStem: -500 168<690 804.266>
AnchorPoint: "th-vow-above" -25 660 mark 0
LayerCount: 2
Fore
SplineSet
-500 737 m 0x70
 -500 750 -498 765 -496 780 c 0
 -482 869 -416 930 -338 930 c 0x70
 -291 930 -263 892 -245 851 c 1
 -234 920 l 1
 -64 920 l 1x90
 -85 790 l 1
 -5 790 l 1
 -21 690 l 1
 -271 690 l 1
 -259 763 l 1
 -269 789 -284 810 -297 810 c 0
 -317 810 -327 782 -330 760 c 0
 -331 751 -332 743 -332 735 c 0
 -332 715 -328 698 -326 690 c 1
 -496 690 l 1
 -498 700 -500 717 -500 737 c 0x70
EndSplineSet
Substitution2: "TH Tone Low to High" uni0E4A
Colour: ffff00
EndChar

StartChar: uni0E4B.low
Encoding: 61003 61003 209
Width: 0
VWidth: 0
Flags: W
HStem: 690 230<-199 -66> 755 100<-295 -225 -40 30>
VStem: -310 356
AnchorPoint: "th-vow-above" -25 660 mark 0
LayerCount: 2
Fore
SplineSet
-310 755 m 1x60
 -295 855 l 1
 -210 855 l 1x60
 -199 920 l 1
 -29 920 l 1xa0
 -40 855 l 1
 46 855 l 1
 30 755 l 1
 -55 755 l 1x60
 -66 690 l 1
 -236 690 l 1xa0
 -225 755 l 1
 -310 755 l 1x60
EndSplineSet
Substitution2: "TH Tone Low to High" uni0E4B
Colour: ffff00
EndChar

StartChar: uni0E4C.low
Encoding: 61004 61004 210
Width: 0
VWidth: 0
Flags: W
VStem: -312 356
AnchorPoint: "th-vow-above" -25 660 mark 0
LayerCount: 2
Fore
SplineSet
-312 796 m 0
 -312 804 -311 812 -310 820 c 0
 -301 878 -247 910 -186 910 c 2
 44 910 l 1
 22 770 l 1
 -133 770 l 1
 -118 710 l 1
 -293 710 l 1
 -293 710 -312 749 -312 796 c 0
EndSplineSet
Substitution2: "TH Tone Low to High" uni0E4C
Colour: ffff00
EndChar

StartChar: uni0E48.low.left
Encoding: 986696 986696 211
Width: 0
VWidth: 0
Flags: W
HStem: 690 230<-524 -361>
VStem: -561 236
LayerCount: 2
Fore
SplineSet
-561 690 m 1
 -524 920 l 1
 -325 920 l 1
 -361 690 l 1
 -561 690 l 1
EndSplineSet
Colour: ffff00
EndChar

StartChar: uni0E49.low.left
Encoding: 986697 986697 212
Width: 0
VWidth: 0
Flags: W
HStem: 690 120<-477 -321> 810 110<-654 -612>
LayerCount: 2
Fore
SplineSet
-705 723 m 0x80
 -705 725 -704 728 -704 730 c 0
 -701 747 -688 759 -673 770 c 1
 -612 810 l 1
 -672 810 l 1
 -654 920 l 1
 -444 920 l 2x40
 -421 920 -410 903 -410 886 c 0
 -410 884 -411 882 -411 880 c 0
 -414 861 -426 848 -437 840 c 2
 -477 810 l 1x80
 -302 810 l 1x40
 -321 690 l 1
 -671 690 l 2
 -693 690 -705 705 -705 723 c 0x80
EndSplineSet
Colour: ffff00
EndChar

StartChar: uni0E4A.low.left
Encoding: 986698 986698 213
Width: 0
VWidth: 0
Flags: W
HStem: 690 230<-494 -365> 690 100<-365 -311> 815 115<-627 -533.729>
VStem: -740 148<690 811.998>
LayerCount: 2
Fore
SplineSet
-740 737 m 0x70
 -740 750 -738 765 -736 780 c 0
 -722 869 -666 930 -588 930 c 0x70
 -539 930 -517 887 -506 844 c 1
 -494 920 l 1
 -344 920 l 1x90
 -365 790 l 1
 -295 790 l 1
 -311 690 l 1
 -531 690 l 1
 -522 746 l 1
 -528 782 -541 815 -556 815 c 0
 -576 815 -585 791 -590 760 c 0
 -591 751 -592 743 -592 735 c 0
 -592 715 -588 698 -586 690 c 1
 -736 690 l 1
 -738 700 -740 717 -740 737 c 0x70
EndSplineSet
Colour: ffff00
EndChar

StartChar: uni0E4B.low.left
Encoding: 986699 986699 214
Width: 0
VWidth: 0
Flags: W
HStem: 690 230<-549 -416> 755 100<-645 -575 -390 -320>
VStem: -660 356
LayerCount: 2
Fore
SplineSet
-660 755 m 1x60
 -645 855 l 1
 -560 855 l 1x60
 -549 920 l 1
 -379 920 l 1xa0
 -390 855 l 1
 -304 855 l 1
 -320 755 l 1
 -405 755 l 1x60
 -416 690 l 1
 -586 690 l 1xa0
 -575 755 l 1
 -660 755 l 1x60
EndSplineSet
Colour: ffff00
EndChar

StartChar: uni0E4C.low.left
Encoding: 986700 986700 215
Width: 0
VWidth: 0
Flags: W
VStem: -652 356
LayerCount: 2
Fore
SplineSet
-652 796 m 0
 -652 804 -651 812 -650 820 c 0
 -641 878 -587 910 -526 910 c 2
 -296 910 l 1
 -318 770 l 1
 -473 770 l 1
 -458 710 l 1
 -633 710 l 1
 -633 710 -652 749 -652 796 c 0
EndSplineSet
Colour: ffff00
EndChar

StartChar: uni0E4D.low.left
Encoding: 986701 986701 216
Width: 0
VWidth: 0
Flags: W
HStem: 670 90<-505.171 -434.041> 850 90<-501.428 -429.829>
VStem: -644 136<761.802 843.529> -427 136<766.471 848.198>
LayerCount: 2
Fore
SplineSet
-644 783 m 0
 -644 790 -644 797 -643 805 c 0
 -630 884 -560 940 -446 940 c 0
 -343 940 -291 894 -291 827 c 0
 -291 820 -292 813 -293 805 c 0
 -306 726 -375 670 -489 670 c 0
 -592 670 -644 716 -644 783 c 0
-508 795 m 0
 -508 772 -494 760 -475 760 c 0
 -453 760 -433 775 -428 805 c 0
 -427 809 -427 812 -427 815 c 0
 -427 838 -441 850 -460 850 c 0
 -482 850 -503 835 -508 805 c 0
 -509 801 -508 798 -508 795 c 0
EndSplineSet
Colour: ffff00
EndChar

StartChar: uni0E48.high.left
Encoding: 1044040 1044040 217
Width: 0
VWidth: 0
Flags: W
HStem: 960 210<-430 -283>
VStem: -463 213
LayerCount: 2
Fore
SplineSet
-463 960 m 1
 -430 1170 l 1
 -250 1170 l 1
 -283 960 l 1
 -463 960 l 1
EndSplineSet
Colour: ffff00
EndChar

StartChar: uni0E49.high.left
Encoding: 1044041 1044041 218
Width: 0
VWidth: 0
Flags: W
HStem: 960 110<-366 -218> 1080 90<-535 -489>
VStem: -572 371
LayerCount: 2
Fore
SplineSet
-572 993 m 0
 -572 995 -572 998 -572 1000 c 0
 -569 1017 -560 1029 -545 1040 c 2
 -489 1080 l 1
 -549 1080 l 1
 -535 1170 l 1
 -335 1170 l 2
 -312 1170 -300 1156 -300 1140 c 0
 -300 1138 -300 1137 -300 1135 c 0
 -302 1121 -309 1113 -320 1105 c 2
 -366 1070 l 1
 -201 1070 l 1
 -218 960 l 1
 -538 960 l 2
 -560 960 -572 975 -572 993 c 0
EndSplineSet
Colour: ffff00
EndChar

StartChar: uni0E4A.high.left
Encoding: 1044042 1044042 219
Width: 0
VWidth: 0
Flags: W
HStem: 960 210<-375 -244> 960 90<-244 -178> 1070 110<-508.5 -415.805>
VStem: -620 156<960 1065.79>
LayerCount: 2
Fore
SplineSet
-620 988 m 0x70
 -620 1000 -619 1015 -617 1030 c 0
 -603 1119 -544 1180 -473 1180 c 0x70
 -430 1180 -404 1146 -385 1108 c 1
 -375 1170 l 1
 -225 1170 l 1x90
 -244 1050 l 1
 -164 1050 l 1
 -178 960 l 1
 -408 960 l 1
 -397 1026 l 1
 -407 1051 -418 1070 -431 1070 c 0
 -451 1070 -460 1036 -463 1020 c 0
 -464 1014 -464 1009 -464 1003 c 0
 -464 984 -461 968 -458 960 c 1
 -618 960 l 1
 -620 968 -620 977 -620 988 c 0x70
EndSplineSet
Colour: ffff00
EndChar

StartChar: uni0E4B.high.left
Encoding: 1044043 1044043 220
Width: 0
VWidth: 0
Flags: W
HStem: 960 210<-420 -293> 1020 90<-509 -443 -269 -203>
VStem: -523 334
LayerCount: 2
Fore
SplineSet
-523 1020 m 1x60
 -509 1110 l 1
 -429 1110 l 1x60
 -420 1170 l 1
 -260 1170 l 1xa0
 -269 1110 l 1
 -189 1110 l 1
 -203 1020 l 1
 -283 1020 l 1x60
 -293 960 l 1
 -453 960 l 1xa0
 -443 1020 l 1
 -523 1020 l 1x60
EndSplineSet
Colour: ffff00
EndChar

StartChar: uni0E4C.high.left
Encoding: 1044044 1044044 221
Width: 0
VWidth: 0
Flags: W
HStem: 990 120<-318 -183>
VStem: -478 314
LayerCount: 2
Fore
SplineSet
-478 1013 m 0
 -478 1019 -478 1024 -477 1030 c 0
 -468 1088 -425 1110 -364 1110 c 2
 -164 1110 l 1
 -183 990 l 1
 -318 990 l 1
 -298 930 l 1
 -448 930 l 1
 -448 930 -478 965 -478 1013 c 0
EndSplineSet
Colour: ffff00
EndChar

StartChar: uni0E4D.high.left
Encoding: 1044045 1044045 222
Width: 0
VWidth: 300
Flags: W
HStem: 920 75<-410.202 -346.56> 1075 75<-405.44 -341.305>
VStem: -527 116<995.283 1069.75> -340 116<1000.25 1074.72>
LayerCount: 2
Fore
SplineSet
-527 1018 m 0
 -527 1024 -527 1029 -526 1035 c 0
 -516 1100 -453 1150 -358 1150 c 0
 -272 1150 -224 1108 -224 1052 c 0
 -224 1046 -225 1041 -226 1035 c 0
 -236 970 -299 920 -394 920 c 0
 -480 920 -527 962 -527 1018 c 0
-411 1026 m 0
 -411 1007 -401 995 -382 995 c 0
 -360 995 -345 1011 -341 1035 c 0
 -340 1038 -340 1041 -340 1044 c 0
 -340 1063 -351 1075 -370 1075 c 0
 -392 1075 -407 1059 -411 1035 c 0
 -412 1032 -411 1029 -411 1026 c 0
EndSplineSet
Colour: ffff00
EndChar

StartChar: a.alt
Encoding: 983137 983137 223
Width: 790
VWidth: 0
Flags: W
HStem: -10 190<179.5 388> 0 21G<430 683.167> 420 190<345.897 454.574> 580 20G<521.829 775>
LayerCount: 2
Fore
SplineSet
13 241 m 0x80
 13 260 15 280 18 300 c 0
 45 471 179 610 357 610 c 0xa0
 438 610 485 571 512 518 c 1
 525 600 l 1
 775 600 l 1
 680 0 l 1
 430 0 l 1x50
 443 82 l 1
 400 29 339 -10 258 -10 c 0
 101 -10 13 98 13 241 c 0x80
295 269 m 0
 295 210 328 180 369 180 c 0
 407 180 430 198 446 228 c 1
 469 372 l 1
 463 402 445 420 407 420 c 0
 359 420 311 380 298 300 c 0
 296 289 295 279 295 269 c 0
EndSplineSet
Colour: ffff00
EndChar

StartChar: g.alt
Encoding: 983143 983143 224
Width: 790
VWidth: 0
Flags: W
HStem: -260 180<144.072 384.855> -10 190<179.5 388> 420 190<345.897 454.574> 580 20G<521.829 775>
LayerCount: 2
Fore
SplineSet
13 241 m 0xd0
 13 260 15 280 18 300 c 0
 45 471 179 610 357 610 c 0xe0
 438 610 485 571 512 518 c 1
 525 600 l 1
 775 600 l 1
 683 20 l 2
 655 -156 541 -260 309 -260 c 0
 205 -260 135 -239 75 -220 c 1
 152 -50 l 1
 183 -68 233 -80 297 -80 c 0
 355 -80 411 -59 420 0 c 2
 431 68 l 1
 389 23 332 -10 258 -10 c 0
 101 -10 13 98 13 241 c 0xd0
295 269 m 0
 295 210 328 180 369 180 c 0
 407 180 430 198 446 228 c 1
 469 372 l 1
 463 402 445 420 407 420 c 0
 359 420 311 380 298 300 c 0
 296 289 295 279 295 269 c 0
EndSplineSet
Colour: ffff00
EndChar

StartChar: uni25CC
Encoding: 9676 9676 228
Width: 720
VWidth: 0
Flags: W
HStem: -20 60<276 327> 270 60<32 83 612 663> 560 60<368 419> 587 20G<249.696 306.091 479.364 535.348>
LayerCount: 2
Fore
SplineSet
23 270 m 1xc0
 32 330 l 1
 92 330 l 1
 83 270 l 1
 23 270 l 1xc0
25 205 m 1
 84 228 l 1
 98 173 l 1
 40 150 l 1
 25 205 l 1
56 395 m 1
 87 450 l 1
 139 427 l 1
 107 372 l 1
 56 395 l 1
68 95 m 1
 117 137 l 1
 152 95 l 1
 103 53 l 1
 68 95 l 1
133 505 m 1
 182 547 l 1
 217 505 l 1
 168 463 l 1
 133 505 l 1
153 16 m 1
 184 71 l 1
 236 48 l 1
 204 -7 l 1
 153 16 l 1
242 584 m 1
 301 607 l 1xd0
 315 552 l 1
 257 529 l 1
 242 584 l 1
267 -20 m 1
 276 40 l 1
 336 40 l 1
 327 -20 l 1
 267 -20 l 1
359 560 m 1xe0
 368 620 l 1
 428 620 l 1
 419 560 l 1
 359 560 l 1xe0
380 48 m 1
 438 71 l 1
 453 16 l 1
 394 -7 l 1
 380 48 l 1
459 552 m 1
 491 607 l 1xd0
 542 584 l 1
 511 529 l 1
 459 552 l 1
478 95 m 1
 527 137 l 1
 562 95 l 1
 513 53 l 1
 478 95 l 1
543 505 m 1
 592 547 l 1
 627 505 l 1
 578 463 l 1
 543 505 l 1
556 173 m 1
 588 228 l 1
 639 205 l 1
 608 150 l 1
 556 173 l 1
597 427 m 1
 655 450 l 1
 670 395 l 1
 611 372 l 1
 597 427 l 1
603 270 m 1
 612 330 l 1
 672 330 l 1
 663 270 l 1
 603 270 l 1
EndSplineSet
Colour: ffff00
EndChar

StartChar: uni0E0A.swap
Encoding: 60938 60938 229
Width: 770
VWidth: -360
Flags: W
HStem: -20 180<298.478 399.844> 490 170<638.025 748> 580 20G<81.8889 332.5>
VStem: 442 264<298 410.732>
AnchorPoint: "th-vow-above" 695 660 basechar 0
LayerCount: 2
Fore
SplineSet
21 178 m 0xd0
 21 191 23 205 25 220 c 0
 44 338 137 420 137 420 c 1
 57 420 l 1
 85 600 l 1
 295 600 l 2xb0
 370 600 399 566 399 511 c 0
 399 501 398 491 396 480 c 0
 383 397 310 317 295 220 c 0
 294 215 293 210 293 206 c 0
 293 174 315 160 345 160 c 0
 379 160 408 177 415 220 c 2
 439 370 l 2
 441 382 442 393 442 401 c 0
 442 420 435 430 418 430 c 2
 408 430 l 1
 422 520 l 1
 455 545 620 660 775 660 c 1
 748 490 l 1
 671 490 622 480 588 467 c 1
 656 453 706 391 706 355 c 0
 706 353 705 352 705 350 c 2
 685 220 l 2
 659 54 518 -20 317 -20 c 0
 134 -20 21 46 21 178 c 0xd0
EndSplineSet
Colour: ffff00
EndChar

StartChar: uni0E0B.swap
Encoding: 60939 60939 230
Width: 780
VWidth: -360
Flags: W
HStem: -20 180<308.292 409.844> 490 170<649.085 758> 590 20G<53.75 97 270 346>
VStem: 452 264<298 410.732>
AnchorPoint: "th-vow-above" 715 660 basechar 0
LayerCount: 2
Fore
SplineSet
31 176 m 0xd0
 31 190 33 204 35 220 c 0
 53 333 188 369 197 425 c 0
 199 438 196 450 181 450 c 0
 152 450 124 419 113 400 c 1
 103 400 l 1
 31 450 l 1
 57 610 l 1
 67 610 l 1
 157 550 l 1
 180 570 233 610 307 610 c 0xb0
 385 610 428 564 428 502 c 0
 428 495 427 488 426 480 c 0
 413 397 320 317 305 220 c 0
 304 215 303 210 303 206 c 0
 303 173 325 160 355 160 c 0
 389 160 418 177 425 220 c 2
 449 370 l 2
 451 382 452 393 452 401 c 0
 452 420 445 430 428 430 c 2
 423 430 l 1
 437 520 l 1
 470 545 630 660 785 660 c 1
 758 490 l 1
 681 490 632 480 598 467 c 1
 666 453 716 391 716 355 c 0
 716 353 715 352 715 350 c 2
 695 220 l 2
 669 54 528 -20 327 -20 c 0
 145 -20 31 41 31 176 c 0xd0
EndSplineSet
Colour: ffff00
EndChar

StartChar: uni0E28.swap
Encoding: 60968 60968 231
Width: 800
VWidth: 0
Flags: W
HStem: 0 21G<-20 253.226 410 683.189> 165 175<319.153 385.556> 430 190<330.843 458.907> 510 170<699.316 801>
AnchorPoint: "th-vow-above" 705 660 basechar 0
LayerCount: 2
Fore
SplineSet
-20 0 m 1xe0
 39 370 l 2
 65 536 214 620 428 620 c 0xe0
 485 620 530 609 563 597 c 1
 633 636 732 680 828 680 c 1
 801 510 l 1xd0
 759 510 726 507 698 502 c 1
 721 477 741 439 741 394 c 0
 741 386 740 378 739 370 c 2
 680 0 l 1
 410 0 l 1
 467 360 l 2
 468 365 468 369 468 373 c 0
 468 412 438 430 398 430 c 0
 354 430 315 408 307 360 c 2
 296 290 l 1
 318 317 345 340 374 340 c 0
 396 340 403 335 412 330 c 1
 385 160 l 1
 377 162 367 165 351 165 c 0
 317 165 287 145 270 124 c 1
 250 0 l 1
 -20 0 l 1xe0
EndSplineSet
Colour: ffff00
EndChar

StartChar: uni0E2A.swap
Encoding: 60970 60970 232
Width: 760
VWidth: 0
Flags: W
HStem: -10 140<123 326.5> 0 21G<370 643.189> 230 140<176 373.717> 440 180<196.488 413.145> 510 170<657.425 761>
VStem: 428 272<311.977 422.151>
AnchorPoint: "th-vow-above" 665 660 basechar 0
LayerCount: 2
Fore
SplineSet
-4 146 m 0xa4
 -4 157 -3 168 -1 180 c 0
 16 288 103 370 249 370 c 0
 346 370 396 335 419 311 c 1
 427 360 l 2
 428 365 428 370 428 375 c 0
 428 425 381 440 310 440 c 0
 232 440 150 416 103 400 c 1
 67 550 l 1
 67 550 206 620 408 620 c 0xb4
 458 620 498 611 528 599 c 1
 597 638 695 680 788 680 c 1
 761 510 l 1
 717 510 683 507 655 502 c 1
 675 482 700 446 700 395 c 0
 700 387 700 379 699 370 c 2
 640 0 l 1
 370 0 l 1x6c
 403 208 l 1
 387 222 368 230 336 230 c 0
 304 230 275 215 269 180 c 0
 268 177 268 174 268 171 c 0
 268 143 292 130 321 130 c 0
 332 130 342 132 351 135 c 1
 334 25 l 1
 299 6 251 -10 188 -10 c 0
 58 -10 -4 55 -4 146 c 0xa4
EndSplineSet
Colour: ffff00
EndChar

StartChar: uni0E2C.swap
Encoding: 60972 60972 233
Width: 1040
VWidth: -360
Flags: W
HStem: 0 21G<117.5 408.4 528 818.867> 510 170<891.48 1041> 580 20G<45 330.182 477 636.697>
VStem: 736 243<377.979 478.086>
AnchorPoint: "th-vow-below" 780 0 basechar 0
AnchorPoint: "th-vow-above" 885 660 basechar 0
LayerCount: 2
Fore
SplineSet
45 600 m 1xb0
 330 600 l 1
 333 270 l 1
 331 230 l 1
 341 230 l 1
 353 270 l 1
 485 600 l 1
 560 600 l 1
 635 600 l 1
 663 270 l 1
 661 230 l 1
 671 230 l 1
 683 270 l 1
 724 400 l 1
 724 400 732 429 735 445 c 0
 736 449 736 453 736 457 c 0
 736 470 733 485 718 490 c 1
 735 600 l 1xb0
 769 618 928 680 1068 680 c 1
 1041 510 l 1
 871 510 l 1xd0
 870 505 l 1
 930 505 979 476 979 418 c 0
 979 412 979 406 978 400 c 0
 973 367 943 300 943 300 c 1
 810 0 l 1
 530 0 l 1
 505 250 l 1
 400 0 l 1
 120 0 l 1
 45 600 l 1xb0
EndSplineSet
Colour: ffff00
EndChar

StartChar: uni0E2E.swap
Encoding: 60974 60974 234
Width: 750
VWidth: 0
Flags: W
HStem: -20 180<261.043 374.274> 230 110<250 296> 440 180<190.917 425> 510 170<646.575 751>
VStem: 420 272<224.711 406.158>
AnchorPoint: "th-vow-above" 655 660 basechar 0
LayerCount: 2
Fore
SplineSet
7 205 m 0xd8
 7 222 8 241 11 260 c 0
 18 305 46 340 84 340 c 2
 314 340 l 1
 296 230 l 1
 251 230 l 1
 250 225 250 220 250 216 c 0
 250 178 279 160 315 160 c 0
 373 160 404 210 418 300 c 0
 420 312 420 323 420 333 c 0
 420 409 369 440 290 440 c 0
 218 440 150 416 103 400 c 1
 67 550 l 1
 67 550 196 620 398 620 c 0xe8
 452 620 490 610 517 599 c 1
 586 638 684 680 778 680 c 1
 751 510 l 1
 707 510 671 507 643 501 c 1
 667 478 692 436 692 362 c 0
 692 343 692 323 688 300 c 0
 660 123 501 -20 287 -20 c 0
 123 -20 7 52 7 205 c 0xd8
EndSplineSet
Colour: ffff00
EndChar
